<?xml version="1.0" standalone="no"?>
<!DOCTYPE svg PUBLIC "-//W3C//DTD SVG 20010904//EN"
 "http://www.w3.org/TR/2001/REC-SVG-20010904/DTD/svg10.dtd">
<svg version="1.0" xmlns="http://www.w3.org/2000/svg"
 width="200.000000pt" height="200.000000pt" viewBox="0 0 200.000000 200.000000"
 preserveAspectRatio="xMidYMid meet">
<metadata>
Created by potrace 1.11, written by Peter Selinger 2001-2013
</metadata>
<g transform="translate(0.000000,200.000000) scale(0.100000,-0.100000)"
fill="#000000" stroke="none">
<path d="M950 1979 c0 -4 -20 -6 -45 -4 -25 1 -48 -1 -51 -6 -2 -4 -12 -6 -22
-3 -14 5 -15 4 -2 -5 9 -6 18 -7 24 -1 18 18 29 10 12 -9 -16 -17 -16 -19 1
-26 10 -5 23 -8 28 -7 6 1 10 -19 11 -43 0 -28 -4 -44 -10 -42 -6 2 -10 12 -8
22 2 10 -1 14 -7 10 -6 -3 -11 -13 -11 -21 0 -8 -4 -14 -10 -14 -5 0 -10 -5
-10 -11 0 -8 5 -8 15 1 12 10 18 10 30 0 8 -7 13 -16 10 -20 -5 -9 36 -7 52 3
6 4 14 1 16 -5 4 -9 6 -8 6 2 1 13 3 13 12 0 9 -13 10 -12 5 3 -3 10 0 17 7
17 8 0 7 4 -3 9 -8 6 -18 7 -24 4 -5 -3 -6 -1 -2 5 5 8 1 10 -11 6 -16 -6 -15
-4 2 10 11 10 15 15 9 12 -6 -3 -11 1 -11 9 0 8 5 12 11 9 6 -3 3 1 -7 9 -10
8 -14 17 -10 19 4 3 2 3 -4 2 -7 -2 -13 2 -13 7 0 7 9 9 21 6 17 -4 19 -3 10
6 -6 6 -23 11 -38 12 -14 0 -29 7 -31 15 -5 13 -3 13 11 1 14 -11 17 -11 17 0
0 10 3 10 12 1 18 -18 31 -15 24 6 -5 14 -4 14 9 -2 8 -11 15 -14 15 -8 0 7 5
12 11 12 8 0 8 -4 1 -13 -7 -8 -6 -17 3 -30 12 -17 13 -15 10 19 -2 32 -1 35
10 21 11 -15 13 -16 19 -2 3 8 11 15 18 15 9 0 9 -3 -2 -10 -8 -5 -11 -12 -7
-16 7 -7 37 13 37 26 0 10 -33 9 -47 -3 -8 -5 -13 -5 -13 0 0 5 -18 9 -40 9
-22 0 -40 -3 -40 -7z m-20 -44 c9 6 9 2 0 -15 -7 -13 -8 -20 -2 -16 6 4 15 -1
21 -11 12 -22 -5 -57 -22 -47 -7 4 -8 3 -4 -1 7 -8 28 -15 54 -17 7 -1 10 -5
7 -10 -3 -5 -9 -6 -14 -3 -5 3 -11 1 -14 -4 -4 -5 -14 -8 -24 -7 -14 2 -17 13
-17 62 0 48 -3 59 -17 59 -22 0 -32 11 -23 25 5 8 12 6 25 -5 10 -9 24 -14 30
-10z"/>
<path d="M926 1881 c-4 -5 -2 -12 3 -15 5 -4 12 -2 15 3 4 5 2 12 -3 15 -5 4
-12 2 -15 -3z"/>
<path d="M1084 1959 c-10 -11 -26 -17 -40 -15 -17 3 -21 1 -17 -10 3 -8 8 -12
12 -10 4 3 8 -4 8 -15 1 -10 -3 -19 -8 -19 -6 0 -7 5 -4 11 4 6 1 10 -6 8 -26
-3 -40 1 -35 10 3 5 -2 15 -12 22 -15 13 -16 12 -4 -3 9 -11 10 -18 2 -23 -7
-4 -8 -11 -2 -18 5 -7 8 -20 7 -30 -2 -9 5 -22 15 -27 13 -7 16 -17 13 -32 -3
-13 -4 -21 -2 -18 2 3 13 16 24 29 18 22 18 24 2 18 -12 -5 -16 -3 -11 5 4 7
3 8 -4 4 -8 -4 -10 -2 -6 7 3 8 -2 22 -11 31 -9 9 -11 16 -5 16 6 0 13 -6 16
-14 3 -8 12 -12 20 -9 8 3 14 0 14 -7 0 -6 -4 -8 -10 -5 -5 3 -10 1 -10 -4 0
-6 2 -11 4 -11 2 0 12 -3 20 -6 13 -5 15 -2 9 12 -7 18 -6 18 11 2 9 -10 23
-18 29 -18 7 0 4 -5 -6 -11 -9 -5 -22 -7 -28 -4 -10 7 -39 -11 -39 -25 0 -3 6
-7 13 -7 29 0 114 -13 145 -22 18 -5 30 -6 27 -1 -3 5 0 12 6 16 7 4 9 3 6 -3
-9 -14 9 -27 58 -44 22 -7 52 -21 67 -31 14 -10 29 -18 33 -18 10 0 120 -80
169 -121 46 -40 83 -50 122 -34 38 16 51 33 58 75 9 46 -15 83 -93 149 -118
97 -242 158 -407 200 -97 24 -128 24 -150 0z m14 -12 c-16 -13 -28 -27 -28
-31 0 -5 8 -2 17 5 14 12 14 10 -1 -13 -10 -16 -19 -28 -20 -28 -1 0 -2 12 -1
26 0 15 10 33 25 44 35 27 41 24 8 -3z m52 13 c0 -5 -5 -10 -11 -10 -5 0 -7 5
-4 10 3 6 8 10 11 10 2 0 4 -4 4 -10z m70 -14 c0 -2 -8 -10 -17 -17 -16 -13
-17 -12 -4 4 13 16 21 21 21 13z m-80 -10 c0 -2 -7 -6 -15 -10 -8 -3 -15 -1
-15 4 0 6 7 10 15 10 8 0 15 -2 15 -4z m-10 -43 c0 -3 -7 -2 -16 1 -12 5 -15
2 -10 -9 3 -9 2 -13 -4 -10 -6 3 -10 1 -10 -6 0 -7 -3 -10 -6 -7 -11 12 16 47
31 42 8 -4 15 -8 15 -11z m42 10 c-10 -4 -10 -8 0 -21 12 -15 11 -16 -4 -3
-19 14 -15 32 5 30 8 0 8 -2 -1 -6z m38 -23 c0 -5 -5 -10 -11 -10 -5 0 -7 5
-4 10 3 6 8 10 11 10 2 0 4 -4 4 -10z m-65 -10 c3 -6 -1 -7 -9 -4 -18 7 -21
14 -7 14 6 0 13 -4 16 -10z m-18 -16 c-3 -3 -12 -4 -19 -1 -8 3 -5 6 6 6 11 1
17 -2 13 -5z m58 -3 c3 -5 2 -12 -3 -15 -5 -3 -9 1 -9 9 0 17 3 19 12 6z m62
-36 c0 -8 -4 -12 -9 -9 -5 3 -6 10 -3 15 9 13 12 11 12 -6z m-103 -7 c-3 -4
-16 -7 -29 -6 -31 3 -24 13 8 13 14 0 23 -3 21 -7z m44 -13 c-3 -3 -9 2 -12
12 -6 14 -5 15 5 6 7 -7 10 -15 7 -18z"/>
<path d="M733 1936 c-3 -6 -3 -8 2 -4 4 4 13 3 20 -2 8 -7 12 -5 12 3 0 16
-25 18 -34 3z"/>
<path d="M786 1920 c5 -8 9 -18 9 -22 0 -3 3 -9 7 -13 3 -4 5 0 4 9 -1 9 -8
22 -16 29 -10 10 -11 9 -4 -3z"/>
<path d="M820 1920 c0 -5 5 -10 10 -10 6 0 10 5 10 10 0 6 -4 10 -10 10 -5 0
-10 -4 -10 -10z"/>
<path d="M838 1890 c-17 -19 -14 -20 45 -11 4 0 7 6 7 13 0 9 -3 9 -12 0 -17
-17 -33 -15 -18 3 18 22 -2 17 -22 -5z"/>
<path d="M779 1858 c-5 -18 -6 -38 -1 -34 7 8 12 36 6 36 -2 0 -4 -1 -5 -2z"/>
<path d="M831 1833 c-10 -26 -10 -27 4 -9 8 11 15 23 15 28 0 15 -7 8 -19 -19z"/>
<path d="M873 1795 c0 -8 4 -12 9 -9 4 3 8 9 8 15 0 5 -4 9 -8 9 -5 0 -9 -7
-9 -15z"/>
<path d="M830 1790 c-8 -5 -10 -10 -5 -10 6 0 17 5 25 10 8 5 11 10 5 10 -5 0
-17 -5 -25 -10z"/>
<path d="M786 1778 c3 -5 10 -6 15 -3 13 9 11 12 -6 12 -8 0 -12 -4 -9 -9z"/>
<path d="M270 1671 c-58 -59 -135 -168 -169 -242 -34 -74 -69 -179 -57 -172 6
4 5 0 -2 -9 -7 -9 -14 -32 -15 -52 -1 -20 -5 -36 -8 -36 -3 0 -7 -21 -8 -48 0
-26 -3 -57 -6 -70 -2 -12 0 -20 4 -17 5 3 11 -2 15 -10 3 -8 10 -15 16 -15 6
0 3 11 -6 26 -13 19 -14 28 -5 37 10 9 11 8 5 -7 -5 -14 -4 -17 5 -12 6 4 10
4 9 -1 -5 -20 14 -52 29 -46 14 5 14 7 -1 15 -9 5 -16 14 -16 21 0 8 3 8 9 -2
6 -9 11 -10 15 -2 4 6 4 11 0 11 -3 0 -1 6 5 13 14 18 55 15 59 -4 1 -8 -7
-20 -18 -27 -11 -7 -20 -8 -20 -3 0 5 7 11 15 15 8 3 15 11 15 17 0 8 -4 8
-15 -1 -12 -10 -15 -10 -15 0 0 19 -13 3 -17 -21 -4 -24 22 -36 42 -19 9 7 18
10 22 6 3 -3 1 -6 -6 -6 -7 0 -10 -4 -6 -9 3 -5 1 -12 -5 -16 -5 -3 -10 -10
-10 -16 0 -5 9 -4 19 3 11 7 18 16 15 20 -3 4 2 5 11 1 12 -4 13 -8 5 -13 -9
-6 -9 -9 1 -12 10 -3 10 -6 1 -12 -7 -4 -12 -2 -12 3 0 6 -5 11 -11 11 -8 0
-7 -5 1 -16 8 -8 9 -14 4 -13 -5 1 -16 1 -24 0 -13 -1 -13 -2 0 -11 12 -7 10
-9 -7 -7 -12 0 -19 5 -16 11 3 5 1 6 -6 2 -6 -4 -11 -4 -10 1 3 20 -2 34 -11
28 -5 -3 -7 -12 -3 -20 6 -18 -8 -19 -26 -2 -8 6 -11 7 -8 2 3 -6 -3 -11 -13
-11 -10 0 -17 4 -14 7 2 4 0 10 -6 14 -7 4 -7 12 0 24 5 10 6 21 3 25 -15 14
-20 4 -16 -31 2 -21 5 -62 7 -92 2 -36 8 -58 19 -66 9 -7 14 -15 10 -18 -3 -4
-1 -7 6 -7 8 0 11 6 7 16 -3 9 -6 18 -6 20 0 3 -4 3 -9 0 -17 -11 -20 22 -4
36 15 11 16 11 10 -5 -4 -11 -3 -16 3 -12 6 3 10 2 10 -4 0 -6 16 -10 35 -9
39 1 44 12 18 40 -9 10 -11 18 -5 18 6 0 19 -11 28 -25 9 -14 23 -25 30 -25 8
0 13 -5 11 -12 -1 -6 6 -13 16 -14 12 -1 13 0 2 3 -8 2 -12 9 -9 14 3 6 -3 13
-15 16 -25 6 -27 16 -4 34 14 12 16 12 12 -1 -3 -8 3 -23 13 -32 10 -10 18
-14 18 -9 0 6 -4 12 -9 15 -9 6 -6 209 4 226 3 5 0 10 -7 10 -10 0 -10 2 0 9
8 4 13 11 12 15 -2 10 11 66 27 116 37 112 88 197 185 312 43 51 51 82 33 125
-15 36 -46 55 -94 59 -30 2 -42 -6 -91 -55z m-180 -510 c0 -5 -8 -15 -17 -22
-16 -12 -17 -12 -6 2 7 9 10 19 6 22 -3 4 -1 7 5 7 7 0 12 -4 12 -9z m34 1 c3
-5 -1 -9 -9 -9 -8 0 -12 4 -9 9 3 4 7 8 9 8 2 0 6 -4 9 -8z m46 -4 c0 -4 -4
-8 -9 -8 -6 0 -12 4 -15 8 -3 5 1 9 9 9 8 0 15 -4 15 -9z m-120 -69 c0 -5 4
-7 10 -4 6 4 7 -1 4 -12 -5 -16 -4 -16 10 1 9 11 16 15 16 9 0 -6 -6 -16 -14
-22 -11 -9 -17 -6 -30 14 -9 14 -12 25 -6 25 5 0 10 -5 10 -11z m121 -4 c11 6
11 5 2 -5 -12 -14 -33 -6 -33 13 0 8 3 7 9 -2 5 -8 14 -10 22 -6z m9 -46 c0
-5 -4 -9 -8 -9 -5 0 -9 7 -9 15 0 8 4 12 9 9 4 -3 8 -9 8 -15z m10 -29 c0 -5
-2 -10 -4 -10 -3 0 -8 5 -11 10 -3 6 -1 10 4 10 6 0 11 -4 11 -10z m-4 -90 c2
-28 0 -29 -12 -13 -13 17 -14 17 -8 1 4 -11 1 -18 -6 -18 -6 0 -8 5 -4 12 4 7
3 8 -4 4 -6 -4 -8 -14 -5 -24 5 -13 1 -12 -19 6 -13 12 -27 22 -30 22 -10 0
-3 -29 10 -42 7 -7 12 -15 12 -18 0 -11 -49 -10 -56 2 -11 18 -13 58 -3 58 6
0 8 4 5 8 -5 9 23 10 39 1 19 -10 50 -4 47 9 -1 8 2 11 7 8 5 -4 12 -2 16 4 9
15 10 13 11 -20z m-139 -10 c-1 -11 -5 -20 -10 -20 -4 0 -5 -4 -2 -10 3 -5 2
-10 -4 -10 -7 0 -8 33 -2 58 1 1 5 2 10 2 6 0 9 -9 8 -20z"/>
<path d="M73 903 c4 -3 1 -13 -6 -22 -11 -14 -10 -14 5 -2 16 12 16 31 1 31
-4 0 -3 -3 0 -7z"/>
<path d="M76 862 c-3 -5 1 -9 9 -9 8 0 15 4 15 9 0 4 -4 8 -9 8 -6 0 -12 -4
-15 -8z"/>
<path d="M1806 1282 c-3 -5 1 -9 9 -9 8 0 12 4 9 9 -3 4 -7 8 -9 8 -2 0 -6 -4
-9 -8z"/>
<path d="M1876 1257 c3 -10 9 -15 12 -12 3 3 0 11 -7 18 -10 9 -11 8 -5 -6z"/>
<path d="M1908 1258 c5 -5 16 -8 23 -6 8 3 3 7 -10 11 -17 4 -21 3 -13 -5z"/>
<path d="M1796 1247 c3 -10 9 -15 12 -12 3 3 0 11 -7 18 -10 9 -11 8 -5 -6z"/>
<path d="M760 989 l0 -250 216 3 216 3 34 37 c46 51 48 107 3 161 -17 20 -37
37 -45 37 -20 0 -17 18 4 24 64 21 91 116 50 176 -39 57 -52 60 -275 60 l-203
0 0 -251z m407 167 c20 -24 24 -36 19 -65 -11 -69 -27 -76 -201 -79 l-155 -3
0 91 0 91 156 -3 156 -3 25 -29z m-6 -225 c31 -31 36 -55 18 -94 -18 -40 -50
-47 -204 -47 l-145 0 0 85 0 85 151 0 151 0 29 -29z"/>
<path d="M1895 1230 c-3 -6 1 -7 9 -4 18 7 21 14 7 14 -6 0 -13 -4 -16 -10z"/>
<path d="M1775 1220 c3 -5 8 -10 11 -10 2 0 4 5 4 10 0 6 -5 10 -11 10 -5 0
-7 -4 -4 -10z"/>
<path d="M1817 1214 c-3 -3 -3 -13 0 -22 5 -11 3 -13 -7 -7 -9 5 -11 4 -6 -4
10 -16 25 -4 23 19 -1 22 -1 22 -10 14z"/>
<path d="M1857 1201 c-3 -12 0 -24 5 -28 6 -3 8 -1 4 5 -3 5 -2 12 4 14 5 2 6
9 1 16 -6 10 -10 9 -14 -7z"/>
<path d="M1915 1210 c3 -5 8 -10 11 -10 2 0 4 5 4 10 0 6 -5 10 -11 10 -5 0
-7 -4 -4 -10z"/>
<path d="M1894 1193 c2 -11 12 -18 25 -17 12 0 20 -3 19 -8 -2 -5 -6 -8 -10
-6 -12 6 -47 -34 -41 -48 3 -8 1 -14 -5 -14 -18 0 -21 29 -5 45 8 9 13 18 10
21 -7 8 -47 -47 -41 -57 3 -5 1 -9 -4 -9 -18 0 -21 13 -7 34 18 24 19 36 4 36
-5 0 -8 -4 -5 -8 3 -5 -6 -25 -19 -45 -14 -20 -21 -38 -16 -41 4 -3 7 -38 6
-78 -1 -43 3 -76 9 -80 7 -5 6 -8 -4 -8 -10 0 -16 -11 -17 -33 -6 -123 -96
-308 -212 -437 -39 -43 -46 -60 -41 -104 5 -52 62 -91 116 -82 55 10 186 172
247 306 34 76 63 162 71 216 4 22 9 47 12 58 9 28 12 226 3 231 -4 3 -5 14 -2
24 3 10 0 22 -7 26 -8 5 -7 11 2 23 11 13 11 14 -1 7 -11 -6 -13 -3 -9 13 4
12 2 20 -3 16 -5 -3 -9 -12 -9 -21 0 -9 -3 -13 -7 -9 -4 4 -8 15 -8 24 0 12
-7 16 -24 14 -14 -2 -21 0 -17 6 4 6 2 13 -3 16 -5 4 -8 -2 -7 -11z m46 -52
c0 -13 -16 -27 -27 -25 -23 3 -24 4 -11 17 12 14 38 19 38 8z m25 -10 c-3 -5
0 -13 6 -16 5 -4 8 -14 5 -22 -3 -8 -3 -20 1 -26 13 -20 9 -51 -7 -64 -13 -10
-13 -12 3 -18 9 -4 17 -14 17 -22 0 -11 -6 -8 -21 8 -16 18 -19 20 -15 6 3
-10 2 -16 -3 -13 -5 3 -11 -1 -15 -9 -6 -17 -26 -20 -26 -4 0 5 5 7 10 4 6 -3
10 -2 10 4 0 19 -20 22 -27 5 -6 -16 -7 -16 -13 1 -4 11 -18 19 -36 21 -27 3
-28 2 -10 -11 10 -8 23 -12 29 -8 6 3 7 1 3 -5 -3 -6 2 -15 11 -21 11 -6 13
-11 5 -11 -7 0 -11 -4 -7 -9 3 -5 0 -13 -6 -17 -8 -4 -9 -3 -5 4 4 7 1 12 -6
12 -10 0 -10 2 0 9 11 6 6 14 -17 30 -17 13 -29 26 -26 31 3 5 -1 11 -7 14 -7
3 -2 3 12 -1 22 -5 23 -4 11 10 -7 9 -18 14 -25 10 -6 -4 -5 1 3 10 11 14 11
17 0 17 -11 0 -11 2 1 10 8 5 20 10 25 10 6 0 3 -5 -5 -10 -11 -8 -5 -9 20 -5
25 4 31 3 20 -5 -8 -5 -10 -10 -4 -10 5 0 16 6 23 13 8 6 11 7 8 2 -3 -6 3
-11 13 -11 10 0 16 5 13 10 -4 5 -1 6 7 1 9 -5 11 -4 6 3 -5 8 -1 10 11 6 13
-4 15 -3 5 4 -8 5 -14 13 -14 17 0 4 6 12 14 16 10 7 10 9 1 9 -7 0 -23 -10
-35 -22 -16 -16 -23 -18 -26 -9 -4 11 -6 11 -13 0 -8 -12 -11 -11 -19 1 -7 11
-10 11 -10 2 0 -10 -5 -10 -21 -1 -17 8 -20 8 -14 -1 5 -8 3 -11 -4 -9 -27 9
-9 24 31 26 58 2 72 6 92 26 19 18 31 23 21 8z m-25 -56 c-7 -8 -17 -15 -23
-15 -6 0 -2 7 9 15 25 19 30 19 14 0z m-116 -135 c-6 -6 -10 -3 -10 10 0 13 4
16 10 10 7 -7 7 -13 0 -20z m23 -10 c-2 -11 -6 -22 -9 -26 -4 -3 -5 2 -3 13 2
10 4 21 4 26 1 4 3 7 6 7 3 0 4 -9 2 -20z m126 6 c4 -10 1 -13 -9 -9 -7 3 -14
9 -14 14 0 14 17 10 23 -5z m-33 -10 c0 -2 -9 -6 -20 -9 -11 -3 -18 -1 -14 4
5 9 34 13 34 5z m13 -27 c-8 -8 -13 -7 -18 2 -5 8 -4 10 3 5 7 -4 12 -2 12 5
0 7 3 9 7 6 4 -4 2 -12 -4 -18z m-90 -19 c3 -11 1 -18 -4 -14 -5 3 -9 12 -9
20 0 20 7 17 13 -6z m62 10 c3 -5 1 -10 -4 -10 -6 0 -11 5 -11 10 0 6 2 10 4
10 3 0 8 -4 11 -10z m-88 -22 c-3 -8 -6 -5 -6 6 -1 11 2 17 5 13 3 -3 4 -12 1
-19z m95 -5 c-6 -3 -9 -10 -5 -16 4 -7 -1 -6 -10 2 -21 17 -21 17 6 18 12 0
16 -1 9 -4z m34 -17 c1 -7 -4 -13 -12 -13 -9 0 -11 4 -4 12 5 7 8 15 5 18 -3
4 -2 5 2 2 4 -3 8 -11 9 -19z m-19 -61 c0 -8 -4 -12 -9 -9 -5 3 -6 10 -3 15 9
13 12 11 12 -6z"/>
<path d="M1964 1052 c-13 -8 -15 -42 -2 -42 4 0 8 3 9 8 0 4 2 15 4 25 4 19 4
19 -11 9z"/>
<path d="M1842 1041 c-17 -11 12 -36 30 -26 7 4 4 -1 -7 -11 -16 -13 -17 -16
-3 -11 10 3 20 2 24 -4 3 -6 12 -8 19 -5 7 2 18 -1 24 -7 6 -6 12 -7 12 -1 8
57 1 67 -42 59 -13 -3 -28 0 -34 5 -6 5 -16 5 -23 1z m80 -18 c-10 -4 -9 -9 5
-20 17 -13 16 -13 -4 -4 -28 14 -36 14 -27 -1 4 -7 3 -8 -4 -4 -17 10 -4 32
21 33 12 0 16 -1 9 -4z"/>
<path d="M1955 1200 c-3 -5 -1 -10 4 -10 6 0 11 5 11 10 0 6 -2 10 -4 10 -3 0
-8 -4 -11 -10z"/>
<path d="M1790 1160 c0 -6 7 -10 15 -10 8 0 15 2 15 4 0 2 -7 6 -15 10 -8 3
-15 1 -15 -4z"/>
<path d="M77 988 c-5 -3 -17 -4 -25 -1 -15 6 -34 -15 -26 -29 7 -12 24 -10 24
3 0 5 -5 7 -12 3 -7 -5 -8 -3 -3 6 6 10 13 7 27 -11 11 -13 17 -18 13 -10 -14
25 19 32 37 8 10 -12 18 -17 18 -10 0 6 -5 15 -11 18 -6 5 -5 11 6 18 13 10
11 12 -11 12 -14 0 -31 -3 -37 -7z"/>
<path d="M137 823 c-10 -10 -8 -33 3 -33 5 0 7 8 4 18 -5 14 -3 14 10 -2 9
-11 16 -15 16 -9 0 14 -25 34 -33 26z"/>
<path d="M96 805 c-9 -26 -7 -32 5 -12 6 10 9 21 6 23 -2 3 -7 -2 -11 -11z"/>
<path d="M110 780 c0 -5 5 -10 11 -10 5 0 7 5 4 10 -3 6 -8 10 -11 10 -2 0 -4
-4 -4 -10z"/>
<path d="M188 783 c6 -2 9 -10 6 -15 -4 -7 -2 -8 5 -4 13 9 5 26 -12 25 -9 0
-8 -2 1 -6z"/>
<path d="M64 758 c-4 -5 -3 -12 0 -15 3 -4 6 -1 6 6 0 7 4 10 9 6 5 -3 12 -2
15 3 3 5 -2 9 -10 9 -8 0 -17 -4 -20 -9z"/>
<path d="M216 753 c-6 -14 -5 -15 5 -6 7 7 10 15 7 18 -3 3 -9 -2 -12 -12z"/>
<path d="M160 740 c-9 -6 -10 -10 -3 -10 6 0 15 5 18 10 8 12 4 12 -15 0z"/>
<path d="M46 721 c3 -3 11 -6 17 -6 7 -1 11 -6 10 -11 -1 -6 5 -11 13 -11 12
0 12 3 -1 17 -8 9 -22 17 -30 17 -8 0 -12 -3 -9 -6z"/>
<path d="M119 713 c-13 -16 -12 -17 4 -4 9 7 17 15 17 17 0 8 -8 3 -21 -13z"/>
<path d="M146 682 c-3 -5 1 -9 9 -9 8 0 15 4 15 9 0 4 -4 8 -9 8 -6 0 -12 -4
-15 -8z"/>
<path d="M324 445 c-44 -18 -69 -75 -54 -120 21 -62 176 -183 315 -243 87 -38
181 -65 195 -57 5 3 10 1 10 -6 0 -7 13 -10 34 -7 19 2 32 0 30 -4 -8 -12 11
-9 24 4 7 7 12 8 12 2 0 -15 47 -15 53 0 7 18 -18 42 -28 26 -3 -5 -10 -10
-15 -10 -4 0 8 16 27 35 19 19 38 35 41 35 3 0 1 -5 -6 -12 -7 -7 -12 -16 -12
-20 0 -15 15 -8 28 12 11 17 10 21 -5 27 -39 15 -63 73 -31 73 6 0 5 -6 -2
-15 -17 -21 -1 -19 22 2 11 10 19 13 18 8 -5 -24 1 -27 16 -9 8 10 12 13 8 5
-5 -10 -3 -12 7 -7 8 4 5 0 -5 -8 -11 -9 -15 -16 -10 -16 6 0 11 -7 11 -15 0
-8 -5 -15 -11 -15 -5 0 -3 -6 6 -12 19 -15 18 -62 -1 -80 -11 -11 -12 -10 -6
0 6 11 3 12 -12 3 -11 -6 -23 -7 -27 -4 -3 3 -6 2 -6 -4 0 -5 30 -9 70 -9 38
0 64 3 58 7 -7 4 -6 8 3 11 8 3 20 -2 27 -11 11 -14 11 -14 5 3 -6 18 -5 18
23 1 l29 -17 -24 21 c-12 11 -27 18 -32 15 -5 -3 -9 0 -9 6 0 6 7 13 15 16 8
4 15 11 15 17 0 5 -9 2 -20 -8 -11 -10 -20 -14 -20 -9 1 12 30 50 30 39 0 -5
5 -4 11 2 13 13 2 56 -12 48 -13 -9 -11 9 3 23 9 9 9 15 -1 25 -10 10 -11 8
-5 -8 7 -17 5 -18 -7 -8 -12 10 -17 8 -27 -8 -7 -10 -17 -19 -24 -19 -6 0 -3
9 7 20 10 11 13 20 8 20 -6 0 -13 -7 -17 -15 -3 -8 -11 -15 -17 -15 -8 0 -8 4
-1 13 9 10 0 13 -41 13 -80 1 -140 12 -262 47 -65 19 -211 110 -284 177 -25
22 -49 40 -55 41 -6 0 -18 2 -27 4 -8 1 -29 -3 -45 -10z m461 -254 c3 -5 2
-12 -3 -15 -5 -3 -9 1 -9 9 0 17 3 19 12 6z m105 -13 c0 -11 -12 -10 -30 2
-12 7 -10 9 8 7 12 0 22 -5 22 -9z m-64 -18 c0 -12 -4 -16 -9 -11 -5 5 -6 14
-3 20 10 15 12 14 12 -9z m274 -5 c-7 -8 -17 -15 -22 -15 -6 0 -5 7 2 15 7 8
17 15 22 15 6 0 5 -7 -2 -15z m-14 -21 c19 7 44 -3 44 -18 0 -6 -9 -12 -19
-13 -14 -1 -18 3 -14 15 4 14 3 14 -5 3 -9 -12 -13 -12 -26 -2 -9 8 -16 9 -16
3 0 -6 3 -12 8 -15 4 -2 2 -3 -5 -1 -7 2 -10 -8 -8 -24 2 -15 -2 -31 -9 -35
-7 -6 -5 -7 6 -4 9 3 19 1 21 -6 3 -7 5 -3 6 8 2 42 5 55 12 55 16 0 18 -18 3
-30 -12 -11 -12 -15 -2 -22 10 -6 8 -11 -7 -20 -26 -16 -66 -18 -57 -4 9 15
11 59 3 71 -6 8 -7 37 -2 61 0 4 13 -1 27 -11 14 -9 32 -14 40 -11z m-146 -38
c0 -6 -5 -4 -10 4 -9 14 -14 7 -11 -14 3 -13 -20 -36 -35 -36 -8 0 -14 4 -14
10 0 5 8 7 18 3 16 -6 16 -5 0 14 -10 11 -18 23 -18 27 0 5 9 -2 20 -15 21
-26 27 -20 8 10 -6 10 -8 27 -4 37 7 18 9 18 27 -5 10 -13 19 -28 19 -35z
m-77 23 c-8 -8 -13 -7 -18 2 -5 8 -4 10 3 5 7 -4 12 -2 12 5 0 7 3 9 7 6 4 -4
2 -12 -4 -18z m-48 -19 c-3 -5 -12 -10 -18 -10 -7 0 -6 4 3 10 19 12 23 12 15
0z m255 -14 c0 -3 -4 -8 -10 -11 -5 -3 -10 -1 -10 4 0 6 5 11 10 11 6 0 10 -2
10 -4z m-250 -20 c0 -2 -8 -10 -17 -17 -16 -13 -17 -12 -4 4 13 16 21 21 21
13z m44 -21 c3 -8 1 -15 -4 -15 -6 0 -10 7 -10 15 0 8 2 15 4 15 2 0 6 -7 10
-15z m-24 1 c0 -2 -8 -10 -17 -17 -16 -13 -17 -12 -4 4 13 16 21 21 21 13z
m90 -26 c0 -5 -5 -10 -11 -10 -5 0 -7 5 -4 10 3 6 8 10 11 10 2 0 4 -4 4 -10z"/>
<path d="M1024 125 c1 -13 5 -27 8 -30 4 -4 5 1 4 12 -2 10 1 21 6 24 5 3 3 9
-5 12 -10 4 -13 -2 -13 -18z"/>
<path d="M900 120 c0 -19 3 -21 12 -12 9 9 9 15 0 24 -9 9 -12 7 -12 -12z"/>
<path d="M1294 196 c1 -8 5 -18 8 -22 4 -3 5 1 4 10 -1 8 -5 18 -8 22 -4 3 -5
-1 -4 -10z"/>
<path d="M1148 193 c7 -3 16 -2 19 1 4 3 -2 6 -13 5 -11 0 -14 -3 -6 -6z"/>
<path d="M1173 178 c-3 -7 -1 -8 5 -4 11 7 17 -6 13 -27 -1 -5 3 -6 8 -2 6 3
7 13 4 22 -5 12 -3 14 8 8 8 -5 11 -4 6 0 -12 13 -36 15 -44 3z"/>
<path d="M1140 160 c0 -5 5 -10 10 -10 6 0 10 5 10 10 0 6 -4 10 -10 10 -5 0
-10 -4 -10 -10z"/>
<path d="M1260 166 c0 -2 8 -10 18 -17 15 -13 16 -12 3 4 -13 16 -21 21 -21
13z"/>
<path d="M1316 162 c-3 -5 1 -9 9 -9 8 0 12 4 9 9 -3 4 -7 8 -9 8 -2 0 -6 -4
-9 -8z"/>
<path d="M955 150 c-4 -7 -2 -17 5 -23 10 -9 11 -9 6 3 -4 8 0 6 8 -4 13 -16
16 -17 16 -4 0 22 -26 43 -35 28z"/>
<path d="M1154 120 c0 -13 4 -16 10 -10 7 7 7 13 0 20 -6 6 -10 3 -10 -10z"/>
<path d="M1254 122 c4 -3 14 -7 22 -8 9 -1 13 0 10 4 -4 3 -14 7 -22 8 -9 1
-13 0 -10 -4z"/>
<path d="M1315 120 c-3 -5 -1 -10 4 -10 6 0 11 5 11 10 0 6 -2 10 -4 10 -3 0
-8 -4 -11 -10z"/>
<path d="M1177 103 c-3 -5 5 -8 18 -8 13 0 21 3 18 8 -2 4 -10 7 -18 7 -8 0
-16 -3 -18 -7z"/>
<path d="M1262 84 c10 -10 20 -16 22 -13 3 3 -5 11 -17 18 -21 13 -21 12 -5
-5z"/>
<path d="M985 80 c-3 -5 -3 -10 2 -10 4 0 1 -5 -7 -10 -8 -5 -24 -7 -35 -3
-20 6 -20 6 0 -16 18 -21 20 -21 26 -4 4 10 8 13 8 7 2 -24 26 -9 28 18 1 28
-10 37 -22 18z"/>
<path d="M1140 79 c0 -5 5 -7 10 -4 6 3 10 8 10 11 0 2 -4 4 -10 4 -5 0 -10
-5 -10 -11z"/>
<path d="M1185 79 c-4 -6 -4 -13 -1 -16 3 -4 6 -1 6 6 0 7 5 9 12 5 7 -4 8 -3
4 4 -9 15 -13 15 -21 1z"/>
<path d="M1144 55 c-18 -14 -18 -14 4 -8 12 3 22 9 22 14 0 12 -3 11 -26 -6z"/>
<path d="M1217 45 c3 -8 9 -12 14 -9 12 7 11 11 -5 17 -10 4 -13 1 -9 -8z"/>
<path d="M1275 50 c-4 -6 -11 -7 -17 -4 -7 4 -8 2 -4 -5 6 -9 11 -9 22 0 14
11 18 19 10 19 -3 0 -8 -5 -11 -10z"/>
<path d="M1181 36 c-1 -16 -3 -17 -18 -5 -16 13 -17 12 -4 -4 16 -20 37 -8 28
15 -4 8 -6 6 -6 -6z"/>
</g>
</svg>
