<svg clip-rule="evenodd" fill-rule="evenodd" stroke-linejoin="round" stroke-miterlimit="2" viewBox="0 0 45 45" xmlns="http://www.w3.org/2000/svg"><g fill-rule="nonzero" transform="translate(-1.5 -1.5)"><g fill="#fff"><path d="m24 46.5c-12.4 0-22.5-10.1-22.5-22.5s10.1-22.5 22.5-22.5 22.5 10.1 22.5 22.5-10.1 22.5-22.5 22.5zm0-43c-11.3 0-20.5 9.2-20.5 20.5s9.2 20.5 20.5 20.5 20.5-9.2 20.5-20.5-9.2-20.5-20.5-20.5z"/><path d="m24 7c-.6 0-1-.4-1-1v-3c0-.6.4-1 1-1s1 .4 1 1v3c0 .6-.4 1-1 1z"/><path d="m24 46c-.6 0-1-.4-1-1v-3c0-.6.4-1 1-1s1 .4 1 1v3c0 .6-.4 1-1 1z"/><path d="m45 25h-3c-.6 0-1-.4-1-1s.4-1 1-1h3c.6 0 1 .4 1 1s-.4 1-1 1z"/><path d="m6 25h-3c-.6 0-1-.4-1-1s.4-1 1-1h3c.6 0 1 .4 1 1s-.4 1-1 1z"/></g><path d="m24 27c-1.7 0-3-1.3-3-3v-.2l2-11c.1-.5.5-.8 1-.8s.9.3 1 .8l2 11v.2c0 1.7-1.3 3-3 3zm-1-2.9c0 .5.5.9 1 .9s1-.4 1-.9l-1-5.5z" fill="#2ca9b7"/><path d="m34 35c-.3 0-.5-.1-.7-.3l-10-10c-.4-.4-.4-1 0-1.4s1-.4 1.4 0l10 10c.4.4.4 1 0 1.4-.2.2-.4.3-.7.3z" fill="#2ca9b7"/><g fill="#fff"><path d="m36.7 12.3c-.3 0-.5-.1-.7-.3-.4-.4-.4-1 0-1.4l2.1-2.1c.4-.4 1-.4 1.4 0s.4 1 0 1.4l-2.1 2.1c-.2.2-.4.3-.7.3z"/><path d="m9.2 39.8c-.3 0-.5-.1-.7-.3-.4-.4-.4-1 0-1.4l2.1-2.1c.4-.4 1-.4 1.4 0s.4 1 0 1.4l-2.1 2.1c-.2.3-.5.3-.7.3z"/><path d="m38.8 39.8c-.3 0-.5-.1-.7-.3l-2.1-2.1c-.4-.4-.4-1 0-1.4s1-.4 1.4 0l2.1 2.1c.4.4.4 1 0 1.4-.1.3-.4.3-.7.3z"/><path d="m11.3 12.3c-.3 0-.5-.1-.7-.3l-2.2-2.1c-.4-.4-.4-1 0-1.4s1-.4 1.4 0l2.1 2.1c.4.4.4 1 0 1.4-.1.2-.4.3-.6.3z"/></g></g></svg>