<svg width="14" height="16" viewBox="0 0 14 16" fill="none" xmlns="http://www.w3.org/2000/svg">
<path fill-rule="evenodd" clip-rule="evenodd" d="M3.08009 0.159912C3.32064 0.159912 3.51564 0.354917 3.51564 0.595468V3.2088C3.51564 3.44935 3.32064 3.64436 3.08009 3.64436C2.83954 3.64436 2.64453 3.44935 2.64453 3.2088V0.595468C2.64453 0.354917 2.83954 0.159912 3.08009 0.159912Z" fill="#695682"/>
<path fill-rule="evenodd" clip-rule="evenodd" d="M3.08009 9.74219C3.32064 9.74219 3.51564 9.93719 3.51564 10.1777V13.6622C3.51564 13.9027 3.32064 14.0977 3.08009 14.0977C2.83954 14.0977 2.64453 13.9027 2.64453 13.6622V10.1777C2.64453 9.93719 2.83954 9.74219 3.08009 9.74219Z" fill="#695682"/>
<path fill-rule="evenodd" clip-rule="evenodd" d="M0.902344 4.34119C0.902344 3.47521 1.60436 2.77319 2.47034 2.77319H3.6899C4.55588 2.77319 5.2579 3.47521 5.2579 4.34119V9.04519C5.2579 9.91121 4.55587 10.6132 3.6899 10.6132H2.47034C1.60437 10.6132 0.902344 9.91121 0.902344 9.04519V4.34119Z" fill="#695682"/>
<path fill-rule="evenodd" clip-rule="evenodd" d="M10.9199 2.77319C11.1605 2.77319 11.3555 2.9682 11.3555 3.20875V7.5643C11.3555 7.80486 11.1605 7.99986 10.9199 7.99986C10.6794 7.99986 10.4844 7.80486 10.4844 7.5643V3.20875C10.4844 2.9682 10.6794 2.77319 10.9199 2.77319Z" fill="#695682"/>
<path fill-rule="evenodd" clip-rule="evenodd" d="M10.9199 11.4844C11.1605 11.4844 11.3555 11.6794 11.3555 11.9199V15.4044C11.3555 15.6449 11.1605 15.8399 10.9199 15.8399C10.6794 15.8399 10.4844 15.6449 10.4844 15.4044V11.9199C10.4844 11.6794 10.6794 11.4844 10.9199 11.4844Z" fill="#695682"/>
<path fill-rule="evenodd" clip-rule="evenodd" d="M8.74219 8.69691C8.74219 7.8309 9.44418 7.12891 10.3102 7.12891H11.5297C12.3958 7.12891 13.0977 7.8309 13.0977 8.69691V10.7876C13.0977 11.6536 12.3958 12.3556 11.5297 12.3556H10.3102C9.44418 12.3556 8.74219 11.6536 8.74219 10.7876V8.69691ZM10.3102 8.00002C9.92528 8.00002 9.6133 8.312 9.6133 8.69691V10.7876C9.6133 11.1725 9.92528 11.4845 10.3102 11.4845H11.5297C11.9146 11.4845 12.2266 11.1725 12.2266 10.7876V8.69691C12.2266 8.312 11.9146 8.00002 11.5297 8.00002H10.3102Z" fill="#695682"/>
</svg>
