<svg xmlns="http://www.w3.org/2000/svg" viewBox="0 0 24 24" class="svg replaced-svg" fill-rule="evenodd" clip-rule="evenodd" stroke-linejoin="round" stroke-miterlimit="2"><path d="M12 24C5.417 24 0 18.58 0 12S5.417 0 12 0s12 5.42 12 12c-.006 6.58-5.419 11.99-12 12zm0-22C6.514 2 2 6.51 2 12s4.514 10 10 10 10-4.51 10-10c-.008-5.48-4.517-9.99-10-10z" fill="currentColor" fill-rule="nonzero"/><path d="M9.954 17.37l-3.661-3.66a.999.999 0 01-.295-.71 1.005 1.005 0 011.709-.71l2.339 2.34 7.3-6.38a1.004 1.004 0 011.709.71c0 .31-.146.6-.393.79l-8.708 7.62z" fill="currentColor" fill-rule="nonzero"/></svg>