<svg width="16" height="16" viewBox="0 0 16 16" fill="none" xmlns="http://www.w3.org/2000/svg">
<g clip-path="url(#clip0_192_2)">
<path d="M10.2094 12.6156C9.51875 12.8656 8.775 13 8 13C7.225 13 6.47813 12.8625 5.79063 12.6156L5.76562 12.6062C4.82812 12.2625 3.99063 11.7094 3.30938 11C2.1875 9.83125 1.5 8.24688 1.5 6.5C1.5 2.90937 4.40937 0 8 0C11.5906 0 14.5 2.90937 14.5 6.5C14.5 8.24688 13.8125 9.83125 12.6906 11C12.6594 11.0312 12.6281 11.0656 12.5969 11.0969C11.9281 11.7656 11.1156 12.2875 10.2125 12.6156H10.2094ZM8 2.87188C7.65312 2.87188 7.37187 3.15312 7.37187 3.5V3.6875C7.19687 3.725 7.03125 3.77812 6.875 3.84687C6.40625 4.05937 6.00312 4.45313 5.90312 5.025C5.84687 5.34375 5.87813 5.65 6.00938 5.93125C6.14063 6.20625 6.34375 6.4 6.55 6.54063C6.9125 6.7875 7.39062 6.93125 7.75625 7.04063L7.825 7.0625C8.25937 7.19375 8.55625 7.29375 8.74063 7.42812C8.81875 7.48437 8.84687 7.52812 8.85625 7.55312C8.86562 7.57812 8.88438 7.63437 8.8625 7.7625C8.84375 7.87187 8.78438 7.9625 8.6125 8.0375C8.42188 8.11875 8.1125 8.15938 7.7125 8.09688C7.525 8.06563 7.19063 7.95312 6.89375 7.85C6.825 7.82812 6.75937 7.80313 6.69375 7.78438C6.36562 7.675 6.0125 7.85312 5.90312 8.18125C5.79375 8.50937 5.97188 8.8625 6.3 8.97188C6.3375 8.98438 6.38437 9 6.4375 9.01875C6.68438 9.10313 7.07188 9.23438 7.36875 9.30313V9.50313C7.36875 9.85 7.65 10.1313 7.99687 10.1313C8.34375 10.1313 8.625 9.85 8.625 9.50313V9.33125C8.79063 9.3 8.95312 9.25312 9.10625 9.1875C9.59687 8.97813 9.99375 8.57188 10.0938 7.97813C10.15 7.65313 10.125 7.34375 10 7.05937C9.87812 6.77812 9.68125 6.57187 9.47188 6.41875C9.09063 6.14375 8.5875 5.99063 8.20938 5.875L8.18437 5.86875C7.74062 5.73438 7.44062 5.64062 7.25 5.5125C7.16875 5.45625 7.14375 5.41875 7.1375 5.40312C7.13125 5.39375 7.11563 5.35312 7.13438 5.24687C7.14375 5.1875 7.19375 5.08438 7.39062 4.99375C7.59063 4.90313 7.90313 4.85312 8.28438 4.9125C8.41875 4.93437 8.84375 5.01562 8.9625 5.04688C9.29687 5.13437 9.6375 4.9375 9.72812 4.60313C9.81875 4.26875 9.61875 3.92813 9.28438 3.8375C9.14688 3.8 8.83438 3.7375 8.62813 3.7V3.50312C8.62813 3.15625 8.34688 2.875 8 2.875V2.87188ZM1.5 11H2C2.60938 11.8094 3.375 12.4906 4.25625 13H2V14H8H14V13H11.7437C12.625 12.4906 13.3938 11.8094 14 11H14.5C15.3281 11 16 11.6719 16 12.5V14.5C16 15.3281 15.3281 16 14.5 16H1.5C0.671875 16 0 15.3281 0 14.5V12.5C0 11.6719 0.671875 11 1.5 11Z" fill="#695682"/>
</g>
<defs>
<clipPath id="clip0_192_2">
<rect width="16" height="16" fill="white"/>
</clipPath>
</defs>
</svg>
