<svg width="100%" height="100%" viewBox="0 0 23 23" version="1.1" xmlns="http://www.w3.org/2000/svg" style="fill-rule:evenodd;clip-rule:evenodd;stroke-linecap:round;stroke-linejoin:round;">
    <g transform="matrix(1,0,0,1,-1,-0.87868)">
        <path d="M11,4L4,4C2.903,4 2,4.903 2,6L2,20C2,21.097 2.903,22 4,22L18,22C19.097,22 20,21.097 20,20L20,13" style="fill:none;fill-rule:nonzero;stroke:rgb(44,169,183);stroke-width:2px;"/>
        <path d="M18.5,2.5C18.898,2.102 19.438,1.879 20,1.879C21.164,1.879 22.121,2.836 22.121,4C22.121,4.562 21.898,5.102 21.5,5.5L12,15L8,16L9,12L18.5,2.5Z" style="fill:none;fill-rule:nonzero;stroke:rgb(44,169,183);stroke-width:2px;"/>
    </g>
</svg>
