<svg viewBox="0 0 34 32" xmlns="http://www.w3.org/2000/svg" fill-rule="evenodd" clip-rule="evenodd" stroke-linejoin="round" stroke-miterlimit="2"><path d="M33.293 15.645a.708.708 0 01-.466-.175L17.002 1.648 1.177 15.47a.704.704 0 01-.469.178A.711.711 0 010 14.94c0-.206.089-.402.245-.536L16.535.174a.712.712 0 01.933 0l16.29 14.23a.707.707 0 01-.465 1.241z" fill="currentcolor"/><path d="M17.002 1.484a.704.704 0 01-.696-.7c0-.384.316-.7.7-.7a.699.699 0 11-.004 1.4zM21.253 31.223h-.002a.71.71 0 01-.707-.707v-9.915a.713.713 0 00-.708-.708h-5.667a.712.712 0 00-.707.708v9.914c0 .389-.32.709-.709.709a.712.712 0 01-.709-.709v-9.914a2.137 2.137 0 012.125-2.124h5.667a2.137 2.137 0 012.125 2.124v9.914c0 .388-.32.708-.708.708z" fill="currentcolor"/><path d="M28.336 31.223H5.67a2.139 2.139 0 01-2.125-2.125V15.645c0-.388.32-.708.708-.708.388 0 .708.32.708.708v13.453c.001.389.32.708.709.709h22.666a.713.713 0 00.707-.709V15.645a.712.712 0 01.709-.682c.378 0 .694.303.708.682v13.453a2.137 2.137 0 01-2.124 2.125z" fill="currentcolor"/><path d="M17.002 15.055a3.676 3.676 0 01-3.657-3.658 3.675 3.675 0 013.658-3.658 3.675 3.675 0 013.658 3.658 3.68 3.68 0 01-3.659 3.658zm0-5.9a2.254 2.254 0 00-2.243 2.243 2.254 2.254 0 002.243 2.243 2.254 2.254 0 002.243-2.243 2.256 2.256 0 00-2.243-2.244v.001zM29.043 11.397a.71.71 0 01-.707-.707V5.732h-2.125v2.124a.712.712 0 01-.708.682.712.712 0 01-.709-.682V5.732a1.424 1.424 0 011.417-1.416h2.125a1.424 1.424 0 011.416 1.416v4.957c0 .388-.32.708-.708.708h-.001z" fill="currentcolor"/></svg>