<svg clip-rule="evenodd" fill-rule="evenodd" stroke-linejoin="round" stroke-miterlimit="2" viewBox="0 0 33 44" xmlns="http://www.w3.org/2000/svg" width="23"><g fill="currentcolor" fill-rule="nonzero"><path d="M16.218 38.514c-5.45 0-9.826-.729-12.54-1.34a4.739 4.739 0 01-3.101-2.297 4.556 4.556 0 01-.33-3.696l1.175-3.417a23.63 23.63 0 001.29-7.702v-1.941C2.712 10.886 8.772 5 16.218 5s13.505 5.886 13.505 13.121v1.941c0 2.624.434 5.215 1.29 7.702l1.173 3.411a4.556 4.556 0 01-.331 3.696 4.74 4.74 0 01-3.105 2.298c-2.728.614-7.118 1.345-12.532 1.345zm0-31.514C9.874 7 4.713 11.989 4.713 18.121v1.941a25.66 25.66 0 01-1.398 8.353L2.14 31.832a2.517 2.517 0 00.185 2.071 2.737 2.737 0 001.794 1.321c2.614.589 6.834 1.291 12.099 1.291 5.23 0 9.463-.705 12.094-1.296a2.736 2.736 0 001.797-1.322 2.52 2.52 0 00.186-2.07l-1.173-3.411a25.615 25.615 0 01-1.398-8.353v-1.941C27.724 11.989 22.563 7 16.218 7z"/><path d="M11.738 44a4.72 4.72 0 01-3.712-1.782 4.721 4.721 0 01-1.014-3.493l.036-1.748 2 .046-.042 1.835c-.086.818.122 1.536.582 2.109a2.729 2.729 0 001.845 1.015 2.745 2.745 0 003.037-2.432l.208-2.134 1.99.194-.21 2.146A4.763 4.763 0 0111.739 44zM20.048 6h-2c0-1.103-.897-2-2-2s-2 .897-2 2h-2c0-2.206 1.794-4 4-4s4 1.794 4 4z"/><path d="M16.048 4a1 1 0 01-1-1V1a1 1 0 012 0v2a1 1 0 01-1 1zM6.047 32a.998.998 0 01-.806-1.589c1.003-1.375 1.09-3.94 1.185-6.657.19-5.525.426-12.401 8.343-14.713a1 1 0 11.56 1.92c-6.528 1.907-6.72 7.476-6.905 12.862-.104 3.033-.203 5.897-1.568 7.768-.196.267-.5.409-.81.409z"/></g></svg>