<svg clip-rule="evenodd" fill-rule="evenodd" stroke-linejoin="round" stroke-miterlimit="2" viewBox="0 0 18 18" xmlns="http://www.w3.org/2000/svg"><g fill="#fff" fill-rule="nonzero" transform="translate(-27.79925 -29.786)"><path d="m36.549 47.295c-2.338 0-4.537-.911-6.19-2.564-3.413-3.413-3.413-8.967 0-12.381 1.654-1.654 3.852-2.564 6.19-2.564s4.537.911 6.19 2.564c1.654 1.654 2.564 3.852 2.564 6.19s-.911 4.537-2.564 6.19c-1.653 1.655-3.851 2.565-6.19 2.565zm0-15.509c-1.804 0-3.5.703-4.776 1.979-2.633 2.634-2.633 6.919 0 9.553 1.276 1.276 2.972 1.979 4.776 1.979s3.5-.703 4.776-1.979 1.979-2.972 1.979-4.776-.703-3.5-1.979-4.776-2.971-1.98-4.776-1.98z"/><path d="m40 40h-4c-.552 0-1-.448-1-1v-4c0-.552.448-1 1-1s1 .448 1 1v3h3c.552 0 1 .448 1 1s-.448 1-1 1z"/></g></svg>