<svg clip-rule="evenodd" fill-rule="evenodd" stroke-linejoin="round" stroke-miterlimit="2" viewBox="0 0 18 18" xmlns="http://www.w3.org/2000/svg"><g fill="#2ca9b7" fill-rule="nonzero" transform="translate(-28 -29)"><path d="m37 47c-4.962 0-9-4.038-9-9s4.038-9 9-9 9 4.038 9 9-4.038 9-9 9zm0-16c-3.86 0-7 3.14-7 7s3.14 7 7 7 7-3.14 7-7-3.14-7-7-7z"/><path d="m36 42c-.236 0-.473-.083-.664-.251l-2.933-2.6c-.413-.367-.451-.999-.085-1.412.367-.413.999-.451 1.412-.085l2.214 1.963 4.201-4.374c.383-.398 1.017-.41 1.414-.028.398.382.411 1.016.028 1.414l-4.867 5.067c-.195.202-.457.306-.72.306z"/></g></svg>