<svg width="20" height="18" viewBox="0 0 20 18" fill="none" xmlns="http://www.w3.org/2000/svg">
<g clip-path="url(#clip0_145_10154)">
<path fill-rule="evenodd" clip-rule="evenodd" d="M15.5556 0C17.2222 0 17.7778 0.5625 17.7778 2.25V4.5C19.0051 4.5 20 5.50736 20 6.75V14.625C20 16.875 18.8889 18 16.6656 18H3.33333C1.11111 18 0 16.875 0 14.625V3.375C0 1.6875 1.66667 0 3.33333 0H15.5556ZM2.22222 3.375C2.22222 2.75368 2.71969 2.25 3.33333 2.25H17.7778V4.5H3.33333C2.71969 4.5 2.22222 3.99633 2.22222 3.375ZM15.5556 13.5C16.6667 13.5 17.7789 12.375 17.7778 11.25C17.7767 10.125 16.6667 9 15.5556 9C14.4444 9 13.3333 10.125 13.3333 11.25C13.3333 12.375 14.4444 13.5 15.5556 13.5Z" fill="white"/>
</g>
<defs>
<clipPath id="clip0_145_10154">
<rect width="20" height="18" fill="white"/>
</clipPath>
</defs>
</svg>
