<svg height="46" viewBox="0 0 46 46" width="46" xmlns="http://www.w3.org/2000/svg"><g fill-rule="evenodd" transform="translate(-909.5 -1018)"><path d="m935.5 1061h-23a3.006 3.006 0 0 1 -3-3v-30.43a3.006 3.006 0 0 1 2.377-2.93l31.035-6.58a3 3 0 0 1 3.588 2.94v5.08a1 1 0 0 1 -2 0v-5.08a.979.979 0 0 0 -.364-.77 1.024 1.024 0 0 0 -.826-.21l-31.018 6.57a1.008 1.008 0 0 0 -.792.98v30.43a1 1 0 0 0 1 1h23a1 1 0 0 1 0 2z" fill="#fff"/><path d="m952.5 1046a1 1 0 0 1 -1-1v-15.92a1 1 0 0 0 -1-1h-39a1 1 0 0 1 0-2h39a3 3 0 0 1 3 3v15.92a1 1 0 0 1 -1 1z" fill="#fff"/><g fill="#2ca9b7"><path d="m943.5 1064a12 12 0 1 1 12-12 12.011 12.011 0 0 1 -12 12zm0-22a10 10 0 1 0 10 10 10.014 10.014 0 0 0 -10-10z"/><path d="m941.454 1057.37-3.661-3.66a1 1 0 0 1 1.414-1.42l2.339 2.34 7.3-6.38a1 1 0 1 1 1.316 1.5z"/></g></g></svg>