<svg viewBox="0 0 46 46" xmlns="http://www.w3.org/2000/svg" fill-rule="evenodd" clip-rule="evenodd" stroke-linejoin="round" stroke-miterlimit="2"><path d="M24 47C11.318 47 1 36.683 1 24 1 12.019 9.989 2.174 21.91 1.099a.998.998 0 011.09.996V25h22.905a1 1 0 01.996 1.09C45.827 38.011 35.981 47 24 47zM21 3.217C10.664 4.68 3 13.43 3 24c0 11.579 9.42 21 21 21 10.571 0 19.32-7.664 20.783-18H22a1 1 0 01-1-1V3.217zm4-1.205a1 1 0 011.09-.996 22.929 22.929 0 0111.25 4.17 23.127 23.127 0 014.472 4.182l.012.015a23.088 23.088 0 012.705 4.166 22.857 22.857 0 011.623 4.183l.01.037c.374 1.351.624 2.746.745 4.145A1.001 1.001 0 0145.912 23H26a1 1 0 01-1-1V2.012zM27 21h17.793a21.16 21.16 0 00-.378-2H27v2zm0-4h16.828a20.941 20.941 0 00-.815-2H27v2zm0-4h14.938a21.184 21.184 0 00-1.381-2H27v2zm0-4h11.776a21.137 21.137 0 00-2.342-2H27v2zm0-4h6.114A20.877 20.877 0 0027 3.135V5z" fill="url(#_Linear1)" fill-rule="nonzero" transform="translate(-1 -1.012)"/><defs><linearGradient id="_Linear1" x1="0" y1="0" x2="1" y2="0" gradientUnits="userSpaceOnUse" gradientTransform="matrix(48 -48 48 48 0 48)"><stop offset="0" stop-color="#2ca9b7"/><stop offset="1" stop-color="#1b648f"/></linearGradient></defs></svg>