<?xml version="1.0" encoding="UTF-8" standalone="no"?>
<!DOCTYPE svg PUBLIC "-//W3C//DTD SVG 1.1//EN" "http://www.w3.org/Graphics/SVG/1.1/DTD/svg11.dtd">
<svg width="100%" height="100%" viewBox="0 0 146 149" version="1.1" xmlns="http://www.w3.org/2000/svg" xmlns:xlink="http://www.w3.org/1999/xlink" xml:space="preserve" xmlns:serif="http://www.serif.com/" style="fill-rule:evenodd;clip-rule:evenodd;stroke-linejoin:round;stroke-miterlimit:2;">
    <g transform="matrix(1,0,0,1,-417.11,-405.99)">
        <g transform="matrix(1,0,0,1,367,-240.17)">
            <path d="M176.9,734.66C174.32,736.24 171.31,736.52 169.01,735.23C166.14,733.51 164.42,729.64 164.42,724.33L164.42,708.12C164.42,700.37 161.41,694.78 156.24,693.35C147.49,690.77 140.89,701.53 138.45,705.54L122.96,730.35L122.96,699.8C122.82,692.77 120.52,688.61 116.22,687.32C113.35,686.46 109.05,686.89 104.89,693.2L70.32,748.56C65.73,739.81 63.29,730.06 63.29,720.16C63.29,686.74 90.11,659.63 122.96,659.63C155.81,659.63 182.63,686.74 182.63,720.16L182.63,720.45C182.92,726.9 180.91,732.07 176.89,734.65L176.9,734.66ZM195.83,720.17L195.83,719.88C195.69,679.29 162.98,646.16 122.97,646.16C82.96,646.16 50.11,679.29 50.11,720.17C50.11,761.05 82.81,794.18 122.97,794.18C141.47,794.18 158.97,787.15 172.45,774.39C175.18,771.81 175.32,767.65 172.74,764.92C170.3,762.19 166.14,762.05 163.42,764.49L163.28,764.63C152.38,774.96 137.75,780.84 122.69,780.84C105.05,780.84 89.27,773.09 78.37,760.76L109.49,710.85L109.49,733.94C109.49,744.98 113.79,748.57 117.38,749.57C120.97,750.57 126.42,749.86 132.3,740.53L149.37,712.85C149.94,711.99 150.37,711.13 150.95,710.56L150.95,724.62C150.95,734.95 155.11,743.27 162.28,747.28C168.73,751.01 176.91,750.58 183.65,746.42C191.97,740.97 196.42,731.5 195.84,720.17L195.83,720.17Z" style="fill:white;fill-rule:nonzero;"/>
        </g>
    </g>
</svg>
