<svg viewBox="0 0 42 38" xmlns="http://www.w3.org/2000/svg" fill-rule="evenodd" clip-rule="evenodd" stroke-linejoin="round" stroke-miterlimit="2"><g fill-rule="nonzero"><path d="M17 18.8c-4.1 0-11-.4-11-2.8s6.9-2.8 11-2.8 11 .4 11 2.8-6.9 2.8-11 2.8zM8.9 16c1.4.4 4.1.8 8.1.8s6.7-.4 8.1-.8c-1.4-.4-4.1-.8-8.1-.8s-6.7.4-8.1.8z" fill="url(#_Linear1)" transform="translate(-2.4 -8.3)"/><path d="M17 21.8c-4.1 0-11-.4-11-2.8v-2c0-.6.4-1 1-1s1 .4 1 1v1.7c.8.4 3.9 1.1 9 1.1s8.2-.7 9-1.1V17c0-.6.4-1 1-1s1 .4 1 1v2c0 2.4-6.9 2.8-11 2.8z" fill="url(#_Linear2)" transform="translate(-2.4 -8.3)"/><path d="M40.8 24.6c-2.4 0-8.1-5.6-8.7-6.2-2.9-2.9-7.5-8-5.8-9.7.2-.2.5-.4 1-.4 2.4 0 8.1 5.6 8.7 6.2 1.9 1.9 3.6 3.9 4.7 5.5 1.1 1.5 2.1 3.3 1.1 4.2-.1.2-.5.4-1 .4zM28.3 10.7c.7 1.3 2.4 3.5 5.2 6.3 2.8 2.8 5 4.5 6.3 5.2-.7-1.3-2.4-3.5-5.2-6.3-2.8-2.8-5-4.5-6.3-5.2z" fill="url(#_Linear3)" transform="translate(-2.4 -8.3)"/><path d="M38.8 26.7c-2.2 0-6.3-3.7-8.8-6.2-1.9-1.9-3.6-3.9-4.7-5.5-1.1-1.5-2.1-3.3-1.1-4.2l2.1-2.1c.4-.4 1-.4 1.4 0 .4.4.4 1 0 1.4L25.8 12c.3.9 2 3.5 5.6 7.1 3.6 3.6 6.3 5.3 7.1 5.6l1.9-1.9c.4-.4 1-.4 1.4 0 .4.4.4 1 0 1.4l-2.1 2.1c-.2.3-.6.4-.9.4z" fill="url(#_Linear4)" transform="translate(-2.4 -8.3)"/><path d="M30.8 32.8c-8.7 0-8.8-1.8-8.8-2.4-.1-1.4 1.8-2 3.7-2.4 1.9-.4 4.5-.7 7.2-.8h2.3c8.7 0 8.8 1.8 8.8 2.4.1 1.4-1.8 2-3.7 2.4-1.9.4-4.5.7-7.2.8h-2.3zm-6-2.5c1.1.2 3 .5 5.9.5h2.2c4-.2 6.7-.7 8.1-1.1-1.1-.2-3-.5-5.9-.5h-2.2c-4 .2-6.7.7-8.1 1.1z" fill="url(#_Linear5)" transform="translate(-2.4 -8.3)"/><path d="M30.6 35.8c-3.9 0-8.5-.4-8.5-2.4l-.1-3c0-.6.4-1 1-1s1 .4 1 1l.1 2.7c.8.4 3.9.9 9 .7 5.1-.2 8.2-1 8.9-1.4l-.1-2.7c0-.6.4-1 1-1s1 .4 1 1l.1 3c.1 1.4-1.8 2-3.7 2.4-1.9.4-4.5.7-7.2.8-.7-.1-1.6-.1-2.5-.1z" fill="url(#_Linear6)" transform="translate(-2.4 -8.3)"/><path d="M17 21.8c-4.1 0-11-.4-11-2.8 0-.6.4-1 1-1 .4 0 .8.3.9.7.7.4 3.8 1.1 9.1 1.1s8.4-.7 9.1-1.1c.1-.4.5-.7.9-.7.6 0 1 .4 1 1 0 2.4-6.9 2.8-11 2.8z" fill="url(#_Linear7)" transform="translate(-2.4 -8.3)"/><path d="M16 24.8c-4.1 0-11-.4-11-2.8v-2c0-.6.4-1 1-1s1 .4 1 1v1.7c.8.4 3.9 1.1 9 1.1s8.2-.7 9-1.1V20c0-.6.4-1 1-1s1 .4 1 1v2c0 2.4-6.9 2.8-11 2.8z" fill="url(#_Linear8)" transform="translate(-2.4 -8.3)"/><path d="M16 24.8c-4.1 0-11-.4-11-2.8 0-.6.4-1 1-1 .4 0 .8.3.9.7.7.4 3.8 1.1 9.1 1.1s8.4-.7 9.1-1.1c.1-.4.5-.7.9-.7.6 0 1 .4 1 1 0 2.4-6.9 2.8-11 2.8z" fill="url(#_Linear9)" transform="translate(-2.4 -8.3)"/><path d="M17 27.8c-4.1 0-11-.4-11-2.8v-2c0-.6.4-1 1-1s1 .4 1 1v1.7c.8.4 3.9 1.1 9 1.1s8.2-.7 9-1.1V23c0-.6.4-1 1-1s1 .4 1 1v2c0 2.4-6.9 2.8-11 2.8z" fill="url(#_Linear10)" transform="translate(-2.4 -8.3)"/><path d="M13.8 42.7c-6.4 0-11.4-2.9-11.4-6.6 0-3.7 5-6.6 11.4-6.6s11.4 2.9 11.4 6.6c0 3.7-5 6.6-11.4 6.6zm0-11.2c-5.6 0-9.4 2.4-9.4 4.6 0 2.2 3.8 4.6 9.4 4.6 5.6 0 9.4-2.4 9.4-4.6 0-2.2-3.8-4.6-9.4-4.6z" fill="url(#_Linear11)" transform="translate(-2.4 -8.3)"/><path d="M13.5 45.7c-6.3 0-11-2.8-11-6.5l-.1-3c0-.6.4-1 1-1s1 .4 1 1l.1 3.1c0 2.5 4.1 4.5 9 4.5 5.6 0 9.5-2.5 9.5-4.7l.1-2.8c0-.6.5-1 1-.9.6 0 1 .5 1 1l-.1 2.7c0 3.7-5.1 6.6-11.5 6.6z" fill="url(#_Linear12)" transform="translate(-2.4 -8.3)"/><path d="M12.7 39c-2.7 0-3.8-.5-4.2-.7-.5-.2-.8-.8-.6-1.3.2-.5.8-.7 1.3-.5h.1c.3.2 1.1.5 3.4.5.4 0 .8 0 1.1-.1-.3-.1-.8-.1-1.3-.2-.9-.1-3.1-.4-3-1.9.1-2 4.3-2 4.8-2 2.4 0 3.3.6 3.5.8.4.4.5 1 .1 1.4-.3.4-.9.5-1.4.2-.1 0-.7-.4-2.3-.4h-.7c2.1.3 3.8.8 3.7 2.1-.1 2-3.9 2.1-4.5 2.1z" fill="url(#_Linear13)" transform="translate(-2.4 -8.3)"/><path d="M13.8 34.8c-.2 0-.3 0-.5-.1-.5-.3-.7-.9-.4-1.4l.3-.6c.3-.5.9-.7 1.4-.4.5.3.7.9.4 1.4l-.3.6c-.2.3-.6.5-.9.5z" fill="url(#_Linear14)" transform="translate(-2.4 -8.3)"/><path d="M11.9 39.9c-.1 0-.2 0-.4-.1-.5-.2-.8-.8-.6-1.3l.3-.8c.2-.5.8-.8 1.3-.6.5.2.8.8.6 1.3l-.3.8c-.1.5-.5.7-.9.7z" fill="url(#_Linear15)" transform="translate(-2.4 -8.3)"/></g><defs><linearGradient id="_Linear1" x1="0" y1="0" x2="1" y2="0" gradientUnits="userSpaceOnUse" gradientTransform="matrix(41.6038 -37.3 37.3 41.6038 2.4 45.7)"><stop offset="0" stop-color="#2ca9b7"/><stop offset="1" stop-color="#1b648f"/></linearGradient><linearGradient id="_Linear2" x1="0" y1="0" x2="1" y2="0" gradientUnits="userSpaceOnUse" gradientTransform="matrix(41.6038 -37.3 37.3 41.6038 2.4 45.7)"><stop offset="0" stop-color="#2ca9b7"/><stop offset="1" stop-color="#1b648f"/></linearGradient><linearGradient id="_Linear3" x1="0" y1="0" x2="1" y2="0" gradientUnits="userSpaceOnUse" gradientTransform="matrix(41.6038 -37.3 37.3 41.6038 2.4 45.7)"><stop offset="0" stop-color="#2ca9b7"/><stop offset="1" stop-color="#1b648f"/></linearGradient><linearGradient id="_Linear4" x1="0" y1="0" x2="1" y2="0" gradientUnits="userSpaceOnUse" gradientTransform="matrix(41.6038 -37.3 37.3 41.6038 2.4 45.7)"><stop offset="0" stop-color="#2ca9b7"/><stop offset="1" stop-color="#1b648f"/></linearGradient><linearGradient id="_Linear5" x1="0" y1="0" x2="1" y2="0" gradientUnits="userSpaceOnUse" gradientTransform="matrix(41.6038 -37.3 37.3 41.6038 2.4 45.7)"><stop offset="0" stop-color="#2ca9b7"/><stop offset="1" stop-color="#1b648f"/></linearGradient><linearGradient id="_Linear6" x1="0" y1="0" x2="1" y2="0" gradientUnits="userSpaceOnUse" gradientTransform="matrix(41.6038 -37.3 37.3 41.6038 2.4 45.7)"><stop offset="0" stop-color="#2ca9b7"/><stop offset="1" stop-color="#1b648f"/></linearGradient><linearGradient id="_Linear7" x1="0" y1="0" x2="1" y2="0" gradientUnits="userSpaceOnUse" gradientTransform="matrix(41.6038 -37.3 37.3 41.6038 2.4 45.7)"><stop offset="0" stop-color="#2ca9b7"/><stop offset="1" stop-color="#1b648f"/></linearGradient><linearGradient id="_Linear8" x1="0" y1="0" x2="1" y2="0" gradientUnits="userSpaceOnUse" gradientTransform="matrix(41.6038 -37.3 37.3 41.6038 2.4 45.7)"><stop offset="0" stop-color="#2ca9b7"/><stop offset="1" stop-color="#1b648f"/></linearGradient><linearGradient id="_Linear9" x1="0" y1="0" x2="1" y2="0" gradientUnits="userSpaceOnUse" gradientTransform="matrix(41.6038 -37.3 37.3 41.6038 2.4 45.7)"><stop offset="0" stop-color="#2ca9b7"/><stop offset="1" stop-color="#1b648f"/></linearGradient><linearGradient id="_Linear10" x1="0" y1="0" x2="1" y2="0" gradientUnits="userSpaceOnUse" gradientTransform="matrix(41.6038 -37.3 37.3 41.6038 2.4 45.7)"><stop offset="0" stop-color="#2ca9b7"/><stop offset="1" stop-color="#1b648f"/></linearGradient><linearGradient id="_Linear11" x1="0" y1="0" x2="1" y2="0" gradientUnits="userSpaceOnUse" gradientTransform="matrix(41.6038 -37.3 37.3 41.6038 2.4 45.7)"><stop offset="0" stop-color="#2ca9b7"/><stop offset="1" stop-color="#1b648f"/></linearGradient><linearGradient id="_Linear12" x1="0" y1="0" x2="1" y2="0" gradientUnits="userSpaceOnUse" gradientTransform="matrix(41.6038 -37.3 37.3 41.6038 2.4 45.7)"><stop offset="0" stop-color="#2ca9b7"/><stop offset="1" stop-color="#1b648f"/></linearGradient><linearGradient id="_Linear13" x1="0" y1="0" x2="1" y2="0" gradientUnits="userSpaceOnUse" gradientTransform="matrix(41.6038 -37.3 37.3 41.6038 2.4 45.7)"><stop offset="0" stop-color="#2ca9b7"/><stop offset="1" stop-color="#1b648f"/></linearGradient><linearGradient id="_Linear14" x1="0" y1="0" x2="1" y2="0" gradientUnits="userSpaceOnUse" gradientTransform="matrix(41.6038 -37.3 37.3 41.6038 2.4 45.7)"><stop offset="0" stop-color="#2ca9b7"/><stop offset="1" stop-color="#1b648f"/></linearGradient><linearGradient id="_Linear15" x1="0" y1="0" x2="1" y2="0" gradientUnits="userSpaceOnUse" gradientTransform="matrix(41.6038 -37.3 37.3 41.6038 2.4 45.7)"><stop offset="0" stop-color="#2ca9b7"/><stop offset="1" stop-color="#1b648f"/></linearGradient></defs></svg>