<?xml version="1.0" encoding="UTF-8" standalone="no"?>
<!DOCTYPE svg PUBLIC "-//W3C//DTD SVG 1.1//EN" "http://www.w3.org/Graphics/SVG/1.1/DTD/svg11.dtd">
<svg width="100%" height="100%" viewBox="0 0 96 96" version="1.1" xmlns="http://www.w3.org/2000/svg" xmlns:xlink="http://www.w3.org/1999/xlink" xml:space="preserve" xmlns:serif="http://www.serif.com/" style="fill-rule:evenodd;clip-rule:evenodd;stroke-linejoin:round;stroke-miterlimit:2;">
    <g transform="matrix(1,0,0,1,-0.676514,1.42449e-09)">
        <path d="M48.121,0C21.8,0.121 0.561,21.706 0.677,48.216C0.797,74.725 22.232,96.117 48.549,96C74.87,95.879 96.11,74.294 95.993,47.788C95.874,21.275 74.442,-0.117 48.121,0ZM42.086,45.647C37.38,45.647 33.564,41.807 33.564,37.067C33.564,32.327 37.38,28.487 42.086,28.487C46.792,28.487 50.605,32.33 50.605,37.067C50.605,41.803 46.789,45.647 42.086,45.647ZM48.882,54.923L48.925,54.869L48.971,54.816C51.402,56.394 54.179,56.953 56.952,57.033C59.729,57.107 62.558,56.896 65.342,56.331C68.121,55.749 70.855,54.889 73.495,53.792C74.977,53.176 76.451,52.504 77.856,51.715C77.866,51.708 77.873,51.705 77.883,51.698C78.756,51.169 79.61,50.611 80.447,50.036C80.629,49.905 80.805,49.768 80.978,49.627L80.998,49.651L81.071,49.738C78.929,51.701 76.378,53.16 73.781,54.448C71.157,55.692 68.42,56.712 65.594,57.448C62.778,58.181 59.838,58.736 56.862,58.462C53.933,58.201 50.848,57.167 48.875,54.926L48.882,54.923ZM70.749,45.647C70.745,44.617 71.569,43.787 72.585,43.777C73.608,43.774 74.432,44.6 74.442,45.627C74.445,46.654 73.622,47.493 72.605,47.497C71.586,47.5 70.759,46.67 70.749,45.647ZM56.152,91.684C54.312,78.696 65.574,65.975 71.924,59.465C73.366,57.99 75.594,55.956 77.667,53.795C85.91,46.032 87.551,36.756 70.679,32.12C67.481,31.186 64.166,29.865 60.808,28.53C60.702,28.219 60.582,27.925 60.443,27.647C60.057,26.978 59.383,26.209 58.364,25.336C56.172,23.419 52.05,23.469 48.493,24.319C44.561,23.386 40.681,23.054 36.952,23.954C20.634,28.483 18.011,36.498 17.376,46.155C16.513,56.592 16.008,64.369 12.086,73.253C7.19,66.142 4.304,57.515 4.264,48.206C4.154,23.693 23.796,3.734 48.134,3.623C72.472,3.513 92.29,23.295 92.4,47.808C92.499,69.701 76.836,87.968 56.148,91.691L56.152,91.684Z" style="fill:white;fill-rule:nonzero;"/>
        <path d="M48.078,37.144C48.078,40.479 45.394,43.178 42.086,43.178C38.778,43.178 36.091,40.479 36.091,37.144C36.091,33.809 38.775,31.109 42.086,31.109C45.397,31.109 48.078,33.809 48.078,37.144Z" style="fill:white;fill-rule:nonzero;"/>
    </g>
</svg>
