<svg viewBox="0 0 47 47" xmlns="http://www.w3.org/2000/svg" fill-rule="evenodd" clip-rule="evenodd" stroke-linejoin="round" stroke-miterlimit="2"><g fill-rule="nonzero"><path d="M24 35c-6.1 0-11-4.9-11-11s4.9-11 11-11c4.4 0 8.3 2.6 10.1 6.6l-1.8.8C30.8 17.1 27.6 15 24 15c-5 0-9 4-9 9s4 9 9 9c4.1 0 7.6-2.7 8.7-6.7l1.9.5C33.3 31.6 29 35 24 35z" fill="url(#_Linear1)" transform="translate(-.5 -.5)"/><path d="M34 27.2c-2.2 0-4-1.8-4-4.1s1.8-4.1 4-4.1 4 1.8 4 4.1-1.8 4.1-4 4.1zm0-6.2c-1.1 0-2 .9-2 2.1 0 1.2.9 2.1 2 2.1s2-.9 2-2.1c0-1.2-.9-2.1-2-2.1z" fill="url(#_Linear2)" transform="translate(-.5 -.5)"/><path d="M7 27c-2.2 0-4-1.8-4-4s1.8-4 4-4 4 1.8 4 4-1.8 4-4 4zm0-6c-1.1 0-2 .9-2 2s.9 2 2 2 2-.9 2-2-.9-2-2-2z" fill="url(#_Linear3)" transform="translate(-.5 -.5)"/><path d="M13 41c-2.2 0-4-1.8-4-4s1.8-4 4-4 4 1.8 4 4-1.8 4-4 4zm0-6c-1.1 0-2 .9-2 2s.9 2 2 2 2-.9 2-2-.9-2-2-2z" fill="url(#_Linear4)" transform="translate(-.5 -.5)"/><path d="M39 45c-2.2 0-4-1.8-4-4s1.8-4 4-4 4 1.8 4 4-1.8 4-4 4zm0-6c-1.1 0-2 .9-2 2s.9 2 2 2 2-.9 2-2-.9-2-2-2z" fill="url(#_Linear5)" transform="translate(-.5 -.5)"/><path d="M39 11c-2.2 0-4-1.8-4-4s1.8-4 4-4 4 1.8 4 4-1.8 4-4 4zm0-6c-1.1 0-2 .9-2 2s.9 2 2 2 2-.9 2-2-.9-2-2-2z" fill="url(#_Linear6)" transform="translate(-.5 -.5)"/><path d="M8 12c-2.2 0-4-1.8-4-4s1.8-4 4-4 4 1.8 4 4-1.8 4-4 4zm0-6c-1.1 0-2 .9-2 2s.9 2 2 2 2-.9 2-2-.9-2-2-2z" fill="url(#_Linear7)" transform="translate(-.5 -.5)"/><path d="M24 42c-3.2 0-6.3-.8-9.1-2.5l1-1.7c2.4 1.4 5.2 2.2 8.1 2.2 8.8 0 16-7.2 16-16S32.8 8 24 8c-7.4 0-13.8 5-15.6 12.2l-1.9-.5C8.5 11.7 15.7 6 24 6c9.9 0 18 8.1 18 18s-8.1 18-18 18z" fill="url(#_Linear8)" transform="translate(-.5 -.5)"/><path d="M10.2 35.5c-2.2-2.7-3.6-5.9-4-9.3l2-.2c.4 3 1.6 5.9 3.6 8.2l-1.6 1.3z" fill="url(#_Linear9)" transform="translate(-.5 -.5)"/><path d="M24 47.5C11 47.5.5 37 .5 24c0-5.3 1.7-10.3 5-14.4L7 10.8C4 14.6 2.5 19.2 2.5 24c0 11.9 9.6 21.5 21.5 21.5 4.3 0 8.4-1.3 12-3.6l1.1 1.7c-3.9 2.5-8.4 3.9-13.1 3.9z" fill="url(#_Linear10)" transform="translate(-.5 -.5)"/><path d="M41.7 39.4l-1.5-1.3c3.4-3.9 5.3-8.9 5.3-14.1 0-5.2-1.9-10.2-5.3-14.1l1.5-1.3c3.7 4.3 5.8 9.8 5.8 15.4 0 5.7-2 11.1-5.8 15.4z" fill="url(#_Linear11)" transform="translate(-.5 -.5)"/><path d="M10.8 7L9.6 5.4C13.8 2.2 18.7.5 24 .5c4.7 0 9.2 1.4 13.1 4L36 6.2c-3.5-2.4-7.7-3.7-12-3.7-4.8 0-9.4 1.6-13.2 4.5z" fill="url(#_Linear12)" transform="translate(-.5 -.5)"/></g><defs><linearGradient id="_Linear1" x1="0" y1="0" x2="1" y2="0" gradientUnits="userSpaceOnUse" gradientTransform="matrix(47 -47 47 47 .5 47.5)"><stop offset="0" stop-color="#2ca9b7"/><stop offset="1" stop-color="#1b648f"/></linearGradient><linearGradient id="_Linear2" x1="0" y1="0" x2="1" y2="0" gradientUnits="userSpaceOnUse" gradientTransform="matrix(47 -47 47 47 .5 47.5)"><stop offset="0" stop-color="#2ca9b7"/><stop offset="1" stop-color="#1b648f"/></linearGradient><linearGradient id="_Linear3" x1="0" y1="0" x2="1" y2="0" gradientUnits="userSpaceOnUse" gradientTransform="matrix(47 -47 47 47 .5 47.5)"><stop offset="0" stop-color="#2ca9b7"/><stop offset="1" stop-color="#1b648f"/></linearGradient><linearGradient id="_Linear4" x1="0" y1="0" x2="1" y2="0" gradientUnits="userSpaceOnUse" gradientTransform="matrix(47 -47 47 47 .5 47.5)"><stop offset="0" stop-color="#2ca9b7"/><stop offset="1" stop-color="#1b648f"/></linearGradient><linearGradient id="_Linear5" x1="0" y1="0" x2="1" y2="0" gradientUnits="userSpaceOnUse" gradientTransform="matrix(47 -47 47 47 .5 47.5)"><stop offset="0" stop-color="#2ca9b7"/><stop offset="1" stop-color="#1b648f"/></linearGradient><linearGradient id="_Linear6" x1="0" y1="0" x2="1" y2="0" gradientUnits="userSpaceOnUse" gradientTransform="matrix(47 -47 47 47 .5 47.5)"><stop offset="0" stop-color="#2ca9b7"/><stop offset="1" stop-color="#1b648f"/></linearGradient><linearGradient id="_Linear7" x1="0" y1="0" x2="1" y2="0" gradientUnits="userSpaceOnUse" gradientTransform="matrix(47 -47 47 47 .5 47.5)"><stop offset="0" stop-color="#2ca9b7"/><stop offset="1" stop-color="#1b648f"/></linearGradient><linearGradient id="_Linear8" x1="0" y1="0" x2="1" y2="0" gradientUnits="userSpaceOnUse" gradientTransform="matrix(47 -47 47 47 .5 47.5)"><stop offset="0" stop-color="#2ca9b7"/><stop offset="1" stop-color="#1b648f"/></linearGradient><linearGradient id="_Linear9" x1="0" y1="0" x2="1" y2="0" gradientUnits="userSpaceOnUse" gradientTransform="matrix(47 -47 47 47 .5 47.5)"><stop offset="0" stop-color="#2ca9b7"/><stop offset="1" stop-color="#1b648f"/></linearGradient><linearGradient id="_Linear10" x1="0" y1="0" x2="1" y2="0" gradientUnits="userSpaceOnUse" gradientTransform="matrix(47 -47 47 47 .5 47.5)"><stop offset="0" stop-color="#2ca9b7"/><stop offset="1" stop-color="#1b648f"/></linearGradient><linearGradient id="_Linear11" x1="0" y1="0" x2="1" y2="0" gradientUnits="userSpaceOnUse" gradientTransform="matrix(47 -47 47 47 .5 47.5)"><stop offset="0" stop-color="#2ca9b7"/><stop offset="1" stop-color="#1b648f"/></linearGradient><linearGradient id="_Linear12" x1="0" y1="0" x2="1" y2="0" gradientUnits="userSpaceOnUse" gradientTransform="matrix(47 -47 47 47 .5 47.5)"><stop offset="0" stop-color="#2ca9b7"/><stop offset="1" stop-color="#1b648f"/></linearGradient></defs></svg>