<svg viewBox="0 0 39 47" xmlns="http://www.w3.org/2000/svg" fill-rule="evenodd" clip-rule="evenodd" stroke-linejoin="round" stroke-miterlimit="2"><g fill-rule="nonzero"><path d="M32.2 47H15.8c-5.1 0-9.4-3.4-10.7-8.3-.8-3.1-.2-6.4 1.7-9l10.8-15.4c.6-.8 1.5-1.3 2.5-1.3H28c1 0 1.9.5 2.5 1.3l10.8 15.4c1.8 2.6 2.4 5.9 1.7 9-1.4 4.9-5.8 8.3-10.8 8.3zM20 15c-.3 0-.6.2-.8.4L8.4 30.8c-1.5 2.1-2 4.8-1.4 7.3 1 4 4.6 6.8 8.7 6.8h16.4c4.1 0 7.7-2.8 8.7-6.8.6-2.5.1-5.2-1.4-7.3L28.8 15.4c-.2-.2-.5-.4-.8-.4h-8zm7.6-4h-7.1c-1.3 0-2.5-.9-2.9-2.2l-1.8-6.2.5-.4c.1-.1 1.6-1.4 3.7-1.4 1.3 0 2.5.5 3.6 1.3.1.1.3.2.5.2.4 0 1-.2 1.5-.4.7-.2 1.5-.5 2.4-.5 1.7 0 2.9 1 3.8 3.1l.3.5-1.7 4.1c-.4 1.2-1.5 1.9-2.8 1.9zm-6.611-7.975A3.257 3.257 0 0020.1 2.9c-.8 0-1.5.3-1.9.5l1.4 4.9c.1.4.5.7 1 .7h1.243L21 3.1a.646.646 0 01-.011-.075zM23.786 9H27.7c.4 0 .8-.2.9-.6L29.9 5c-.8-1.5-1.5-1.5-1.8-1.5-.5 0-1.1.2-1.7.4-.7.2-1.4.5-2.2.5-.399 0-.765-.065-1.099-.195L23.786 9z" fill="url(#_Linear1)" transform="translate(-4.755 -.8)"/><path d="M23.5 39c-3.4 0-4.6-2.7-4.6-2.7-.2-.5 0-1.1.5-1.4.5-.2 1.1 0 1.3.5 0 0 .8 1.4 2.9 1.4 1 0 1.9-.8 2.1-1.9.2-1.4-1-2.7-3.3-3.5-2.7-.9-3.4-3.2-3.1-4.8.3-1.8 1.9-3.7 4.2-3.7h.1c2.8 0 3.9 2.4 4 2.5.2.5 0 1.2-.5 1.4-.5.2-1.1.1-1.3-.4 0-.1-.7-1.3-2.2-1.3-1.3 0-2.1.9-2.3 1.9-.2 1.1.5 2 1.8 2.5 4.9 1.7 4.8 4.9 4.7 5.8-.5 2.1-2.2 3.7-4.3 3.7.1 0 .1 0 0 0z" fill="url(#_Linear2)" transform="translate(-4.755 -.8)"/><path d="M23.5 41c-.6 0-1-.4-1-.9L22.4 22c0-.6.4-1 1-1 .5 0 1 .5 1 1l.1 18.1c0 .5-.5.9-1 .9z" fill="url(#_Linear3)" transform="translate(-4.755 -.8)"/></g><defs><linearGradient id="_Linear1" x1="0" y1="0" x2="1" y2="0" gradientUnits="userSpaceOnUse" gradientTransform="matrix(48 -47.2 47.2 48 0 48)"><stop offset="0" stop-color="#2ca9b7"/><stop offset="1" stop-color="#1b648f"/></linearGradient><linearGradient id="_Linear2" x1="0" y1="0" x2="1" y2="0" gradientUnits="userSpaceOnUse" gradientTransform="matrix(48 -47.2 47.2 48 0 48)"><stop offset="0" stop-color="#2ca9b7"/><stop offset="1" stop-color="#1b648f"/></linearGradient><linearGradient id="_Linear3" x1="0" y1="0" x2="1" y2="0" gradientUnits="userSpaceOnUse" gradientTransform="matrix(48 -47.2 47.2 48 0 48)"><stop offset="0" stop-color="#2ca9b7"/><stop offset="1" stop-color="#1b648f"/></linearGradient></defs></svg>