<svg viewBox="0 0 120 120" xmlns="http://www.w3.org/2000/svg" fill-rule="evenodd" clip-rule="evenodd" stroke-linejoin="round" stroke-miterlimit="2"><g transform="translate(-135)" fill="#2ca9b7"><path d="M233.5 31.4l-13 13c2.8 4.6 4.4 9.9 4.4 15.7 0 16.6-13.4 30-30 30-5.7 0-11.1-1.6-15.7-4.4l-13 13c8 5.9 17.9 9.5 28.6 9.5 26.5 0 48-21.5 48-48 .2-10.9-3.3-20.8-9.3-28.8zM165 60c0-16.6 13.4-30 30-30 5.7 0 11.1 1.6 15.7 4.4l13-13c-8-5.9-17.9-9.5-28.6-9.5-26.5 0-48 21.5-48 48 0 10.7 3.5 20.6 9.5 28.6l13-13c-3-4.4-4.6-9.8-4.6-15.5z" fill-rule="nonzero"/><circle cx="243" cy="12" r="12"/><circle cx="147" cy="108" r="12"/></g></svg>