<svg viewBox="0 0 356 356" xmlns="http://www.w3.org/2000/svg" xml:space="preserve" style="fill-rule:evenodd;clip-rule:evenodd;stroke-linejoin:round;stroke-miterlimit:2">
    <path d="M300.961,49.868c0.723,0.701 1.435,1.401 2.142,2.107c0.706,0.707 1.406,1.419 2.107,2.143l-4.249,-4.25Zm-248.986,253.235c-6.93,-6.93 -6.93,-18.183 0,-25.113c6.931,-6.93 18.183,-6.93 25.113,-0c55.441,55.44 145.462,55.44 200.902,-0l25.113,25.113c-69.301,69.3 -181.827,69.3 -251.128,-0Z" style="fill:url(#_Radial1);"/>
    <path d="M49.868,54.118c0.701,-0.724 1.401,-1.436 2.107,-2.143c0.707,-0.706 1.419,-1.406 2.143,-2.107l-4.25,4.25Zm253.235,248.985c-6.93,6.93 -18.183,6.93 -25.113,-0c-6.93,-6.93 -6.93,-18.183 -0,-25.113c55.44,-55.44 55.44,-145.461 -0,-200.902l25.113,-25.113c69.3,69.301 69.3,181.827 -0,251.128Z" style="fill:url(#_Radial2);"/>
    <path d="M54.118,305.21c-0.724,-0.701 -1.436,-1.401 -2.143,-2.107c-0.706,-0.707 -1.406,-1.419 -2.107,-2.142l4.25,4.249Zm248.985,-253.235c6.93,6.931 6.93,18.183 -0,25.113c-6.93,6.93 -18.183,6.93 -25.113,0c-55.44,-55.44 -145.461,-55.44 -200.902,0l-25.113,-25.113c69.301,-69.3 181.827,-69.3 251.128,0Z" style="fill:url(#_Radial3);"/>
    <path d="M305.21,300.961c-0.701,0.723 -1.401,1.435 -2.107,2.142c-0.707,0.706 -1.419,1.406 -2.142,2.107l4.249,-4.249Zm-253.235,-248.986c6.931,-6.93 18.183,-6.93 25.113,0c6.93,6.931 6.93,18.183 0,25.113c-55.44,55.441 -55.44,145.462 0,200.902l-25.113,25.113c-69.3,-69.301 -69.3,-181.827 0,-251.128Z" style="fill:url(#_Radial4);"/>
    <g>
        <path d="M168.732,112.043c-0,-4.103 1.632,-8.033 4.531,-10.932c2.899,-2.899 6.829,-4.531 10.932,-4.531l-0,146.455c-0,4.094 -1.632,8.033 -4.532,10.932c-2.899,2.899 -6.829,4.532 -10.931,4.532l-0,-146.456Z" style="fill:rgb(198,237,241);"/>
        <path d="M184.195,188.977c-1.696,-0.383 -14.078,-3.264 -15.463,-3.565c-11.206,-2.416 -22.174,-5.881 -29.551,-10.522c-7.841,-4.932 -12.071,-11.387 -12.071,-18.627c-0,-6.537 1.714,-13.266 6.811,-19.055c6.382,-7.249 19.092,-13.577 44.129,-13.577c29.914,0 41.284,13.221 45.615,20.634l-0,-0.01l0.091,0.174c0.027,0.045 0.064,0.1 0.091,0.155c0.037,0.073 0.082,0.146 0.119,0.228l4.002,7.148l-8.023,4.002l0.018,-0.045c-3.784,1.723 -8.224,0.456 -10.321,-3.228c-2.836,-4.96 -11.078,-12.701 -31.592,-12.701c-23.815,0 -32.24,5.334 -34.137,12.583c-0.282,1.267 -0.674,4.914 3.246,7.996c0.247,0.164 0.493,0.328 0.739,0.483c5.288,3.328 12.865,5.753 20.834,7.613c2.407,0.565 14.797,3.447 15.463,3.583c11.944,2.462 23.861,6.337 31.711,11.27c7.832,4.941 12.062,11.397 12.062,18.636c0,6.528 -1.714,13.266 -6.801,19.047c-6.383,7.257 -19.093,13.585 -44.139,13.585c-31.346,-0 -42.451,-14.388 -46.308,-21.873l-0.009,0.018c-1.44,-2.991 -2.653,-6.173 -3.601,-9.555l6.337,-3.264c0.036,-0.019 0.072,-0.037 0.109,-0.055l0.173,-0.082c0.091,-0.037 0.192,-0.082 0.283,-0.128c4.167,-1.732 8.962,0.237 10.704,4.404c1.705,4.094 9.044,14.178 32.312,14.178c23.806,-0 32.231,-5.334 34.137,-12.573c1.012,-4.249 -1.842,-7.012 -3.693,-8.316c-0.091,-0.054 -0.191,-0.118 -0.283,-0.173c-0.337,-0.209 -0.674,-0.419 -1.021,-0.62c-0.045,-0.018 -0.073,-0.036 -0.1,-0.045l0.073,0.036c-5.717,-3.328 -13.713,-5.881 -21.946,-7.759Z" style="fill:rgb(198,237,241);"/>
        <path d="M168.732,168.663l15.463,3.602l-0,16.703l-15.463,-3.538l-0,-16.767Z" style="fill:white;fill-opacity:0.6;"/>
        <path d="M150.323,144.638c0,0 -32.577,19.858 -6.665,32.814c8.005,3.52 16.384,6.146 25.074,8.033l-0,-16.822c-0.93,-0.164 -13.303,-2.927 -20.497,-7.431c-4.002,-2.507 -5.051,-5.516 -4.139,-9.245c0.547,-2.252 2.361,-4.741 6.227,-7.349Z" style="fill:rgb(149,223,229);"/>
        <path d="M205.421,213.284c-0,0 30.024,-20.204 4.112,-33.151c-8.006,-3.574 -15.983,-5.945 -25.338,-7.878l-0,16.713c0.93,0.164 14.296,3.419 21.782,7.631c4.121,2.316 6.054,5.516 5.188,9.072c-0.547,2.252 -1.879,5.006 -5.744,7.613Z" style="fill:rgb(149,223,229);"/>
        <path d="M168.732,140.307l-0,-16.356c2.899,-0.21 5.999,-0.32 9.318,-0.32c2.142,0 4.194,0.064 6.145,0.192l-0,16.412c-1.915,-0.165 -3.957,-0.247 -6.145,-0.247c-3.41,0 -6.51,0.11 -9.318,0.319Z" style="fill:rgb(238,250,251);"/>
        <path d="M184.195,172.246l-0,0.019l-5.534,-1.295c2.853,0.665 5.251,1.222 5.534,1.276Z" style="fill:rgb(50,201,164);"/>
    </g>
    <defs>
        <radialGradient id="_Radial1" cx="0" cy="0" r="1" gradientUnits="userSpaceOnUse" gradientTransform="matrix(199.113,0,0,199.113,64.5318,290.546)"><stop offset="0" style="stop-color:rgb(44,169,183);stop-opacity:1"/><stop offset="1" style="stop-color:rgb(44,169,183);stop-opacity:0"/></radialGradient>
        <radialGradient id="_Radial2" cx="0" cy="0" r="1" gradientUnits="userSpaceOnUse" gradientTransform="matrix(0,-199.113,199.113,0,290.546,290.546)"><stop offset="0" style="stop-color:rgb(44,169,183);stop-opacity:1"/><stop offset="1" style="stop-color:rgb(44,169,183);stop-opacity:0"/></radialGradient>
        <radialGradient id="_Radial3" cx="0" cy="0" r="1" gradientUnits="userSpaceOnUse" gradientTransform="matrix(-199.113,0,0,-199.113,290.546,64.5318)"><stop offset="0" style="stop-color:rgb(44,169,183);stop-opacity:1"/><stop offset="1" style="stop-color:rgb(44,169,183);stop-opacity:0"/></radialGradient>
        <radialGradient id="_Radial4" cx="0" cy="0" r="1" gradientUnits="userSpaceOnUse" gradientTransform="matrix(0,199.113,-199.113,0,64.5318,64.5318)"><stop offset="0" style="stop-color:rgb(44,169,183);stop-opacity:1"/><stop offset="1" style="stop-color:rgb(44,169,183);stop-opacity:0"/></radialGradient>
    </defs>
</svg>
