<?xml version="1.0" encoding="UTF-8" standalone="no"?>
<!DOCTYPE svg PUBLIC "-//W3C//DTD SVG 1.1//EN" "http://www.w3.org/Graphics/SVG/1.1/DTD/svg11.dtd">
<svg width="100%" height="100%" viewBox="0 0 500 500" version="1.1" xmlns="http://www.w3.org/2000/svg" xmlns:xlink="http://www.w3.org/1999/xlink" xml:space="preserve" xmlns:serif="http://www.serif.com/" style="fill-rule:evenodd;clip-rule:evenodd;stroke-linejoin:round;stroke-miterlimit:2;">
    <g transform="matrix(1,0,0,1,9.4329e-05,0.000441329)">
        <g transform="matrix(1,0,0,1,0.00344672,-0.00190028)">
            <g transform="matrix(-0.707108,-0.707108,0.707108,-0.707108,249.948,603.507)">
                <path d="M254.23,499.965C252.812,499.988 251.407,500 250,500C248.593,500 247.188,499.988 245.77,499.965L254.23,499.965ZM250,0C263.798,0 275,11.202 275,25C275,38.798 263.798,50 250,50C139.617,50 50,139.617 50,250L0,250C0,112.021 112.021,0 250,0Z" style="fill:url(#_Radial1);"/>
            </g>
        </g>
        <g transform="matrix(1,0,0,1,0.00344672,-0.00190028)">
            <g transform="matrix(-0.707108,0.707108,-0.707108,-0.707108,603.502,249.953)">
                <path d="M254.23,499.965C252.812,499.988 251.407,500 250,500C248.593,500 247.188,499.988 245.77,499.965L254.23,499.965ZM250,0C263.798,0 275,11.202 275,25C275,38.798 263.798,50 250,50C139.617,50 50,139.617 50,250L0,250C0,112.021 112.021,0 250,0Z" style="fill:url(#_Radial2);"/>
            </g>
        </g>
        <g transform="matrix(1,0,0,1,0.00344672,-0.00190028)">
            <g transform="matrix(0.707108,0.707108,-0.707108,0.707108,249.948,-103.601)">
                <path d="M254.23,499.965C252.812,499.988 251.407,500 250,500C248.593,500 247.188,499.988 245.77,499.965L254.23,499.965ZM250,0C263.798,0 275,11.202 275,25C275,38.798 263.798,50 250,50C139.617,50 50,139.617 50,250L0,250C0,112.021 112.021,0 250,0Z" style="fill:url(#_Radial3);"/>
            </g>
        </g>
        <g transform="matrix(1,0,0,1,0.00344672,-0.00190028)">
            <g transform="matrix(0.707108,-0.707108,0.707108,0.707108,-103.606,249.953)">
                <path d="M254.23,499.965C252.812,499.988 251.407,500 250,500C248.593,500 247.188,499.988 245.77,499.965L254.23,499.965ZM250,0C263.798,0 275,11.202 275,25C275,38.798 263.798,50 250,50C139.617,50 50,139.617 50,250L0,250C0,112.021 112.021,0 250,0Z" style="fill:url(#_Radial4);"/>
            </g>
        </g>
        <g transform="matrix(1,0,0,1,0.00344672,-0.00190028)">
            <g transform="matrix(10.938,0,0,10.938,-40439,-10131.6)">
                <path d="M3725.35,952.456C3725.35,949.781 3724.47,948.582 3721.37,947.507C3718.9,946.582 3718.52,946.157 3718.52,945.007L3718.52,944.907C3718.52,944.09 3719.18,943.416 3720,943.407C3720.86,943.418 3721.57,944.1 3721.62,944.957L3724.77,944.957C3724.7,942.832 3723.37,940.983 3721.67,940.657L3721.67,937.332L3718.5,937.332L3718.5,940.657C3716.44,941.148 3715.03,943.091 3715.2,945.205C3715.11,947.262 3716.44,949.13 3718.42,949.705C3719.34,949.975 3720.22,950.353 3721.05,950.83C3721.69,951.173 3722.07,951.859 3722.02,952.58L3722.02,952.61C3722.02,953.732 3721.1,954.655 3719.97,954.655C3719.96,954.655 3719.94,954.654 3719.92,954.654L3719.9,954.654C3718.76,954.654 3717.82,953.715 3717.82,952.574L3717.82,952.505L3714.47,952.505L3714.47,952.83C3714.56,955.143 3716.23,957.111 3718.5,957.578L3718.5,960.878L3721.67,960.878L3721.67,957.578C3723.95,956.972 3725.51,954.814 3725.35,952.456Z" style="fill:white;"/>
            </g>
        </g>
    </g>
    <defs>
        <radialGradient id="_Radial1" cx="0" cy="0" r="1" gradientUnits="userSpaceOnUse" gradientTransform="matrix(-198.219,198.219,-198.219,-198.219,250,25)"><stop offset="0" style="stop-color:rgb(44,169,183);stop-opacity:1"/><stop offset="1" style="stop-color:rgb(44,169,183);stop-opacity:0"/></radialGradient>
        <radialGradient id="_Radial2" cx="0" cy="0" r="1" gradientUnits="userSpaceOnUse" gradientTransform="matrix(-198.219,198.219,-198.219,-198.219,250,25)"><stop offset="0" style="stop-color:rgb(44,169,183);stop-opacity:1"/><stop offset="1" style="stop-color:rgb(44,169,183);stop-opacity:0"/></radialGradient>
        <radialGradient id="_Radial3" cx="0" cy="0" r="1" gradientUnits="userSpaceOnUse" gradientTransform="matrix(-198.219,198.219,-198.219,-198.219,250,25)"><stop offset="0" style="stop-color:rgb(44,169,183);stop-opacity:1"/><stop offset="1" style="stop-color:rgb(44,169,183);stop-opacity:0"/></radialGradient>
        <radialGradient id="_Radial4" cx="0" cy="0" r="1" gradientUnits="userSpaceOnUse" gradientTransform="matrix(-198.219,198.219,-198.219,-198.219,250,25)"><stop offset="0" style="stop-color:rgb(44,169,183);stop-opacity:1"/><stop offset="1" style="stop-color:rgb(44,169,183);stop-opacity:0"/></radialGradient>
    </defs>
</svg>
