<svg viewBox="0 0 42 42" xmlns="http://www.w3.org/2000/svg" fill-rule="evenodd" clip-rule="evenodd" stroke-linejoin="round" stroke-miterlimit="2"><path d="M23.7 34c-.6 0-1-.4-1-.9L22.6 14c0-.6.4-1 1-1s1 .5 1 1l.1 19.1c0 .5-.4.9-1 .9z" fill="url(#_Linear1)" fill-rule="nonzero" transform="translate(9.789 8)"/><path d="M23.7 32c-3.6 0-4.8-2.8-4.8-2.9-.2-.5 0-1.2.5-1.4.5-.2 1.1.1 1.3.6 0 0 .8 1.7 3 1.7 1.1 0 2.1-1 2.3-2.1.2-1.5-1.1-3-3.6-3.8-2.8-1-3.5-3.3-3.2-4.9.3-1.9 2-3.7 4.5-3.7 2.9 0 4.1 2.4 4.2 2.5.2.5 0 1.1-.5 1.3-.5.2-1.1-.1-1.3-.6 0-.1-.7-1.6-2.4-1.6-1.4 0-2.3 1.2-2.5 2.2-.2 1.2.5 2.3 1.9 2.7 5.1 1.8 5 5.2 4.9 6.2-.3 2-2.1 3.8-4.3 3.8.1 0 .1 0 0 0z" fill="url(#_Linear2)" fill-rule="nonzero" transform="translate(9.789 8)"/><path d="M23.667 29.675c-3.851 0-6.191-4.543-6.777-6.103-.244-.154-.454-.287-.597-.544-.897-1.616-1.119-2.931-.659-3.91.173-.368.426-.646.695-.843.009-.692.073-1.827.355-2.94.117-.767 1.021-4.834 6.982-4.834 5.982 0 6.868 4.06 6.982 4.837.281 1.112.346 2.246.354 2.938.27.198.522.475.695.843.46.979.238 2.294-.659 3.91-.143.257-.353.391-.596.544-.588 1.563-2.929 6.102-6.775 6.102zm-5.727-7.804l.019.012c.318.201.619.391.738.8.301 1.063 2.301 4.992 4.97 4.992 2.666 0 4.669-3.929 4.968-4.985.115-.413.433-.613.739-.808l.019-.011c.679-1.291.54-1.794.504-1.886a.204.204 0 00-.129-.125c-.492-.092-.796-.526-.771-1.026.001-.016.079-1.603-.298-3.049a1.038 1.038 0 01-.03-.184c-.028-.308-.417-3.101-5.002-3.101-4.716 0-4.994 2.981-5.004 3.108-.004.06-.015.119-.029.177-.379 1.457-.299 3.032-.299 3.048a.999.999 0 01-.814 1.037c.011 0-.05.031-.084.115-.037.092-.175.596.503 1.886z" fill="url(#_Linear3)" fill-rule="nonzero" transform="translate(-3 -3)"/><path d="M10.156 39.188a1 1 0 01-1-1c0-4.575 2.555-7.814 7.389-9.366 2.151-.691 3.313-1.823 3.324-1.834a1.003 1.003 0 011.413.003.997.997 0 01.004 1.409c-.06.06-1.485 1.477-4.13 2.327-4.037 1.296-6 3.737-6 7.462a1 1 0 01-1 .999z" fill="url(#_Linear4)" fill-rule="nonzero" transform="translate(-3 -3)"/><path d="M28.848 30.106c-.15 0-.304-.034-.448-.106-1.505-.756-2.318-1.566-2.353-1.601a1 1 0 011.416-1.413c.007.006.643.627 1.835 1.226a1 1 0 01-.45 1.894z" fill="url(#_Linear5)" fill-rule="nonzero" transform="translate(-3 -3)"/><path d="M24 45C12.421 45 3 35.58 3 24S12.421 3 24 3s21 9.42 21 21c0 1.362-.132 2.724-.391 4.05a.999.999 0 11-1.963-.383C42.881 26.466 43 25.233 43 24c0-10.477-8.523-19-19-19S5 13.523 5 24s8.523 19 19 19a1 1 0 110 2z" fill="url(#_Linear6)" fill-rule="nonzero" transform="translate(-3 -3)"/><defs><linearGradient id="_Linear1" x1="0" y1="0" x2="1" y2="0" gradientUnits="userSpaceOnUse" gradientTransform="matrix(48 -48 48 48 0 48)"><stop offset="0" stop-color="#2ca9b7"/><stop offset="1" stop-color="#1b648f"/></linearGradient><linearGradient id="_Linear2" x1="0" y1="0" x2="1" y2="0" gradientUnits="userSpaceOnUse" gradientTransform="matrix(48 -48 48 48 0 48)"><stop offset="0" stop-color="#2ca9b7"/><stop offset="1" stop-color="#1b648f"/></linearGradient><linearGradient id="_Linear3" x1="0" y1="0" x2="1" y2="0" gradientUnits="userSpaceOnUse" gradientTransform="matrix(48 -48 48 48 0 48)"><stop offset="0" stop-color="#2ca9b7"/><stop offset="1" stop-color="#1b648f"/></linearGradient><linearGradient id="_Linear4" x1="0" y1="0" x2="1" y2="0" gradientUnits="userSpaceOnUse" gradientTransform="matrix(48 -48 48 48 0 48)"><stop offset="0" stop-color="#2ca9b7"/><stop offset="1" stop-color="#1b648f"/></linearGradient><linearGradient id="_Linear5" x1="0" y1="0" x2="1" y2="0" gradientUnits="userSpaceOnUse" gradientTransform="matrix(48 -48 48 48 0 48)"><stop offset="0" stop-color="#2ca9b7"/><stop offset="1" stop-color="#1b648f"/></linearGradient><linearGradient id="_Linear6" x1="0" y1="0" x2="1" y2="0" gradientUnits="userSpaceOnUse" gradientTransform="matrix(48 -48 48 48 0 48)"><stop offset="0" stop-color="#2ca9b7"/><stop offset="1" stop-color="#1b648f"/></linearGradient></defs></svg>