<svg viewBox="0 0 42 42" xmlns="http://www.w3.org/2000/svg" fill-rule="evenodd" clip-rule="evenodd" stroke-linejoin="round" stroke-miterlimit="2"><path d="M20.819 43.7H20.8c-8.6-1.4-15.2-8-16.6-16.6-.1-.5.3-1.1.8-1.1.6-.1 1.1.3 1.1.8a17.822 17.822 0 0013.844 14.703L18.3 39.7c-.4-.4-.3-1 .1-1.4.4-.4 1-.3 1.4.1l4.3 4.8-4.4 4.5c-.2.2-.4.3-.7.3-.3 0-.5-.1-.7-.3-.4-.4-.4-1 0-1.4l2.519-2.6zM41.53 27.832L39.7 29.5c-.2.1-.5.2-.7.2-.3 0-.5-.1-.7-.3-.4-.4-.3-1 .1-1.4l4.8-4.3 4.5 4.4c.4.4.4 1 0 1.4-.4.4-1 .4-1.4 0l-2.7-2.616a.82.82 0 010 .316c-1.4 8.6-8 15.2-16.6 16.6.1-.1.1-.1 0-.1-.5 0-.9-.4-1-.8-.1-.5.3-1.1.8-1.1a17.822 17.822 0 0014.73-13.968zM4.286 21.105A.793.793 0 014.3 20.9c1.4-8.6 8-15.2 16.6-16.6.6-.1 1.1.3 1.1.8.1.5-.3 1.1-.8 1.1A18.27 18.27 0 006.36 20.369L8.3 18.6c.4-.4 1-.3 1.4.1.4.4.3 1-.1 1.4l-4.8 4.3L.3 20c-.4-.4-.4-1 0-1.4.4-.4 1-.4 1.4 0l2.586 2.505zM27.732 6.47L29.4 8.3c.4.4.3 1-.1 1.4-.1.2-.3.3-.6.3s-.5-.1-.7-.3l-4.3-4.8L28 .3c.4-.4 1-.4 1.4 0 .4.4.4 1 0 1.4l-2.616 2.7a.82.82 0 01.316 0c8.6 1.4 15.2 8 16.6 16.6.1.5-.3 1.1-.8 1.1-.1-.1-.1-.1-.2-.1-.5 0-.9-.4-1-.8A17.822 17.822 0 0027.732 6.47z" fill="url(#_Linear1)" fill-rule="nonzero" transform="scale(-1 1) rotate(45 5.844 -31.52)"/><path d="M23.7 34c-.6 0-1-.4-1-.9L22.6 14c0-.6.4-1 1-1s1 .5 1 1l.1 19.1c0 .5-.4.9-1 .9z" fill="url(#_Linear2)" fill-rule="nonzero" transform="translate(-3.211 -3.423)"/><path d="M23.7 32c-3.6 0-4.8-2.8-4.8-2.9-.2-.5 0-1.2.5-1.4.5-.2 1.1.1 1.3.6 0 0 .8 1.7 3 1.7 1.1 0 2.1-1 2.3-2.1.2-1.5-1.1-3-3.6-3.8-2.8-1-3.5-3.3-3.2-4.9.3-1.9 2-3.7 4.5-3.7 2.9 0 4.1 2.4 4.2 2.5.2.5 0 1.1-.5 1.3-.5.2-1.1-.1-1.3-.6 0-.1-.7-1.6-2.4-1.6-1.4 0-2.3 1.2-2.5 2.2-.2 1.2.5 2.3 1.9 2.7 5.1 1.8 5 5.2 4.9 6.2-.3 2-2.1 3.8-4.3 3.8.1 0 .1 0 0 0z" fill="url(#_Linear3)" fill-rule="nonzero" transform="translate(-3.211 -3.423)"/><defs><linearGradient id="_Linear1" x1="0" y1="0" x2="1" y2="0" gradientUnits="userSpaceOnUse" gradientTransform="rotate(180 28.896 12.075) scale(67.8823)"><stop offset="0" stop-color="#2ca9b7"/><stop offset="1" stop-color="#1b648f"/></linearGradient><linearGradient id="_Linear2" x1="0" y1="0" x2="1" y2="0" gradientUnits="userSpaceOnUse" gradientTransform="matrix(48 -48 -48 -48 0 48)"><stop offset="0" stop-color="#2ca9b7"/><stop offset="1" stop-color="#1b648f"/></linearGradient><linearGradient id="_Linear3" x1="0" y1="0" x2="1" y2="0" gradientUnits="userSpaceOnUse" gradientTransform="matrix(48 -48 -48 -48 0 48)"><stop offset="0" stop-color="#2ca9b7"/><stop offset="1" stop-color="#1b648f"/></linearGradient></defs></svg>