<svg clip-rule="evenodd" fill-rule="evenodd" stroke-linejoin="round" stroke-miterlimit="2" viewBox="0 0 19 15" xmlns="http://www.w3.org/2000/svg"><path d="m17.316 6.246c.008.162.011.326.011.488 0 4.99-3.797 10.742-10.74 10.742-2.133 0-4.116-.625-5.787-1.697.296.035.596.053.9.053 1.77 0 3.397-.604 4.688-1.615-1.651-.031-3.046-1.121-3.526-2.621.23.043.467.066.71.066.345 0 .679-.045.995-.131-1.727-.348-3.028-1.873-3.028-3.703v-.047c.509.283 1.092.453 1.71.473-1.013-.678-1.68-1.832-1.68-3.143 0-.691.186-1.34.512-1.898 1.861 2.285 4.644 3.787 7.781 3.945-.064-.277-.097-.564-.097-.861 0-2.084 1.689-3.773 3.774-3.773 1.086 0 2.067.457 2.756 1.191.859-.17 1.667-.484 2.397-.916-.282.881-.881 1.621-1.66 2.088.764-.092 1.49-.293 2.168-.594-.506.758-1.146 1.422-1.884 1.953z" fill="#fff" fill-rule="nonzero" transform="translate(-.8 -2.524)"/></svg>