<svg clip-rule="evenodd" fill-rule="evenodd" stroke-linejoin="round" stroke-miterlimit="2" viewBox="0 0 44 46" xmlns="http://www.w3.org/2000/svg" xmlns:xlink="http://www.w3.org/1999/xlink"><linearGradient id="a" gradientTransform="matrix(39.3287 -40.8892 40.8892 39.3287 2.67132 46.8892)" gradientUnits="userSpaceOnUse" x1="0" x2="1" y1="0" y2="0"><stop offset="0" stop-color="#2ca9b7"/><stop offset="1" stop-color="#1b648f"/></linearGradient><path d="m30 48h-12c-1.654 0-3-1.346-3-3v-19c0-4.963 4.037-9 9-9s9 4.037 9 9v19c0 1.654-1.346 3-3 3zm13 0h-7v-2h7c.552 0 1-.448 1-1v-14c0-3.859-3.141-7-7-7h-1v-2h1c4.963 0 9 4.037 9 9v14c0 1.654-1.346 3-3 3zm-31 0h-7c-1.654 0-3-1.346-3-3v-14c0-4.963 4.037-9 9-9h1v2h-1c-3.859 0-7 3.141-7 7v14c0 .552.448 1 1 1h7zm12-29c-3.859 0-7 3.141-7 7v19c0 .552.448 1 1 1h12c.552 0 1-.448 1-1v-19c0-3.859-3.141-7-7-7zm13 1c-3.309 0-6-2.691-6-6s2.691-6 6-6 6 2.691 6 6-2.691 6-6 6zm-26 0c-3.309 0-6-2.691-6-6s2.691-6 6-6 6 2.691 6 6-2.691 6-6 6zm26-10c-2.206 0-4 1.794-4 4s1.794 4 4 4 4-1.794 4-4-1.794-4-4-4zm-26 0c-2.206 0-4 1.794-4 4s1.794 4 4 4 4-1.794 4-4-1.794-4-4-4zm13 6c-3.859 0-7-3.141-7-7s3.141-7 7-7 7 3.141 7 7-3.141 7-7 7zm0-12c-2.757 0-5 2.243-5 5s2.243 5 5 5 5-2.243 5-5-2.243-5-5-5z" fill="url(#a)" fill-rule="nonzero" transform="translate(-2 -2)"/></svg>