<svg clip-rule="evenodd" fill-rule="evenodd" stroke-linejoin="round" stroke-miterlimit="2" viewBox="0 0 44 46" xmlns="http://www.w3.org/2000/svg" xmlns:xlink="http://www.w3.org/1999/xlink"><linearGradient id="a" gradientTransform="matrix(42.2955 -38.0619 38.0619 42.2955 2.7707 44.0414)" gradientUnits="userSpaceOnUse" x1="0" x2="1" y1="0" y2="0"><stop offset="0" stop-color="#2ca9b7"/><stop offset="1" stop-color="#1b648f"/></linearGradient><path d="m2.049 7.655c.161-.877.702-1.639 1.451-2.055l7.5-4.2c.5-.3 1-.4 1.5-.4h23c.5 0 1 .1 1.5.4l7.5 4.2c.849.425 1.338 1.21 1.466 2.111.022.09.034.186.034.289 0 .025-.001.051-.002.075.001.042.002.083.002.125v33.8c0 1.7-1.3 3-3 3h-3v1c0 .6-.4 1-1 1s-1-.4-1-1v-1h-29v1c0 .6-.4 1-1 1s-1-.4-1-1v-1h-2c-1.7 0-3-1.3-3-3v-33.8c0-.04.001-.08.002-.12-.001-.027-.002-.053-.002-.08 0-.124.017-.239.049-.345zm41.951 1.345h-40v33c0 .6.4 1 1 1h38c.6 0 1-.4 1-1zm-20 30c-3.5 0-6.7-1.4-9.2-3.8-5.1-5.1-5.1-13.3 0-18.4 2.5-2.5 5.7-3.8 9.2-3.8s6.7 1.4 9.2 3.8c5.1 5.1 5.1 13.3 0 18.4-2.5 2.4-5.7 3.8-9.2 3.8zm0-24c-2.9 0-5.7 1.1-7.8 3.2-4.3 4.3-4.3 11.3 0 15.6 2.1 2.1 4.8 3.2 7.8 3.2s5.7-1.1 7.8-3.2c4.3-4.3 4.3-11.3 0-15.6-2.1-2.1-4.9-3.2-7.8-3.2zm0 21c-.6 0-1-.4-1-1v-2c0-.6.4-1 1-1s1 .4 1 1v2c0 .6-.4 1-1 1zm-6.4-2.6c-.3 0-.5-.1-.7-.3-.4-.4-.4-1 0-1.4l1.4-1.4c.4-.4 1-.4 1.4 0s.4 1 0 1.4l-1.4 1.4c-.2.2-.4.3-.7.3zm12.8 0c-.3 0-.5-.1-.7-.3l-1.4-1.4c-.4-.4-.4-1 0-1.4s1-.4 1.4 0l1.4 1.4c.4.4.4 1 0 1.4-.2.2-.5.3-.7.3zm-6.4-2.4c-2.8 0-5-2.2-5-5s2.2-5 5-5 5 2.2 5 5-2.2 5-5 5zm2.84-6c-.398-1.184-1.493-2-2.84-2-1.7 0-3 1.3-3 3s1.3 3 3 3c1.347 0 2.442-.816 2.84-2h-2.84c-.6 0-1-.4-1-1s.4-1 1-1zm6.16 2h-2c-.6 0-1-.4-1-1s.4-1 1-1h2c.6 0 1 .4 1 1s-.4 1-1 1zm-16 0h-2c-.6 0-1-.4-1-1s.4-1 1-1h2c.6 0 1 .4 1 1s-.4 1-1 1zm11.9-5c-.3 0-.5-.1-.7-.3-.4-.4-.4-1 0-1.4l1.4-1.4c.4-.4 1-.4 1.4 0s.4 1 0 1.4l-1.4 1.4c-.1.3-.4.3-.7.3zm-9.8 0c-.3 0-.5-.1-.7-.3l-1.4-1.4c-.4-.4-.4-1 0-1.4s1-.4 1.4 0l1.4 1.4c.4.4.4 1 0 1.4-.2.3-.5.3-.7.3zm4.9-2c-.6 0-1-.4-1-1v-2c0-.6.4-1 1-1s1 .4 1 1v2c0 .6-.4 1-1 1zm12-4c-.6 0-1-.4-1-1v-2c0-.6.4-1 1-1s1 .4 1 1v2c0 .6-.4 1-1 1zm4 0c-.6 0-1-.4-1-1v-2c0-.6.4-1 1-1s1 .4 1 1v2c0 .6-.4 1-1 1zm2.964-9-6.964-3.9c-.2-.1-.3-.1-.5-.1h-23c-.2 0-.3 0-.5.1l-6.964 3.9z" fill="url(#a)" fill-rule="nonzero" transform="translate(-2 -1)"/></svg>