<svg viewBox="0 0 200 200" xmlns="http://www.w3.org/2000/svg" xml:space="preserve" style="fill-rule:evenodd;clip-rule:evenodd;stroke-linecap:round;stroke-linejoin:round;stroke-miterlimit:2;">
    <circle cx="100" cy="100" r="99.278"/>
    <path d="M66.273,120.045c0.599,-0.599 1.422,-0.948 2.295,-0.948l79.175,0c1.447,0 2.17,1.746 1.147,2.769l-15.64,15.64c-0.599,0.599 -1.422,0.948 -2.295,0.948l-79.174,0c-1.447,0 -2.171,-1.746 -1.148,-2.769l15.64,-15.64Z" style="fill:url(#_Linear1);fill-rule:nonzero;"/>
    <path d="M66.273,61.65c0.624,-0.599 1.447,-0.948 2.295,-0.948l79.175,-0c1.447,-0 2.17,1.746 1.147,2.769l-15.64,15.64c-0.599,0.599 -1.422,0.948 -2.295,0.948l-79.174,-0c-1.447,-0 -2.171,-1.746 -1.148,-2.769l15.64,-15.64Z" style="fill:url(#_Linear2);fill-rule:nonzero;"/>
    <path d="M133.25,90.66c-0.599,-0.598 -1.422,-0.948 -2.295,-0.948l-79.174,0c-1.447,0 -2.171,1.746 -1.148,2.769l15.64,15.641c0.599,0.598 1.422,0.947 2.295,0.947l79.175,0c1.447,0 2.17,-1.746 1.147,-2.768l-15.64,-15.641Z" style="fill:url(#_Linear3);fill-rule:nonzero;"/>
<defs>
    <linearGradient id="_Linear1" x1="0" y1="0" x2="1" y2="0" gradientUnits="userSpaceOnUse" gradientTransform="matrix(-54.795,104.954,-104.954,-54.795,140.179,51.3586)"><stop offset="0" style="stop-color:rgb(0,255,163);stop-opacity:1"/><stop offset="1" style="stop-color:rgb(220,31,255);stop-opacity:1"/></linearGradient>
    <linearGradient id="_Linear2" x1="0" y1="0" x2="1" y2="0" gradientUnits="userSpaceOnUse" gradientTransform="matrix(-54.795,104.954,-104.954,-54.795,116.22,38.8498)"><stop offset="0" style="stop-color:rgb(0,255,163);stop-opacity:1"/><stop offset="1" style="stop-color:rgb(220,31,255);stop-opacity:1"/></linearGradient>
    <linearGradient id="_Linear3" x1="0" y1="0" x2="1" y2="0" gradientUnits="userSpaceOnUse" gradientTransform="matrix(-54.795,104.954,-104.954,-54.795,128.123,45.0644)"><stop offset="0" style="stop-color:rgb(0,255,163);stop-opacity:1"/><stop offset="1" style="stop-color:rgb(220,31,255);stop-opacity:1"/></linearGradient>
</defs>
</svg>
