<?xml version="1.0" encoding="UTF-8" standalone="no"?>
<!DOCTYPE svg PUBLIC "-//W3C//DTD SVG 1.1//EN" "http://www.w3.org/Graphics/SVG/1.1/DTD/svg11.dtd">
<svg width="100%" height="100%" viewBox="0 0 11 24" version="1.1" xmlns="http://www.w3.org/2000/svg" xmlns:xlink="http://www.w3.org/1999/xlink" xml:space="preserve" xmlns:serif="http://www.serif.com/" style="fill-rule:evenodd;clip-rule:evenodd;stroke-linejoin:round;stroke-miterlimit:2;">
    <g transform="matrix(1,0,0,1,0,0.012)">
        <g id="_" transform="matrix(1,0,0,1,-3714.47,-937.344)">
            <path d="M3725.35,952.456C3725.35,949.781 3724.47,948.582 3721.37,947.507C3718.9,946.582 3718.52,946.157 3718.52,945.007C3718.52,944.974 3718.52,944.94 3718.52,944.907C3718.52,944.09 3719.18,943.416 3720,943.407C3720.86,943.418 3721.57,944.1 3721.62,944.957L3724.77,944.957C3724.7,942.832 3723.37,940.983 3721.67,940.657L3721.67,937.332L3718.5,937.332L3718.5,940.657C3716.44,941.148 3715.03,943.091 3715.2,945.205C3715.11,947.262 3716.44,949.13 3718.42,949.705C3719.34,949.975 3720.22,950.353 3721.05,950.83C3721.69,951.173 3722.07,951.859 3722.02,952.58C3722.02,952.59 3722.02,952.6 3722.02,952.61C3722.02,953.732 3721.1,954.655 3719.97,954.655C3719.96,954.655 3719.94,954.654 3719.92,954.654C3719.91,954.654 3719.91,954.654 3719.9,954.654C3718.76,954.654 3717.82,953.715 3717.82,952.574C3717.82,952.551 3717.82,952.528 3717.82,952.505L3714.47,952.505L3714.47,952.83C3714.56,955.143 3716.23,957.111 3718.5,957.578L3718.5,960.878L3721.67,960.878L3721.67,957.578C3723.95,956.972 3725.51,954.814 3725.35,952.456Z" style="fill:rgb(50,201,164);"/>
        </g>
    </g>
</svg>
