<svg width="16" height="16" viewBox="0 0 16 16" fill="none" xmlns="http://www.w3.org/2000/svg">
<path d="M2.925 4.93437C1.82188 4.675 1 3.68438 1 2.5C1 1.11875 2.11875 0 3.5 0C4.85625 0 5.95938 1.07812 6 2.42188L11.7438 4.72188C12.1969 4.275 12.8156 4 13.5 4C14.8813 4 16 5.11875 16 6.5C16 7.88125 14.8813 9 13.5 9C13.1188 9 12.7563 8.91562 12.4344 8.7625L7.88437 12.7437C7.95937 12.9812 8 13.2375 8 13.5C8 14.8813 6.88125 16 5.5 16C4.11875 16 3 14.8813 3 13.5C3 12.6344 3.4375 11.8719 4.10625 11.425L2.925 4.93437ZM11.1156 7.25625C11.0469 7.04063 11.0062 6.8125 11 6.57812L5.25625 4.28125C5.14375 4.39062 5.025 4.49062 4.89375 4.57812L6.075 11.0656C6.24687 11.1062 6.4125 11.1625 6.56875 11.2375L11.1156 7.25625Z" fill="white"/>
</svg>
