<svg width="16" height="16" viewBox="0 0 16 16" fill="none" xmlns="http://www.w3.org/2000/svg">
<path d="M1.4875 9.38742L7.13438 14.6593C7.36875 14.878 7.67812 14.9999 8 14.9999C8.32187 14.9999 8.63125 14.878 8.86563 14.6593L14.5125 9.38742C15.4625 8.50305 16 7.26242 16 5.96555V5.7843C16 3.59992 14.4219 1.73742 12.2688 1.37805C10.8438 1.14055 9.39375 1.60617 8.375 2.62492L8 2.99992L7.625 2.62492C6.60625 1.60617 5.15625 1.14055 3.73125 1.37805C1.57812 1.73742 0 3.59992 0 5.7843V5.96555C0 7.26242 0.5375 8.50305 1.4875 9.38742Z" fill="#695682"/>
<path d="M1.4875 9.38742L7.13438 14.6593C7.36875 14.878 7.67812 14.9999 8 14.9999C8.32187 14.9999 8.63125 14.878 8.86563 14.6593L14.5125 9.38742C15.4625 8.50305 16 7.26242 16 5.96555V5.7843C16 3.59992 14.4219 1.73742 12.2688 1.37805C10.8438 1.14055 9.39375 1.60617 8.375 2.62492L8 2.99992L7.625 2.62492C6.60625 1.60617 5.15625 1.14055 3.73125 1.37805C1.57812 1.73742 0 3.59992 0 5.7843V5.96555C0 7.26242 0.5375 8.50305 1.4875 9.38742Z" fill="#695682"/>
</svg>
