<svg xmlns="http://www.w3.org/2000/svg" width="22" height="24" viewBox="0 0 22 24" fill="none">
  <path fill-rule="evenodd" clip-rule="evenodd" d="M18.6778 17.5839H16.463C15.8505 17.5839 15.3556 18.0788 15.3556 18.6913C15.3556 19.3038 15.8505 19.7987 16.463 19.7987H18.6778C20.5119 19.7987 21.9999 18.3106 21.9999 16.4765V7.61745C21.9999 5.78335 20.5119 4.2953 18.6778 4.2953H16.463C15.8505 4.2953 15.3556 4.79016 15.3556 5.40268C15.3556 6.01521 15.8505 6.51007 16.463 6.51007H18.6778C19.2903 6.51007 19.7852 7.00493 19.7852 7.61745V16.4765C19.7852 17.089 19.2903 17.5839 18.6778 17.5839ZM10.7035 12.8502C9.70716 13.7047 8.70617 14.914 8.0065 16.5976L9.56991 17.2886C10.8011 14.3261 13.1743 13.194 14.1745 12.8502L14.1745 11.0961C13.1743 10.7523 10.8011 9.62018 9.56991 6.65772L8.0065 7.34869C8.70617 9.03229 9.70716 10.2417 10.7035 11.0961L0 11.0961L1.53348e-07 12.8502L10.7035 12.8502Z" fill="url(#paint0_radial_1_3220)"/>
  <defs>
    <radialGradient id="paint0_radial_1_3220" cx="0" cy="0" r="1" gradientUnits="userSpaceOnUse" gradientTransform="translate(-2.02836e-07 6.04568) rotate(27.0752) scale(31.8639 39.8761)">
      <stop offset="0.2" stop-color="#6256E9"/>
      <stop offset="0.935" stop-color="#D772D3"/>
    </radialGradient>
  </defs>
</svg>