<svg width="16" height="16" viewBox="0 0 16 16" fill="none" xmlns="http://www.w3.org/2000/svg">
<path fill-rule="evenodd" clip-rule="evenodd" d="M4.08009 0.159912C4.32064 0.159912 4.51564 0.354917 4.51564 0.595468V3.2088C4.51564 3.44935 4.32064 3.64436 4.08009 3.64436C3.83954 3.64436 3.64453 3.44935 3.64453 3.2088V0.595468C3.64453 0.354917 3.83954 0.159912 4.08009 0.159912Z" fill="url(#paint0_radial_208_2160)"/>
<path fill-rule="evenodd" clip-rule="evenodd" d="M4.08009 9.74219C4.32064 9.74219 4.51564 9.93719 4.51564 10.1777V13.6622C4.51564 13.9027 4.32064 14.0977 4.08009 14.0977C3.83954 14.0977 3.64453 13.9027 3.64453 13.6622V10.1777C3.64453 9.93719 3.83954 9.74219 4.08009 9.74219Z" fill="url(#paint1_radial_208_2160)"/>
<path fill-rule="evenodd" clip-rule="evenodd" d="M1.90234 4.34119C1.90234 3.47521 2.60436 2.77319 3.47034 2.77319H4.6899C5.55588 2.77319 6.2579 3.47521 6.2579 4.34119V9.04519C6.2579 9.91121 5.55587 10.6132 4.6899 10.6132H3.47034C2.60437 10.6132 1.90234 9.91121 1.90234 9.04519V4.34119Z" fill="url(#paint2_radial_208_2160)"/>
<path fill-rule="evenodd" clip-rule="evenodd" d="M11.9199 2.77319C12.1605 2.77319 12.3555 2.9682 12.3555 3.20875V7.5643C12.3555 7.80486 12.1605 7.99986 11.9199 7.99986C11.6794 7.99986 11.4844 7.80486 11.4844 7.5643V3.20875C11.4844 2.9682 11.6794 2.77319 11.9199 2.77319Z" fill="url(#paint3_radial_208_2160)"/>
<path fill-rule="evenodd" clip-rule="evenodd" d="M11.9199 11.4844C12.1605 11.4844 12.3555 11.6794 12.3555 11.9199V15.4044C12.3555 15.6449 12.1605 15.8399 11.9199 15.8399C11.6794 15.8399 11.4844 15.6449 11.4844 15.4044V11.9199C11.4844 11.6794 11.6794 11.4844 11.9199 11.4844Z" fill="url(#paint4_radial_208_2160)"/>
<path fill-rule="evenodd" clip-rule="evenodd" d="M9.74219 8.69691C9.74219 7.8309 10.4442 7.12891 11.3102 7.12891H12.5297C13.3958 7.12891 14.0977 7.8309 14.0977 8.69691V10.7876C14.0977 11.6536 13.3958 12.3556 12.5297 12.3556H11.3102C10.4442 12.3556 9.74219 11.6536 9.74219 10.7876V8.69691ZM11.3102 8.00002C10.9253 8.00002 10.6133 8.312 10.6133 8.69691V10.7876C10.6133 11.1725 10.9253 11.4845 11.3102 11.4845H12.5297C12.9146 11.4845 13.2266 11.1725 13.2266 10.7876V8.69691C13.2266 8.312 12.9146 8.00002 12.5297 8.00002H11.3102Z" fill="url(#paint5_radial_208_2160)"/>
<defs>
<radialGradient id="paint0_radial_208_2160" cx="0" cy="0" r="1" gradientUnits="userSpaceOnUse" gradientTransform="translate(3.64453 0.553317) rotate(70.9838) scale(3.4478 3.27965)">
<stop offset="0.2" stop-color="#6256E9"/>
<stop offset="0.935" stop-color="#D772D3"/>
</radialGradient>
<radialGradient id="paint1_radial_208_2160" cx="0" cy="0" r="1" gradientUnits="userSpaceOnUse" gradientTransform="translate(3.64453 10.2339) rotate(74.5857) scale(4.22659 3.34419)">
<stop offset="0.2" stop-color="#6256E9"/>
<stop offset="0.935" stop-color="#D772D3"/>
</radialGradient>
<radialGradient id="paint2_radial_208_2160" cx="0" cy="0" r="1" gradientUnits="userSpaceOnUse" gradientTransform="translate(1.90234 3.65835) rotate(52.5524) scale(9.23807 13.7702)">
<stop offset="0.2" stop-color="#6256E9"/>
<stop offset="0.935" stop-color="#D772D3"/>
</radialGradient>
<radialGradient id="paint3_radial_208_2160" cx="0" cy="0" r="1" gradientUnits="userSpaceOnUse" gradientTransform="translate(11.4844 3.3633) rotate(77.0602) scale(5.01686 3.38088)">
<stop offset="0.2" stop-color="#6256E9"/>
<stop offset="0.935" stop-color="#D772D3"/>
</radialGradient>
<radialGradient id="paint4_radial_208_2160" cx="0" cy="0" r="1" gradientUnits="userSpaceOnUse" gradientTransform="translate(11.4844 11.9761) rotate(74.5857) scale(4.22659 3.34419)">
<stop offset="0.2" stop-color="#6256E9"/>
<stop offset="0.935" stop-color="#D772D3"/>
</radialGradient>
<radialGradient id="paint5_radial_208_2160" cx="0" cy="0" r="1" gradientUnits="userSpaceOnUse" gradientTransform="translate(9.74219 7.71901) rotate(41.0384) scale(7.44704 11.388)">
<stop offset="0.2" stop-color="#6256E9"/>
<stop offset="0.935" stop-color="#D772D3"/>
</radialGradient>
</defs>
</svg>
