<svg width="16" height="16" viewBox="0 0 16 16" fill="none" xmlns="http://www.w3.org/2000/svg">
<path fill-rule="evenodd" clip-rule="evenodd" d="M6.8 0C3.04446 0 0 3.04446 0 6.80002C0 10.5555 3.04446 13.6 6.8 13.6C8.38949 13.6 9.85161 13.0546 11.0094 12.1408L14.6343 15.7657C14.9467 16.0781 15.4533 16.0781 15.7657 15.7657C16.0781 15.4533 16.0781 14.9467 15.7657 14.6343L12.1408 11.0094C13.0546 9.85161 13.6 8.3895 13.6 6.80002C13.6 3.04446 10.5555 0 6.8 0ZM1.6 6.80002C1.6 3.92811 3.92812 1.6 6.8 1.6C9.67185 1.6 12 3.92812 12 6.80002C12 9.67187 9.67185 12 6.8 12C3.92812 12 1.6 9.67187 1.6 6.80002Z" fill="#695682"/>
</svg>
