<svg width="16" height="16" viewBox="0 0 16 16" fill="none" xmlns="http://www.w3.org/2000/svg">
<g clip-path="url(#clip0_208_2136)">
<path d="M15.4967 5.20625C15.5967 5.47813 15.5123 5.78125 15.2967 5.975L13.9436 7.20625C13.9779 7.46563 13.9967 7.73125 13.9967 8C13.9967 8.26875 13.9779 8.53438 13.9436 8.79375L15.2967 10.025C15.5123 10.2188 15.5967 10.5219 15.4967 10.7937C15.3592 11.1656 15.1936 11.5219 15.0029 11.8656L14.8561 12.1187C14.6498 12.4625 14.4186 12.7875 14.1654 13.0938C13.9811 13.3188 13.6748 13.3937 13.3998 13.3062L11.6592 12.7531C11.2404 13.075 10.7779 13.3438 10.2842 13.5469L9.89356 15.3313C9.83106 15.6156 9.61231 15.8406 9.32481 15.8875C8.89356 15.9594 8.44981 15.9969 7.99669 15.9969C7.54356 15.9969 7.09981 15.9594 6.66856 15.8875C6.38106 15.8406 6.16231 15.6156 6.09981 15.3313L5.70919 13.5469C5.21544 13.3438 4.75294 13.075 4.33419 12.7531L2.59669 13.3094C2.32169 13.3969 2.01544 13.3188 1.83106 13.0969C1.57794 12.7906 1.34669 12.4656 1.14044 12.1219L0.993563 11.8687C0.802938 11.525 0.637313 11.1687 0.499813 10.7969C0.399813 10.525 0.484188 10.2219 0.699813 10.0281L2.05294 8.79688C2.01856 8.53438 1.99981 8.26875 1.99981 8C1.99981 7.73125 2.01856 7.46563 2.05294 7.20625L0.699813 5.975C0.484188 5.78125 0.399813 5.47813 0.499813 5.20625C0.637313 4.83438 0.802938 4.47813 0.993563 4.13438L1.14044 3.88125C1.34669 3.5375 1.57794 3.2125 1.83106 2.90625C2.01544 2.68125 2.32169 2.60625 2.59669 2.69375L4.33731 3.24688C4.75606 2.925 5.21856 2.65625 5.71231 2.45312L6.10294 0.66875C6.16544 0.384375 6.38419 0.159375 6.67169 0.1125C7.10294 0.0375 7.54669 0 7.99981 0C8.45294 0 8.89669 0.0375 9.32794 0.109375C9.61544 0.15625 9.83419 0.38125 9.89669 0.665625L10.2873 2.45C10.7811 2.65313 11.2436 2.92188 11.6623 3.24375L13.4029 2.69062C13.6779 2.60312 13.9842 2.68125 14.1686 2.90313C14.4217 3.20938 14.6529 3.53437 14.8592 3.87812L15.0061 4.13125C15.1967 4.475 15.3623 4.83125 15.4998 5.20312L15.4967 5.20625ZM7.99981 10.5C8.66285 10.5 9.29874 10.2366 9.76758 9.76777C10.2364 9.29893 10.4998 8.66304 10.4998 8C10.4998 7.33696 10.2364 6.70107 9.76758 6.23223C9.29874 5.76339 8.66285 5.5 7.99981 5.5C7.33677 5.5 6.70089 5.76339 6.23205 6.23223C5.7632 6.70107 5.49981 7.33696 5.49981 8C5.49981 8.66304 5.7632 9.29893 6.23205 9.76777C6.70089 10.2366 7.33677 10.5 7.99981 10.5Z" fill="#695682"/>
</g>
<defs>
<clipPath id="clip0_208_2136">
<rect width="16" height="16" fill="white" transform="matrix(1 0 0 -1 0 16)"/>
</clipPath>
</defs>
</svg>
