<svg width="19" height="14" viewBox="0 0 19 14" fill="none" xmlns="http://www.w3.org/2000/svg">
<g id="Group 15135">
<path id="Union" fill-rule="evenodd" clip-rule="evenodd" d="M2.8125 11.6875H4.6875C5.20605 11.6875 5.625 12.1064 5.625 12.625C5.625 13.1436 5.20605 13.5625 4.6875 13.5625H2.8125C1.25977 13.5625 0 12.3027 0 10.75V3.25C0 1.69727 1.25977 0.4375 2.8125 0.4375H4.6875C5.20605 0.4375 5.625 0.856445 5.625 1.375C5.625 1.89355 5.20605 2.3125 4.6875 2.3125H2.8125C2.29395 2.3125 1.875 2.73145 1.875 3.25V10.75C1.875 11.2686 2.29395 11.6875 2.8125 11.6875ZM9.5635 7.68C10.407 8.40337 11.2544 9.42721 11.8468 10.8525L10.5232 11.4375C9.48092 8.9295 7.47176 7.97108 6.625 7.68V6.195C7.47176 5.90392 9.48092 4.9455 10.5232 2.4375L11.8468 3.02247C11.2544 4.44779 10.407 5.47163 9.5635 6.195L18.625 6.195V7.68L9.5635 7.68Z" fill="url(#paint0_radial_1_2957)"/>
</g>
<defs>
<radialGradient id="paint0_radial_1_2957" cx="0" cy="0" r="1" gradientUnits="userSpaceOnUse" gradientTransform="translate(-1.71719e-07 1.91935) rotate(27.0752) scale(26.9757 33.7587)">
<stop offset="0.2" stop-color="#6256E9"/>
<stop offset="0.935" stop-color="#D772D3"/>
</radialGradient>
</defs>
</svg>
