<svg xmlns="http://www.w3.org/2000/svg" width="24" height="24" viewBox="0 0 24 24" fill="none">
  <path d="M12 11.0003C11.447 11.0003 11 10.5522 11 10.0002V3.00024C11 2.44824 11.447 2.00025 12 2.00025C12.553 2.00025 13 2.44824 13 3.00024V10.0002C13 10.5522 12.553 11.0003 12 11.0003ZM21 13.0002C21 9.80625 19.2759 6.8193 16.503 5.20631C16.025 4.9283 15.413 5.09015 15.1361 5.56715C14.858 6.04514 15.0201 6.65733 15.4971 6.93432C17.658 8.19132 19 10.5162 19 13.0002C19 16.8603 15.859 20.0003 12 20.0003C8.141 20.0003 4.99999 16.8603 4.99999 13.0002C4.99999 10.5162 6.34193 8.19132 8.50293 6.93432C8.98094 6.65733 9.14301 6.04415 8.86401 5.56715C8.58501 5.09015 7.97307 4.9263 7.49708 5.20631C4.72407 6.82031 3 9.80625 3 13.0002C3 17.9622 7.03699 22.0002 12 22.0002C16.963 22.0002 21 17.9622 21 13.0002Z" fill="#695682"/>
</svg>