<svg width="16" height="16" viewBox="0 0 16 16" fill="none" xmlns="http://www.w3.org/2000/svg">
<path d="M8.20002 7.20002C7.75761 7.20002 7.40001 6.84161 7.40001 6.40001V0.799994C7.40001 0.358393 7.75761 0 8.20002 0C8.64242 0 9.00002 0.358393 9.00002 0.799994V6.40001C9.00002 6.84161 8.64242 7.20002 8.20002 7.20002ZM15.4 8.80002C15.4 6.24482 14.0208 3.85525 11.8024 2.56485C11.42 2.34244 10.9304 2.47192 10.7089 2.85352C10.4864 3.23592 10.6161 3.72567 10.9977 3.94727C12.7264 4.95287 13.8001 6.81281 13.8001 8.80002C13.8001 11.8881 11.2873 14.4 8.20002 14.4C5.11281 14.4 2.6 11.8881 2.6 8.80002C2.6 6.81281 3.67355 4.95287 5.40236 3.94727C5.78476 3.72567 5.91442 3.23512 5.69122 2.85352C5.46802 2.47192 4.97847 2.34085 4.59767 2.56485C2.37926 3.85605 1 6.24482 1 8.80002C1 12.7696 4.2296 16 8.20002 16C12.1705 16 15.4 12.7696 15.4 8.80002Z" fill="url(#paint0_radial_208_2147)"/>
<defs>
<radialGradient id="paint0_radial_208_2147" cx="0" cy="0" r="1" gradientUnits="userSpaceOnUse" gradientTransform="translate(1 1.80645) rotate(38.8682) scale(23.8518 35.9854)">
<stop offset="0.2" stop-color="#6256E9"/>
<stop offset="0.935" stop-color="#D772D3"/>
</radialGradient>
</defs>
</svg>
