<svg width="16" height="16" viewBox="0 0 16 16" fill="none" xmlns="http://www.w3.org/2000/svg">
<path d="M3 0C2.44687 0 2 0.446875 2 1C2 1.55313 2.44687 2 3 2V2.34375C3 3.66875 3.52813 4.94063 4.46563 5.87813L6.58437 8L4.46563 10.1219C3.52813 11.0594 3 12.3313 3 13.6562V14C2.44687 14 2 14.4469 2 15C2 15.5531 2.44687 16 3 16H4H12H13C13.5531 16 14 15.5531 14 15C14 14.4469 13.5531 14 13 14V13.6562C13 12.3313 12.4719 11.0594 11.5344 10.1219L9.41563 8L11.5375 5.87813C12.475 4.94063 13.0031 3.66875 13.0031 2.34375V2C13.5563 2 14.0031 1.55313 14.0031 1C14.0031 0.446875 13.5563 0 13.0031 0H12H4H3ZM11 13.6562V14H5V13.6562C5 12.8594 5.31562 12.0969 5.87812 11.5344L8 9.41562L10.1219 11.5375C10.6844 12.1 11 12.8625 11 13.6594V13.6562Z" fill="url(#paint0_radial_482_2996)"/>
<defs>
<radialGradient id="paint0_radial_482_2996" cx="0" cy="0" r="1" gradientUnits="userSpaceOnUse" gradientTransform="translate(2 1.80645) rotate(44.0368) scale(21.5326 33.2262)">
<stop offset="0.2" stop-color="#6256E9"/>
<stop offset="0.935" stop-color="#D772D3"/>
</radialGradient>
</defs>
</svg>
