<svg width="16" height="16" viewBox="0 0 16 16" fill="none" xmlns="http://www.w3.org/2000/svg">
<path d="M2 1C0.896875 1 0 1.89688 0 3V13C0 14.1031 0.896875 15 2 15H14C15.1031 15 16 14.1031 16 13V6C16 4.89688 15.1031 4 14 4H2.5C2.225 4 2 3.775 2 3.5C2 3.225 2.225 3 2.5 3H14C14.5531 3 15 2.55313 15 2C15 1.44687 14.5531 1 14 1H2ZM13 8.5C13.2652 8.5 13.5196 8.60536 13.7071 8.79289C13.8946 8.98043 14 9.23478 14 9.5C14 9.76522 13.8946 10.0196 13.7071 10.2071C13.5196 10.3946 13.2652 10.5 13 10.5C12.7348 10.5 12.4804 10.3946 12.2929 10.2071C12.1054 10.0196 12 9.76522 12 9.5C12 9.23478 12.1054 8.98043 12.2929 8.79289C12.4804 8.60536 12.7348 8.5 13 8.5Z" fill="url(#paint0_radial_590_3790)"/>
<defs>
<radialGradient id="paint0_radial_590_3790" cx="0" cy="0" r="1" gradientUnits="userSpaceOnUse" gradientTransform="translate(-1.47517e-07 2.58064) rotate(32.4039) scale(24.4396 34.1442)">
<stop offset="0.2" stop-color="#6256E9"/>
<stop offset="0.935" stop-color="#D772D3"/>
</radialGradient>
</defs>
</svg>
