<svg clip-rule="evenodd" fill-rule="evenodd" stroke-linejoin="round" stroke-miterlimit="2" viewBox="0 0 500 500" xmlns="http://www.w3.org/2000/svg" xmlns:xlink="http://www.w3.org/1999/xlink"><radialGradient id="a" cx="0" cy="0" gradientTransform="matrix(-198.219 198.219 -198.219 -198.219 250 25)" gradientUnits="userSpaceOnUse" r="1"><stop offset="0" stop-color="#2ca9b7"/><stop offset="1" stop-color="#2ca9b7" stop-opacity="0"/></radialGradient><g fill="url(#a)" transform="matrix(.70710805 .70710805 -.70710805 .70710805 249.948112 -103.600566)"><path d="m254.23 499.965c-1.418.023-2.823.035-4.23.035s-2.812-.012-4.23-.035zm-4.23-499.965c13.798 0 25 11.202 25 25s-11.202 25-25 25c-110.383 0-200 89.617-200 200h-50c0-137.979 112.021-250 250-250z" transform="matrix(-1 0 0 -1 500 500)"/><path d="m254.23 499.965c-1.418.023-2.823.035-4.23.035s-2.812-.012-4.23-.035zm-4.23-499.965c13.798 0 25 11.202 25 25s-11.202 25-25 25c-110.383 0-200 89.617-200 200h-50c0-137.979 112.021-250 250-250z" transform="matrix(0 1 -1 0 500 0)"/><path d="m254.23 499.965c-1.418.023-2.823.035-4.23.035s-2.812-.012-4.23-.035zm-4.23-499.965c13.798 0 25 11.202 25 25s-11.202 25-25 25c-110.383 0-200 89.617-200 200h-50c0-137.979 112.021-250 250-250z"/><path d="m254.23 499.965c-1.418.023-2.823.035-4.23.035s-2.812-.012-4.23-.035zm-4.23-499.965c13.798 0 25 11.202 25 25s-11.202 25-25 25c-110.383 0-200 89.617-200 200h-50c0-137.979 112.021-250 250-250z" transform="matrix(0 -1 1 0 0 500)"/></g><path d="m37.558 25h-.109c6.927 0 12.551-5.624 12.551-12.551v-.007c0-6.867-5.575-12.442-12.442-12.442h-37.558v50h37.449c6.927 0 12.551-5.624 12.551-12.551v-.007c0-6.867-5.575-12.442-12.442-12.442zm5.442 11.526c0-4.706-3.82-8.526-8.526-8.526h-27.474v17h27.526c4.677 0 8.474-3.797 8.474-8.474zm0-22.499c0-4.982-4.045-9.027-9.027-9.027h-26.973v18h27.027c4.952 0 8.973-4.021 8.973-8.973z" fill="#fff" transform="matrix(3.38000406 0 0 3.38000406 173.946345 165.453355)"/></svg>