<svg viewBox="0 0 11 24" xmlns="http://www.w3.org/2000/svg" fill-rule="evenodd" clip-rule="evenodd" stroke-linejoin="round" stroke-miterlimit="2"><path d="M10.88 15.124c0-2.675-.88-3.874-3.98-4.949-2.47-.925-2.85-1.35-2.85-2.5v-.1c0-.817.66-1.491 1.48-1.5a1.65 1.65 0 011.62 1.55h3.15c-.07-2.125-1.4-3.974-3.1-4.3V0H4.03v3.325a4.333 4.333 0 00-3.3 4.548 4.486 4.486 0 003.22 4.5c.92.27 1.8.648 2.63 1.125.64.343 1.02 1.029.97 1.75v.03c0 1.122-.92 2.045-2.05 2.045l-.05-.001h-.02a2.09 2.09 0 01-2.08-2.08v-.069H0v.325a5.061 5.061 0 004.03 4.748v3.3H7.2v-3.3c2.28-.606 3.84-2.764 3.68-5.122z" fill="#32c9a4"/></svg>