<svg width="25" height="24" viewBox="0 0 25 24" fill="none" xmlns="http://www.w3.org/2000/svg">
<circle cx="12.7096" cy="11.9991" r="11.9991" fill="#EFF0F6"/>
<path d="M13.6665 13.3027C13.4083 13.4906 13.0904 13.6015 12.7467 13.6015L12.7466 20.7307C14.5826 20.7307 16.3715 20.1494 17.8569 19.0703L13.6665 13.3027Z" fill="#43576B"/>
<path d="M13.6665 13.3027C13.4083 13.4906 13.0904 13.6015 12.7467 13.6015L12.7466 20.7307C14.5826 20.7307 16.3715 20.1494 17.8569 19.0703L13.6665 13.3027Z" stroke="#43576B"/>
<path d="M12.747 13.6016C12.4032 13.6015 12.0853 13.4907 11.8271 13.3027L7.63672 19.0703C9.12209 20.1495 10.911 20.7308 12.747 20.7308L12.747 13.6016Z" fill="#386572"/>
<path d="M12.747 13.6016C12.4032 13.6015 12.0853 13.4907 11.8271 13.3027L7.63672 19.0703C9.12209 20.1495 10.911 20.7308 12.747 20.7308L12.747 13.6016Z" stroke="#386572"/>
<path d="M11.8272 13.3029C11.5631 13.1107 11.3615 12.8378 11.2584 12.5205L4.47852 14.7234C5.04588 16.4696 6.15147 17.9913 7.63685 19.0705L11.8272 13.3029Z" fill="#2D737A"/>
<path d="M11.8272 13.3029C11.5631 13.1107 11.3615 12.8378 11.2584 12.5205L4.47852 14.7234C5.04588 16.4696 6.15147 17.9913 7.63685 19.0705L11.8272 13.3029Z" stroke="#2D737A"/>
<path d="M4.47875 9.3501C3.91138 11.0963 3.91138 12.9772 4.47874 14.7234L11.2587 12.5204C11.2092 12.3681 11.1825 12.2055 11.1825 12.0367C11.1825 11.8679 11.2092 11.7054 11.2587 11.553L4.47875 9.3501Z" fill="#228181"/>
<path d="M4.47875 9.3501C3.91138 11.0963 3.91138 12.9772 4.47874 14.7234L11.2587 12.5204C11.2092 12.3681 11.1825 12.2055 11.1825 12.0367C11.1825 11.8679 11.2092 11.7054 11.2587 11.553L4.47875 9.3501Z" stroke="#228181"/>
<path d="M7.63685 5.00342C6.15148 6.0826 5.04588 7.60433 4.47852 9.35049L11.2584 11.5534C11.3615 11.2361 11.5631 10.9632 11.8272 10.771L7.63685 5.00342Z" fill="#169088"/>
<path d="M7.63685 5.00342C6.15148 6.0826 5.04588 7.60433 4.47852 9.35049L11.2584 11.5534C11.3615 11.2361 11.5631 10.9632 11.8272 10.771L7.63685 5.00342Z" stroke="#169088"/>
<path d="M12.747 3.34277C10.911 3.34277 9.12209 3.92402 7.63672 5.0032L11.8271 10.7708C12.0853 10.5828 12.4032 10.472 12.747 10.472V3.34277Z" fill="#0C9D90"/>
<path d="M12.747 3.34277C10.911 3.34277 9.12209 3.92402 7.63672 5.0032L11.8271 10.7708C12.0853 10.5828 12.4032 10.472 12.747 10.472V3.34277Z" stroke="#0C9D90"/>
<path d="M12.7461 3.34277C14.583 3.34263 16.3727 3.92429 17.8585 5.00429L13.667 10.7709C13.4087 10.5829 13.0907 10.472 12.7468 10.472L12.7461 3.34277Z" fill="#00AC97"/>
<path d="M12.7461 3.34277C14.583 3.34263 16.3727 3.92429 17.8585 5.00429L13.667 10.7709C13.4087 10.5829 13.0907 10.472 12.7468 10.472L12.7461 3.34277Z" stroke="#00AC97"/>
</svg>
