<svg id="Layer_1" data-name="Layer 1" xmlns="http://www.w3.org/2000/svg" viewBox="0 0 512 512"><defs><style>.cls-1{fill:#f95f0c;}</style></defs><path class="cls-1" d="M353.53,73c-39.72-31.8-82.17-42.92-126.16-33.1C83,72.27,43.23,281.67,42.85,283.74c-.26,1.3-25,130.1,93.07,173.19A311.73,311.73,0,0,0,243.3,475.55c72.69,0,131.1-23.5,152.33-33.34,31.48-14.6,75.83-64.49,75.84-129.71C471.48,251.69,430.5,134.6,353.53,73Zm46.26,165s13.54,103.32-45.64,158c-83,76.67-280.86-33.68-254.95-141.8C117.92,176,233,132.42,233,132.42S385.69,67.85,399.79,238Zm14.93-76.35a249,249,0,0,0-22.91-44.43c46.45,59.41,76.33,141.73,76.32,195.31,0,30.8-10.09,58.08-24,79.67,32-75.7-29.41-230.55-29.41-230.55ZM228.1,43.14a137.72,137.72,0,0,1,30-3.38,134,134,0,0,1,58.16,13.51,110.89,110.89,0,0,0-69-2.26c-76,21.66-153.95,102.53-188.13,185C80.09,172.14,129.26,65.3,228.1,43.14Zm-91,410.7c-51.25-18.75-75-54-85.47-87.56,37.89,74.41,192.31,112.48,297.57,89.88-50,15.13-129.07,28-212.1-2.33Z"/></svg>