<svg viewBox="0 0 403 389" xmlns="http://www.w3.org/2000/svg" fill-rule="evenodd" clip-rule="evenodd" stroke-linejoin="round" stroke-miterlimit="2"><path d="M699.5 661c9.107 0 16.5 7.393 16.5 16.5s-7.393 16.5-16.5 16.5-16.5-7.393-16.5-16.5 7.393-16.5 16.5-16.5zm-70.5-6c8.279 0 15 6.721 15 15s-6.721 15-15 15-15-6.721-15-15 6.721-15 15-15zm138.5-15c9.659 0 17.5 7.841 17.5 17.5 0 9.659-7.841 17.5-17.5 17.5-9.659 0-17.5-7.841-17.5-17.5 0-9.659 7.841-17.5 17.5-17.5zM670 611c12.142 0 22 9.858 22 22s-9.858 22-22 22-22-9.858-22-22 9.858-22 22-22zm-104 11c7.727 0 14 6.273 14 14s-6.273 14-14 14-14-6.273-14-14 6.273-14 14-14zm159-17c12.142 0 22 9.858 22 22s-9.858 22-22 22-22-9.858-22-22 9.858-22 22-22zm-107-10c12.142 0 22 9.858 22 22s-9.858 22-22 22-22-9.858-22-22 9.858-22 22-22zm204 0c11.038 0 20 8.962 20 20s-8.962 20-20 20-20-8.962-20-20 8.962-20 20-20zm-50-13.5c12.142 0 22 9.858 22 22s-9.858 22-22 22-22-9.858-22-22 9.858-22 22-22zM574 561c12.142 0 22 9.858 22 22s-9.858 22-22 22-22-9.858-22-22 9.858-22 22-22zm-55.5 6c6.899 0 12.5 5.601 12.5 12.5s-5.601 12.5-12.5 12.5-12.5-5.601-12.5-12.5 5.601-12.5 12.5-12.5zM805 540.5c12.142 0 22 9.858 22 22s-9.858 22-22 22-22-9.858-22-22 9.858-22 22-22zm52-4.5c11.038 0 20 8.962 20 20s-8.962 20-20 20-20-8.962-20-20 8.962-20 20-20zm-312-24c12.142 0 22 9.858 22 22s-9.858 22-22 22-22-9.858-22-22 9.858-22 22-22zm51.82 17.82c4.967 0 9 4.033 9 9s-4.033 9-9 9-9-4.033-9-9 4.033-9 9-9zM821.5 494.5c11.314 0 20.5 9.186 20.5 20.5s-9.186 20.5-20.5 20.5S801 526.314 801 515s9.186-20.5 20.5-20.5zM495 499c6.071 0 11 4.929 11 11s-4.929 11-11 11-11-4.929-11-11 4.929-11 11-11zm88-9c6.071 0 11 4.929 11 11s-4.929 11-11 11-11-4.929-11-11 4.929-11 11-11zm284-19c11.038 0 20 8.962 20 20s-8.962 20-20 20-20-8.962-20-20 8.962-20 20-20zm-330-16c11.866 0 21.5 9.634 21.5 21.5S548.866 498 537 498s-21.5-9.634-21.5-21.5S525.134 455 537 455zm281.5-10c11.314 0 20.5 9.186 20.5 20.5s-9.186 20.5-20.5 20.5-20.5-9.186-20.5-20.5 9.186-20.5 20.5-20.5zM584 447c6.899 0 12.5 5.601 12.5 12.5S590.899 472 584 472s-12.5-5.601-12.5-12.5S577.101 447 584 447zm268-41c11.59 0 21 9.41 21 21s-9.41 21-21 21-21-9.41-21-21 9.41-21 21-21zm-352.5 19c5.243 0 9.5 4.257 9.5 9.5s-4.257 9.5-9.5 9.5-9.5-4.257-9.5-9.5 4.257-9.5 9.5-9.5zM799 402c10.762 0 19.5 8.738 19.5 19.5S809.762 441 799 441s-19.5-8.738-19.5-19.5S788.238 402 799 402zm-248-5c11.866 0 21.5 9.634 21.5 21.5S562.866 440 551 440s-21.5-9.634-21.5-21.5S539.134 397 551 397zm49.5 9.5c8.003 0 14.5 6.497 14.5 14.5s-6.497 14.5-14.5 14.5S586 429.003 586 421s6.497-14.5 14.5-14.5zm162.5-37c10.486 0 19 8.514 19 19s-8.514 19-19 19-19-8.514-19-19 8.514-19 19-19zM632 375c8.555 0 15.5 6.945 15.5 15.5S640.555 406 632 406s-15.5-6.945-15.5-15.5S623.445 375 632 375zm182.5-23c11.866 0 21.5 9.634 21.5 21.5s-9.634 21.5-21.5 21.5-21.5-9.634-21.5-21.5 9.634-21.5 21.5-21.5zm-228-3c11.866 0 21.5 9.634 21.5 21.5s-9.634 21.5-21.5 21.5-21.5-9.634-21.5-21.5 9.634-21.5 21.5-21.5zm87.5 7c9.383 0 17 7.617 17 17s-7.617 17-17 17-17-7.617-17-17 7.617-17 17-17zm46.5-2c9.934 0 18 8.066 18 18s-8.066 18-18 18-18-8.066-18-18 8.066-18 18-18zm-189 5c4.139 0 7.5 3.361 7.5 7.5 0 4.139-3.361 7.5-7.5 7.5a7.504 7.504 0 01-7.5-7.5c0-4.139 3.361-7.5 7.5-7.5zm229-43c11.866 0 21.5 9.634 21.5 21.5s-9.634 21.5-21.5 21.5-21.5-9.634-21.5-21.5 9.634-21.5 21.5-21.5zm-123 0c11.866 0 21.5 9.634 21.5 21.5s-9.634 21.5-21.5 21.5-21.5-9.634-21.5-21.5 9.634-21.5 21.5-21.5zm62-11c11.866 0 21.5 9.634 21.5 21.5s-9.634 21.5-21.5 21.5-21.5-9.634-21.5-21.5 9.634-21.5 21.5-21.5z" fill="url(#_Radial1)" transform="translate(-484 -305)"/><defs><radialGradient id="_Radial1" cx="0" cy="0" r="1" gradientUnits="userSpaceOnUse" gradientTransform="matrix(201.5 0 0 194.5 685.5 499.5)"><stop offset="0" stop-color="#9d4df1"/><stop offset=".09" stop-color="#518dda"/><stop offset=".21" stop-color="#15c1c8"/><stop offset=".63" stop-color="#00d3c2"/><stop offset="1" stop-color="#9d4df1"/></radialGradient></defs></svg>