<svg width="100%" height="100%" viewBox="0 0 40 38" version="1.1" xmlns="http://www.w3.org/2000/svg" xmlns:xlink="http://www.w3.org/1999/xlink" xml:space="preserve" xmlns:serif="http://www.serif.com/" style="fill-rule:evenodd;clip-rule:evenodd;stroke-linejoin:round;stroke-miterlimit:2;">
    <g transform="matrix(1,0,0,1,-3.9998,-5)">
        <path d="M25.278,42.955C24.757,42.955 24.319,42.552 24.281,42.025C24.242,41.474 24.657,40.996 25.208,40.957C26.15,40.891 27.091,40.745 28.005,40.525C28.54,40.396 29.082,40.726 29.212,41.263C29.342,41.8 29.011,42.34 28.474,42.47C27.453,42.716 26.402,42.879 25.349,42.953C25.325,42.954 25.301,42.955 25.278,42.955ZM20.307,42.621C20.239,42.621 20.171,42.614 20.102,42.6C19.07,42.385 18.05,42.08 17.069,41.697C16.555,41.495 16.301,40.915 16.503,40.401C16.705,39.887 17.286,39.634 17.799,39.835C18.675,40.178 19.588,40.45 20.51,40.643C21.051,40.756 21.398,41.286 21.285,41.826C21.187,42.296 20.771,42.621 20.307,42.621ZM32.875,40.665C32.527,40.665 32.188,40.483 32.004,40.159C31.732,39.679 31.9,39.069 32.38,38.796C33.199,38.331 33.985,37.794 34.716,37.199C35.145,36.85 35.775,36.915 36.123,37.344C36.472,37.773 36.406,38.403 35.978,38.751C35.161,39.415 34.283,40.015 33.367,40.535C33.211,40.623 33.042,40.665 32.875,40.665ZM13.091,39.319C12.88,39.319 12.666,39.252 12.485,39.114C11.812,38.6 11.166,38.035 10.565,37.435C10.421,37.291 10.279,37.144 10.14,36.996C9.761,36.594 9.781,35.961 10.182,35.582C10.585,35.204 11.217,35.223 11.596,35.624C11.722,35.758 11.85,35.89 11.979,36.02C12.517,36.557 13.095,37.063 13.699,37.523C14.138,37.858 14.222,38.486 13.887,38.925C13.69,39.184 13.392,39.319 13.091,39.319ZM38.744,35.328C38.546,35.328 38.345,35.269 38.171,35.146C37.719,34.829 37.609,34.205 37.927,33.753C38.469,32.981 38.949,32.158 39.354,31.309C39.593,30.81 40.191,30.6 40.687,30.837C41.186,31.075 41.397,31.672 41.16,32.17C40.707,33.119 40.17,34.039 39.564,34.901C39.369,35.179 39.059,35.328 38.744,35.328ZM7.994,33.24C7.632,33.24 7.282,33.043 7.104,32.698C6.711,31.936 6.367,31.14 6.081,30.331C5.897,29.81 6.17,29.239 6.69,29.055C7.209,28.869 7.782,29.144 7.966,29.664C8.222,30.388 8.529,31.1 8.881,31.781C9.134,32.272 8.942,32.875 8.451,33.128C8.305,33.205 8.148,33.24 7.994,33.24ZM41.754,27.987C41.699,27.987 41.644,27.983 41.588,27.973C41.043,27.882 40.675,27.367 40.766,26.822C40.921,25.896 41,24.947 41,24C41,23.448 41.448,23 42,23C42.552,23 43,23.448 43,24C43,25.057 42.913,26.117 42.74,27.151C42.658,27.641 42.234,27.987 41.754,27.987Z" style="fill:rgb(1,0,42);fill-rule:nonzero;"/>
        <path d="M42,25C41.448,25 41,24.552 41,24C41,19.459 39.232,15.19 36.021,11.979C32.81,8.768 28.541,7 24,7C19.459,7 15.19,8.768 11.979,11.979C10.192,13.767 8.805,15.964 7.967,18.333C7.783,18.854 7.208,19.127 6.691,18.943C6.17,18.759 5.897,18.188 6.081,17.667C7.017,15.019 8.567,12.563 10.564,10.565C14.153,6.976 18.925,5 24,5C29.075,5 33.847,6.976 37.435,10.565C41.024,14.153 43,18.925 43,24C43,24.552 42.552,25 42,25Z" style="fill:rgb(1,0,42);fill-rule:nonzero;"/>
        <path d="M6,20C5.793,20 5.589,19.936 5.418,19.813C5.187,19.648 5.037,19.392 5.006,19.11L4.006,10.11C3.945,9.562 4.341,9.067 4.89,9.006C5.435,8.944 5.933,9.34 5.994,9.89L6.871,17.783L14.784,16.025C15.32,15.907 15.857,16.245 15.977,16.784C16.097,17.323 15.757,17.857 15.218,17.977L6.218,19.977C6.145,19.992 6.072,20 6,20Z" style="fill:rgb(1,0,42);fill-rule:nonzero;"/>
    </g>
</svg>
