
<svg version="1.1" xmlns:xlink="http://www.w3.org/1999/xlink" xml:space="preserve" xmlns:serif="http://www.serif.com/" style="fill-rule:evenodd;clip-rule:evenodd;stroke-linejoin:round;stroke-miterlimit:2;"
	 viewBox="0 0 48 48" enable-background="new 0 0 48 48" >
<switch>
	<g i:extraneous="self">
		<g id="Layer_1">
		</g>
		<g id="right-rotate">
		</g>
		<g id="left-rotate">
		</g>
		<g id="share-down">
		</g>
		<g id="share-top">
		</g>
		<g id="share-both">
		</g>
		<g id="share-top-right">
		</g>
		<g id="share-top-left">
		</g>
		<g id="share-right-down">
		</g>
		<g id="share-left-down">
		</g>
		<g id="recycle-arw">
		</g>
		<g id="verticle-hidden-arw">
		</g>
		<g id="horizontal-arw">
		</g>
		<g id="verticle-arw">
		</g>
		<g id="connection-arw-r">
		</g>
		<g id="connection-arw-l">
		</g>
		<g id="connection-arw">
		</g>
		<g id="hook-left-arw">
		</g>
		<g id="clock-arw">
		</g>
		<g id="anti-clock-arw">
			<g>
				<g>
					<path fill="rgb(1,0,42)" d="M24.001,42.523c-6.966,0-13.275-3.856-16.466-10.064c-0.252-0.491-0.059-1.094,0.433-1.347
						c0.492-0.254,1.094-0.058,1.347,0.433c2.846,5.538,8.474,8.979,14.687,8.979c9.111,0,16.524-7.412,16.524-16.523
						S33.113,7.477,24.001,7.477c-8.771,0-16.008,6.865-16.478,15.63c-0.029,0.552-0.488,0.976-1.052,0.945
						c-0.551-0.03-0.975-0.501-0.945-1.053c0.526-9.825,8.641-17.522,18.475-17.522c10.214,0,18.524,8.31,18.524,18.523
						S34.216,42.523,24.001,42.523z"/>
				</g>
			</g>
			<g>
				<g>
					<path fill="rgb(1,0,42)" d="M7,25c-0.25,0-0.5-0.094-0.694-0.28l-5-4.819c-0.398-0.383-0.409-1.016-0.026-1.414
						c0.383-0.396,1.017-0.409,1.414-0.025l4.33,4.173l4.668-4.197c0.411-0.368,1.043-0.336,1.412,0.075
						c0.369,0.411,0.335,1.043-0.075,1.413l-5.361,4.819C7.478,24.915,7.239,25,7,25z"/>
				</g>
			</g>
		</g>
		<g id="infinity">
		</g>
		<g id="sing-sang-arw">
		</g>
		<g id="anti-reload">
		</g>
		<g id="reload">
		</g>
		<g id="double-arrow">
		</g>
		<g id="single-circle-arw">
		</g>
		<g id="circle-arw">
		</g>
		<g id="two-side-bend-arw">
		</g>
		<g id="left-blend-arw">
		</g>
		<g id="right-blend-arw">
		</g>
		<g id="round-extand">
		</g>
		<g id="round-close-arrow">
		</g>
		<g id="pluse-arrow">
		</g>
		<g id="crose-arrow">
		</g>
		<g id="corn-arrow">
		</g>
		<g id="side-arrow">
		</g>
		<g id="close-arrow-four">
		</g>
		<g id="stretch-arrow">
		</g>
		<g id="_x33__x2F_1-arrow">
		</g>
		<g id="_x32__x2F_1-arrow">
		</g>
		<g id="left-crose-rd">
		</g>
		<g id="left-crose-arrow">
		</g>
		<g id="left-top_arrows">
		</g>
		<g id="close-arrows">
		</g>
		<g id="extand-arrow">
		</g>
		<g id="parallel-arrows">
		</g>
		<g id="two-side_arrows">
		</g>
		<g id="right-arrows">
		</g>
		<g id="down-arrow-3">
		</g>
		<g id="top-arrow-3">
		</g>
		<g id="right-arrow-3">
		</g>
		<g id="left-arrow-3">
		</g>
		<g id="left-arrow-2">
		</g>
		<g id="right-arrow-2">
		</g>
		<g id="down-arrow-2">
		</g>
		<g id="top-arrow-2">
		</g>
		<g id="down-arrow-1">
		</g>
		<g id="top-arrow-1">
		</g>
		<g id="rightarrow-1">
		</g>
		<g id="left-arrow-1">
		</g>
		<g id="down-play">
		</g>
		<g id="top-play">
		</g>
		<g id="right-play">
		</g>
		<g id="left-play">
		</g>
		<g id="down-arrow">
		</g>
		<g id="top-arrow">
		</g>
		<g id="right-arrow">
		</g>
		<g id="left-arrow">
		</g>
		<g id="channel">
		</g>
		<g id="stop_1_">
		</g>
		<g id="music-control">
		</g>
		<g id="adjust-lavel">
		</g>
		<g id="adjustsound">
		</g>
		<g id="graph-point">
		</g>
		<g id="symbol">
		</g>
		<g id="visual-graph">
		</g>
		<g id="visual">
		</g>
		<g id="adjust">
		</g>
		<g id="controal-4">
		</g>
		<g id="control-3">
		</g>
		<g id="control-2">
		</g>
		<g id="control_1_">
		</g>
		<g id="control">
		</g>
		<g id="volume-increase">
		</g>
		<g id="volume">
		</g>
		<g id="volume-close">
		</g>
		<g id="volume-minus">
		</g>
		<g id="volume-pluse">
		</g>
		<g id="block">
		</g>
		<g id="sound">
		</g>
		<g id="play-backward">
		</g>
		<g id="backward">
		</g>
		<g id="play">
		</g>
		<g id="hold">
		</g>
		<g id="stop">
		</g>
		<g id="pause">
		</g>
		<g id="forward">
		</g>
		<g id="play-forward">
		</g>
		<g id="top-bottom-arrow">
		</g>
		<g id="hook-right-arw">
		</g>
	</g>
</switch>
</svg>
