<svg version="1.0" xmlns="http://www.w3.org/2000/svg"
 width="178.000000pt" height="176.000000pt" viewBox="0 0 178.000000 176.000000"
 preserveAspectRatio="xMidYMid meet">

<g transform="translate(0.000000,176.000000) scale(0.100000,-0.100000)"
fill="#2E0BA1" stroke="#00FF00" backround="red">
<path d="M0 880 l0 -880 890 0 890 0 0 880 0 880 -890 0 -890 0 0 -880z m1300
205 l0 -295 -145 0 -145 0 0 141 0 141 -39 -49 c-115 -143 -250 -219 -424
-238 l-58 -7 3 149 3 148 48 7 c132 19 257 149 257 268 l0 30 250 0 250 0 0
-295z m0 -565 l0 -150 -405 0 -405 0 0 150 0 150 405 0 405 0 0 -150z"/>
</g>
</svg>
