<svg viewBox="0 0 16 16" xmlns="http://www.w3.org/2000/svg" fill-rule="evenodd" clip-rule="evenodd" stroke-linejoin="round" stroke-miterlimit="2"><path d="M16 8c0 4.389-3.611 8-8 8-4.389 0-8-3.611-8-8 0-4.389 3.611-8 8-8 4.389 0 8 3.611 8 8zM8 5c-.357 0-.688.191-.867.5a1 1 0 11-1.731-1A3.003 3.003 0 018 3c1.646 0 3 1.354 3 3a3.007 3.007 0 01-2 2.83V9c0 .549-.451 1-1 1-.549 0-1-.451-1-1V8c0-.549.451-1 1-1 .549 0 1-.451 1-1 0-.549-.451-1-1-1zm0 8c.549 0 1-.451 1-1 0-.549-.451-1-1-1-.549 0-1 .451-1 1 0 .549.451 1 1 1z" fill="currentcolor"/></svg>