<?xml version="1.0" encoding="UTF-8" standalone="no"?>
<!DOCTYPE svg PUBLIC "-//W3C//DTD SVG 1.1//EN" "http://www.w3.org/Graphics/SVG/1.1/DTD/svg11.dtd">
<svg width="100%" height="100%" viewBox="0 0 40 20" version="1.1" xmlns="http://www.w3.org/2000/svg" xmlns:xlink="http://www.w3.org/1999/xlink" xml:space="preserve" xmlns:serif="http://www.serif.com/" style="fill-rule:evenodd;clip-rule:evenodd;stroke-linejoin:round;stroke-miterlimit:2;">
    <g transform="matrix(1,0,0,1,-6.85684e-07,-18.0139)">
        <g transform="matrix(-1,0,0,1,46.9995,-5.463)">
            <g>
                <path d="M23.999,43C16.709,43 10.07,38.7 7.088,32.046C6.861,31.542 7.087,30.95 7.591,30.725C8.096,30.499 8.687,30.725 8.912,31.228C11.573,37.164 17.495,41 23.999,41C32.77,41 40.007,34.134 40.477,25.369C40.507,24.817 40.984,24.389 41.53,24.424C42.082,24.454 42.505,24.925 42.475,25.477C41.947,35.303 33.832,43 23.999,43Z" style="fill:rgb(44,169,183);fill-rule:nonzero;"/>
                <path d="M35.64,30.296C35.367,30.296 35.094,30.185 34.897,29.965C34.527,29.554 34.561,28.922 34.971,28.553L40.331,23.734C40.721,23.383 41.315,23.392 41.694,23.757L46.694,28.576C47.091,28.959 47.103,29.592 46.719,29.99C46.336,30.388 45.703,30.399 45.305,30.015L40.976,25.842L36.308,30.038C36.117,30.211 35.878,30.296 35.64,30.296Z" style="fill:rgb(44,169,183);fill-rule:nonzero;"/>
            </g>
        </g>
    </g>
</svg>
