<svg viewBox="0 0 38 30" xmlns="http://www.w3.org/2000/svg" fill-rule="evenodd" clip-rule="evenodd" stroke-linejoin="round" stroke-miterlimit="2"><path d="M36.199 29.339H.805A.808.808 0 010 28.534c0-.441.364-.804.805-.804h35.394c.44 0 .805.363.805.804a.809.809 0 01-.805.805zM36.199 19.308c-3.53 0-5.122-4.777-6.662-9.4-1.36-4.08-2.768-8.3-5.136-8.3-2.37 0-3.777 4.218-5.14 8.3-1.54 4.62-3.13 9.4-6.66 9.4-3.53 0-5.12-4.777-6.66-9.4-1.359-4.08-2.763-8.3-5.131-8.3A.808.808 0 01.005.804C.005.363.37 0 .81 0c3.527 0 5.118 4.777 6.656 9.4 1.361 4.08 2.767 8.3 5.135 8.3s3.776-4.217 5.137-8.3C19.278 4.779 20.87 0 24.4 0c3.53 0 5.12 4.777 6.66 9.4 1.36 4.08 2.769 8.3 5.138 8.3.44 0 .804.363.804.804a.808.808 0 01-.804.804z" fill="currrentcolor"/><path d="M18.499 15.93c-4.87 0-7.24-3.791-9.53-7.455-2.154-3.446-4.187-6.7-8.164-6.7A.808.808 0 010 .97C0 .529.364.166.805.166c4.87 0 7.237 3.791 9.527 7.456 2.156 3.445 4.19 6.7 8.167 6.7 3.977 0 6.011-3.255 8.167-6.7C28.955 3.957 31.325.166 36.194.166c.44 0 .805.363.805.804a.809.809 0 01-.805.805c-3.978 0-6.012 3.254-8.166 6.7-2.29 3.664-4.658 7.455-9.53 7.455zM1.617 28.535h-.008a.804.804 0 01-.8-.8v-.805c0-.441.363-.804.804-.804.44 0 .804.363.804.804v.805c0 .439-.361.8-.8.8zM6.442 28.535h-.009a.804.804 0 01-.8-.8v-.805c0-.441.364-.804.804-.804.442 0 .805.363.805.804v.805c0 .439-.362.8-.8.8zM11.264 28.535h-.004a.804.804 0 01-.8-.8v-.805c0-.441.362-.804.804-.804.442 0 .805.363.805.804v.8a.808.808 0 01-.805.805zM16.096 28.535h-.01a.804.804 0 01-.8-.8v-.805c0-.441.363-.804.805-.804.442 0 .805.363.805.804v.805c0 .439-.362.8-.8.8zM20.92 28.535h-.007a.804.804 0 01-.8-.8v-.805c0-.441.363-.804.804-.804.44 0 .804.363.804.804v.805c0 .439-.361.8-.8.8zM25.742 28.535h-.008a.804.804 0 01-.8-.8v-.805c0-.441.363-.804.804-.804.44 0 .804.363.804.804v.805c0 .439-.361.8-.8.8zM30.572 28.535h-.008a.804.804 0 01-.8-.8v-.805c0-.441.363-.804.805-.804.44 0 .804.363.804.804v.805c0 .439-.361.8-.8.8zM35.394 28.535h-.005a.808.808 0 01-.804-.805v-.8c0-.441.362-.804.804-.804.442 0 .805.363.805.804v.805c0 .439-.362.8-.8.8z" fill="currrentcolor"/></svg>