<svg viewBox="0 0 35 38" xmlns="http://www.w3.org/2000/svg" fill-rule="evenodd" clip-rule="evenodd" stroke-linejoin="round" stroke-miterlimit="2"><path d="M23.069 10.398H7.16h-.001a.798.798 0 01-.765-1.013l1.59-5.569a.801.801 0 01.765-.577h3.182v-.056A3.197 3.197 0 0115.114 0a3.198 3.198 0 013.183 3.183l-.001.056h3.181a.802.802 0 01.766.577l1.592 5.57a.804.804 0 01-.766 1.013zM8.214 8.808h13.8L20.878 4.83H17.5a.804.804 0 01-.795-.795v-.8c0-.873-.718-1.59-1.591-1.59s-1.591.717-1.591 1.59v.8a.804.804 0 01-.8.795H9.345L8.214 8.807z" fill="currentcolor"/><path d="M25.455 37.445H3.182A3.2 3.2 0 010 34.263V7.216a3.2 3.2 0 013.182-3.18h4.772v1.59H3.182a1.6 1.6 0 00-1.591 1.59v27.047a1.6 1.6 0 001.591 1.591h22.273v1.591zM30.228 19.944h-1.591V7.216a1.6 1.6 0 00-1.591-1.59h-4.773v-1.59h4.773a3.2 3.2 0 013.182 3.18v12.728z" fill="currentcolor"/><path fill="currentcolor" d="M7.954 15.171h5.569v1.591H7.954zM21.477 20.74H7.954v-1.589h13.523v1.591-.002zM7.954 23.126H17.5v1.591H7.954z"/><path d="M25.455 37.445h-.001c-5.237 0-9.546-4.309-9.546-9.546 0-5.237 4.309-9.546 9.546-9.546 5.237 0 9.546 4.31 9.546 9.546-.005 5.234-4.311 9.54-9.545 9.546zm0-17.5c-4.364.001-7.954 3.591-7.954 7.955s3.591 7.955 7.955 7.955 7.955-3.59 7.955-7.955c-.005-4.362-3.594-7.95-7.956-7.956v.001z" fill="currentcolor"/><path d="M23.033 31.374l-2.913-2.913a.798.798 0 01.624-1.3c.182 0 .358.062.5.175l1.861 1.861 5.8-5.079a.802.802 0 011.265.651.8.8 0 01-.218.55l-6.919 6.055z" fill="currentcolor"/></svg>