<svg viewBox="0 0 46 43" xmlns="http://www.w3.org/2000/svg" fill-rule="evenodd" clip-rule="evenodd" stroke-linejoin="round" stroke-miterlimit="2" width="27" height="26"><g fill="currentcolor" fill-rule="nonzero"><path d="M41 42.963H3c-1.7 0-3-1.3-3-3v-30.4c0-1.4 1-2.6 2.4-2.9l31-6.6c.9-.2 1.8.1 2.5.6.7.6 1.1 1.4 1.1 2.3v5.1c0 .6-.4 1-1 1s-1-.4-1-1v-5.1c0-.4-.2-.7-.4-.8-.1-.1-.4-.3-.8-.2l-31 6.6c-.5.1-.8.5-.8 1v30.4c0 .6.4 1 1 1h38c.6 0 1-.4 1-1v-10c0-.6.4-1 1-1s1 .4 1 1v10c0 1.7-1.3 3-3 3z"/><path d="M43 20.963c-.6 0-1-.4-1-1v-8.9c0-.6-.4-1-1-1H2c-.6 0-1-.4-1-1s.4-1 1-1h39c1.7 0 3 1.3 3 3v8.9c0 .6-.4 1-1 1z"/><path d="M43 30.963H31c-1.7 0-3-1.3-3-3v-6c0-1.7 1.3-3 3-3h12c1.7 0 3 1.3 3 3v6c0 1.7-1.3 3-3 3zm-12-10c-.6 0-1 .4-1 1v6c0 .6.4 1 1 1h12c.6 0 1-.4 1-1v-6c0-.6-.4-1-1-1H31z"/><path d="M35 27.963c-1.7 0-3-1.3-3-3s1.3-3 3-3 3 1.3 3 3-1.3 3-3 3zm0-4c-.6 0-1 .4-1 1s.4 1 1 1 1-.4 1-1-.4-1-1-1z"/></g></svg>