<?xml version="1.0" encoding="UTF-8" standalone="no"?>
<!DOCTYPE svg PUBLIC "-//W3C//DTD SVG 1.1//EN" "http://www.w3.org/Graphics/SVG/1.1/DTD/svg11.dtd">
<svg width="100%" height="100%" viewBox="0 0 310 310" version="1.1" xmlns="http://www.w3.org/2000/svg" xmlns:xlink="http://www.w3.org/1999/xlink" xml:space="preserve" xmlns:serif="http://www.serif.com/" style="fill-rule:evenodd;clip-rule:evenodd;stroke-linejoin:round;stroke-miterlimit:2;">
    <g transform="matrix(1.25,0,0,1.25,-38.7437,-38.7437)">
        <g transform="matrix(2.13793,0,0,2.13793,-65.2119,-50.2464)">
            <circle cx="103" cy="96" r="58" style="fill:rgb(235,235,235);"/>
        </g>
        <g>
            <path d="M180.26,185.07L180.29,185.05C180.29,185.05 180.26,185.07 180.24,185.08L180.27,185.08L180.26,185.07Z" style="fill-rule:nonzero;"/>
            <path d="M180.24,185.08C133.43,199.14 94.72,219.65 70.47,243.67L69.4,244.74C75.85,250.84 82.92,256.3 90.56,260.94L92.2,258.93C98.82,250.84 105.92,243.03 113.31,235.67C133.14,215.91 155.82,198.81 180.24,185.08Z" style="fill-rule:nonzero;"/>
            <path d="M185.65,164.24L31.12,164.24C32.99,189.31 42.3,212.3 56.91,231L57.58,230.33C72.59,215.52 92.13,202.06 115.7,190.33C136.36,180.04 160.08,171.21 185.65,164.24Z" style="fill-rule:nonzero;"/>
            <path d="M126.41,61.2C168.3,102.94 221.02,130.54 278.85,141.01C271.88,79.13 219.21,31 155.21,31C138.31,31 122.2,34.37 107.49,40.45C113.46,47.64 119.84,54.64 126.41,61.21L126.41,61.2Z" style="fill-rule:nonzero;"/>
            <path d="M70.47,66.31C94.72,90.37 133.45,110.85 180.27,124.94C155.83,111.18 133.13,94.09 113.29,74.32C105.92,66.98 98.83,59.17 92.18,51.06L90.54,49.05C82.9,53.69 75.83,59.14 69.41,65.24L70.48,66.31L70.47,66.31Z" style="fill-rule:nonzero;"/>
            <path d="M126.41,248.78C119.81,255.35 113.44,262.35 107.49,269.54C122.18,275.62 138.31,278.99 155.21,278.99C219.21,278.99 271.88,230.85 278.87,168.95C221.05,179.42 168.33,207.02 126.43,248.76L126.41,248.78Z" style="fill-rule:nonzero;"/>
            <path d="M115.67,119.62L115.67,119.64C92.12,107.91 72.59,94.44 57.58,79.65L56.91,78.98C42.3,97.68 32.99,120.67 31.12,145.74L185.62,145.74C160.06,138.77 136.36,129.94 115.67,119.62Z" style="fill-rule:nonzero;"/>
        </g>
    </g>
</svg>
