<svg width="24" height="24" viewBox="0 0 24 24" fill="none" xmlns="http://www.w3.org/2000/svg">
<path d="M23.6383 14.9029C22.0356 21.3315 15.5244 25.2438 9.09503 23.6407C2.66833 22.0381 -1.24401 15.5265 0.359382 9.09837C1.96137 2.66903 8.47253 -1.24361 14.8999 0.359081C21.3289 1.96177 25.241 8.47405 23.6381 14.903L23.6382 14.9029H23.6383Z" fill="#F7931A"/>
<path d="M17.3269 10.0395C17.5517 8.53646 16.4074 7.72854 14.8427 7.18958L15.3503 5.15363L14.111 4.84482L13.6168 6.82716C13.291 6.7459 12.9564 6.66933 12.6239 6.59343L13.1216 4.598L11.883 4.28918L11.3751 6.32447C11.1055 6.26308 10.8407 6.20241 10.5838 6.13848L10.5852 6.13208L8.87614 5.70529L8.54645 7.02899C8.54645 7.02899 9.46594 7.23976 9.44657 7.25273C9.94843 7.37799 10.0392 7.71021 10.0241 7.97354L9.4459 10.293C9.48046 10.3017 9.52529 10.3144 9.57475 10.3343C9.5334 10.324 9.4894 10.3128 9.44375 10.3019L8.63329 13.5511C8.57196 13.7036 8.41628 13.9324 8.0654 13.8455C8.07782 13.8635 7.16463 13.6207 7.16463 13.6207L6.54932 15.0393L8.16212 15.4414C8.46216 15.5166 8.75618 15.5954 9.04572 15.6694L8.53287 17.7287L9.77078 18.0375L10.2787 16.0001C10.6168 16.0919 10.945 16.1766 11.2663 16.2564L10.7602 18.2842L11.9996 18.593L12.5124 16.5376C14.6257 16.9376 16.2148 16.7763 16.8836 14.8648C17.4226 13.3258 16.8568 12.4381 15.745 11.8592C16.5548 11.6725 17.1647 11.1399 17.3274 10.0396L17.327 10.0394L17.3269 10.0395ZM14.4953 14.0101C14.1123 15.5491 11.5211 14.7172 10.681 14.5086L11.3616 11.7803C12.2016 11.9901 14.8956 12.4051 14.4954 14.0101H14.4953ZM14.8786 10.0172C14.5292 11.417 12.3725 10.7058 11.6729 10.5314L12.2899 8.05712C12.9895 8.23151 15.2426 8.557 14.8787 10.0172H14.8786Z" fill="white"/>
</svg>
