<svg width="16" height="16" viewBox="0 0 16 16" fill="none" xmlns="http://www.w3.org/2000/svg">
<path fill-rule="evenodd" clip-rule="evenodd" d="M7.99992 1.33325C8.21868 1.33325 8.42353 1.44058 8.54805 1.62045L11.548 5.95378C11.6892 6.15765 11.7055 6.42302 11.5904 6.64266C11.4754 6.8623 11.2479 6.99992 10.9999 6.99992H4.99992C4.75196 6.99992 4.52448 6.8623 4.4094 6.64266C4.29432 6.42302 4.31065 6.15765 4.45179 5.95378L7.45179 1.62045C7.57631 1.44058 7.78116 1.33325 7.99992 1.33325ZM6.2723 5.66659H9.72754L7.99992 3.17113L6.2723 5.66659ZM4.4094 9.35718C4.52448 9.13754 4.75196 8.99992 4.99992 8.99992H10.9999C11.2479 8.99992 11.4754 9.13754 11.5904 9.35718C11.7055 9.57682 11.6892 9.84219 11.548 10.0461L8.54805 14.3794C8.42353 14.5593 8.21868 14.6666 7.99992 14.6666C7.78116 14.6666 7.57631 14.5593 7.45179 14.3794L4.45179 10.0461C4.31065 9.84219 4.29432 9.57682 4.4094 9.35718ZM6.2723 10.3333L7.99992 12.8287L9.72754 10.3333H6.2723Z" fill="#EFF1ED"/>
</svg>
