<svg width="16" height="16" viewBox="0 0 16 16" fill="none" xmlns="http://www.w3.org/2000/svg">
<path d="M8.83317 4.49984C8.83317 4.0396 8.46007 3.6665 7.99984 3.6665C7.5396 3.6665 7.1665 4.0396 7.1665 4.49984C7.1665 4.96007 7.5396 5.33317 7.99984 5.33317C8.46007 5.33317 8.83317 4.96007 8.83317 4.49984Z" fill="#878491"/>
<path d="M6.83317 6.6665C6.83317 6.29831 7.13165 5.99984 7.49984 5.99984H8.1665C8.53469 5.99984 8.83317 6.29831 8.83317 6.6665V10.6665H9.33317C9.70136 10.6665 9.99984 10.965 9.99984 11.3332C9.99984 11.7014 9.70136 11.9998 9.33317 11.9998H6.99984C6.63165 11.9998 6.33317 11.7014 6.33317 11.3332C6.33317 10.965 6.63165 10.6665 6.99984 10.6665H7.49984V7.33317C7.13165 7.33317 6.83317 7.03469 6.83317 6.6665Z" fill="#878491"/>
<path fill-rule="evenodd" clip-rule="evenodd" d="M7.99984 0.666504C5.97499 0.666504 4.14075 1.48805 2.81439 2.81438C1.48806 4.14074 0.666504 5.97499 0.666504 7.99984C0.666504 10.0247 1.48805 11.8589 2.81438 13.1853C4.14074 14.5116 5.97499 15.3332 7.99984 15.3332C10.0247 15.3332 11.8589 14.5116 13.1853 13.1853C14.5116 11.8589 15.3332 10.0247 15.3332 7.99984C15.3332 5.97499 14.5116 4.14074 13.1853 2.81439C11.8589 1.48805 10.0247 0.666504 7.99984 0.666504ZM3.75719 3.7572C4.84373 2.67068 6.34282 1.99984 7.99984 1.99984C9.65686 1.99984 11.1559 2.67068 12.2425 3.7572C13.329 4.84373 13.9998 6.34282 13.9998 7.99984C13.9998 9.65686 13.329 11.1559 12.2425 12.2425C11.1559 13.329 9.65686 13.9998 7.99984 13.9998C6.34282 13.9998 4.84373 13.329 3.7572 12.2425C2.67068 11.1559 1.99984 9.65686 1.99984 7.99984C1.99984 6.34282 2.67067 4.84374 3.75719 3.7572Z" fill="#878491"/>
</svg>
