<svg width="84" height="84" viewBox="0 0 84 84" fill="none" xmlns="http://www.w3.org/2000/svg">
<path d="M83.6666 42C83.6666 51.921 80.1267 61.5164 73.6835 69.0603C67.2404 76.6043 58.3168 81.6017 48.518 83.1537C38.7192 84.7057 28.6882 82.7104 20.2291 77.5267C11.7701 72.343 5.43831 64.3111 2.37256 54.8757C-0.693182 45.4403 -0.291651 35.2206 3.50494 26.0549C7.30153 16.8891 14.244 9.37876 23.0836 4.87474C31.9233 0.370716 42.08 -0.831406 51.7268 1.4846C61.3737 3.8006 69.8776 9.48273 75.709 17.509L68.9672 22.4072C64.302 15.9862 57.4989 11.4405 49.7814 9.58768C42.064 7.73488 33.9386 8.69657 26.8669 12.2998C19.7952 15.903 14.2412 21.9113 11.2039 29.2439C8.16666 36.5765 7.84544 44.7523 10.298 52.3006C12.7506 59.8489 17.8161 66.2744 24.5833 70.4214C31.3505 74.5683 39.3753 76.1645 47.2144 74.923C55.0535 73.6814 62.1923 69.6834 67.3468 63.6483C72.5013 57.6131 75.3333 49.9368 75.3333 42H83.6666Z" fill="#5465FF"/>
</svg>
