<svg width="370" height="169" viewBox="0 0 370 169" fill="none" xmlns="http://www.w3.org/2000/svg">
<g opacity="0.1">
<path d="M384.152 324.972C385.283 326.102 387.117 326.103 388.231 324.957C415.399 296.998 433.474 261.46 440.04 223.009C446.768 183.607 441.078 143.091 423.758 107.058C406.437 71.0249 378.34 41.2527 343.348 21.8542C308.355 2.45568 268.195 -5.61165 228.414 -1.2334C188.633 3.14485 151.195 19.7526 121.272 46.2957C91.3493 72.8387 70.4177 108.007 61.3692 146.942C52.3207 185.878 55.6018 226.659 70.7592 263.652C85.5511 299.753 110.941 330.507 143.554 351.887C144.891 352.763 146.68 352.362 147.537 351.014C148.396 349.663 147.995 347.874 146.657 346.996C115.06 326.26 90.4601 296.448 76.1237 261.459C61.421 225.576 58.2384 186.019 67.0154 148.251C75.7925 110.484 96.0961 76.3706 125.122 50.6239C154.147 24.8771 190.462 8.76759 229.049 4.52069C267.636 0.273784 306.592 8.0991 340.535 26.9156C374.477 45.7322 401.731 74.6113 418.532 109.564C435.333 144.516 440.852 183.816 434.326 222.036C427.963 259.302 410.454 293.748 384.137 320.858C383.022 322.006 383.02 323.841 384.152 324.972Z" fill="#656271"/>
<path d="M389.183 319.163C390.219 320.202 391.904 320.202 392.924 319.149C422.824 288.271 440.499 247.507 442.582 204.471C444.709 160.548 430.442 117.405 402.563 83.4467C374.683 49.4883 335.187 27.1467 291.768 20.7744C248.35 14.4021 204.119 24.4554 167.693 48.9759C131.267 73.4964 105.254 110.728 94.7222 153.417C84.1904 196.106 89.8941 241.195 110.722 279.9C131.55 318.606 166.01 348.155 207.39 362.792C247.936 377.134 292.279 376.151 332.111 360.087C333.469 359.539 334.104 357.983 333.538 356.633C332.971 355.279 331.413 354.645 330.052 355.194C291.436 370.745 248.455 371.687 209.153 357.785C169.015 343.587 135.589 314.925 115.386 277.38C95.1825 239.836 89.65 196.1 99.8658 154.691C110.082 113.283 135.314 77.1683 170.647 53.3834C205.981 29.5986 248.885 19.8468 291 26.028C333.116 32.2092 371.428 53.8805 398.471 86.8201C425.514 119.76 439.353 161.608 437.29 204.214C435.27 245.936 418.144 285.457 389.17 315.402C388.153 316.453 388.15 318.128 389.183 319.163Z" fill="#656271"/>
<path d="M392.519 310.883C393.487 311.848 395.055 311.849 396.009 310.87C419.754 286.488 435.387 255.38 440.74 221.783C446.222 187.374 440.64 152.118 424.792 121.062C408.944 90.0067 383.644 64.7441 352.512 48.8907C321.379 33.0374 286.013 27.4062 251.474 32.8033C216.935 38.2004 184.995 54.349 160.226 78.9374C135.457 103.526 119.129 135.293 113.58 169.692C108.031 204.091 113.545 239.358 129.332 270.444C144.747 300.797 169.185 325.644 199.281 341.613C200.488 342.253 201.979 341.772 202.605 340.558C203.233 339.339 202.75 337.843 201.539 337.2C172.382 321.709 148.706 297.624 133.766 268.208C118.452 238.054 113.104 203.846 118.487 170.479C123.869 137.111 139.707 106.297 163.733 82.4462C187.759 58.5954 218.741 42.9312 252.243 37.696C285.746 32.4609 320.052 37.9231 350.25 53.3009C380.448 68.6786 404.99 93.1834 420.363 123.307C435.735 153.431 441.15 187.629 435.832 221.007C430.644 253.565 415.504 283.714 392.506 307.355C391.548 308.34 391.547 309.914 392.519 310.883Z" fill="#656271"/>
<path d="M418.77 281.696C419.907 282.177 421.221 281.644 421.684 280.5C433.301 251.803 435.702 220.18 428.523 190.027C421.171 159.148 404.155 131.423 379.954 110.892C355.754 90.3603 325.632 78.0943 293.978 75.8805C263.067 73.7188 232.271 81.2526 205.866 97.4031C204.813 98.0473 204.502 99.4299 205.162 100.473C205.821 101.517 207.201 101.826 208.255 101.183C233.855 85.5408 263.705 78.2455 293.666 80.3409C324.371 82.4882 353.589 94.3862 377.063 114.302C400.538 134.217 417.043 161.11 424.175 191.063C431.133 220.29 428.813 250.941 417.566 278.76C417.103 279.905 417.633 281.216 418.77 281.696Z" fill="#656271"/>
<path d="M187.615 113.496C186.808 112.562 185.395 112.459 184.473 113.28C174.04 122.579 164.966 133.301 157.519 145.129C156.861 146.173 157.196 147.549 158.25 148.192C159.304 148.834 160.679 148.499 161.337 147.454C168.542 136.022 177.314 125.658 187.397 116.663C188.318 115.841 188.422 114.43 187.615 113.496Z" fill="#656271"/>
<path d="M406.677 297.162C407.734 297.609 408.955 297.114 409.386 296.05C416.893 277.507 420.3 257.549 419.362 237.549C418.392 216.856 412.797 196.643 402.988 178.399C393.178 160.155 379.405 144.343 362.68 132.126C346.515 120.319 327.992 112.161 308.388 108.204C307.262 107.977 306.177 108.723 305.967 109.852C305.757 110.98 306.501 112.064 307.626 112.291C326.619 116.134 344.566 124.043 360.229 135.484C376.452 147.334 389.813 162.671 399.328 180.368C408.843 198.065 414.27 217.671 415.211 237.743C416.119 257.123 412.823 276.462 405.557 294.433C405.127 295.497 405.62 296.715 406.677 297.162Z" fill="#656271"/>
<path d="M384.977 325.544C386.112 326.852 388.094 326.993 389.384 325.838C414.188 303.626 433.339 275.796 445.225 244.657C457.485 212.541 461.637 177.896 457.314 143.792C452.992 109.687 440.328 77.1749 420.444 49.1356C400.561 21.0963 374.071 -1.60489 343.322 -16.9571C312.574 -32.3093 278.514 -39.8387 244.162 -38.8783C209.809 -37.9179 176.224 -28.4973 146.38 -11.4511C116.536 5.59512 91.3557 29.7409 73.0687 58.8473C55.3379 87.0686 44.6184 119.109 41.7845 152.29C41.6372 154.015 42.9413 155.514 44.6683 155.636C46.3951 155.757 47.8908 154.455 48.0389 152.731C50.7999 120.578 61.1943 89.5327 78.3767 62.1845C96.115 33.9512 120.54 10.5298 149.489 -6.00501C178.437 -22.5399 211.015 -31.6778 244.337 -32.6094C277.659 -33.541 310.696 -26.2375 340.523 -11.3458C370.349 3.54582 396.044 25.566 415.331 52.7641C434.618 79.9622 446.902 111.499 451.095 144.58C455.288 177.662 451.26 211.267 439.369 242.42C427.85 272.596 409.297 299.568 385.271 321.103C383.983 322.259 383.842 324.237 384.977 325.544Z" fill="#656271"/>
<path d="M390.852 320.248C391.924 321.129 393.508 320.976 394.373 319.891C408.679 301.944 419.151 281.24 425.127 259.061C431.322 236.072 432.546 212.026 428.718 188.526C424.889 165.027 416.096 142.614 402.924 122.783C389.753 102.951 372.506 86.1566 352.334 73.5193C332.162 60.8819 309.529 52.6921 285.943 49.496C262.357 46.3 238.361 48.171 215.555 54.9845C192.749 61.798 171.657 73.3972 153.686 89.0087C136.347 104.071 122.298 122.534 112.403 143.244C111.805 144.496 112.359 145.988 113.619 146.568C114.88 147.147 116.37 146.594 116.968 145.342C126.565 125.281 140.18 107.396 156.979 92.8025C174.411 77.6593 194.87 66.4081 216.992 59.799C239.114 53.1899 262.39 51.375 285.268 54.4752C308.147 57.5754 330.101 65.5195 349.668 77.7777C369.235 90.036 385.965 106.327 398.741 125.563C411.517 144.8 420.046 166.54 423.76 189.335C427.474 212.129 426.287 235.454 420.278 257.753C414.487 279.243 404.346 299.305 390.493 316.7C389.628 317.785 389.781 319.367 390.852 320.248Z" fill="#656271"/>
</g>
</svg>
