<svg width="83" height="83" viewBox="0 0 83 83" fill="none" xmlns="http://www.w3.org/2000/svg">
<path d="M36.75 32.583V57.583C36.75 59.8842 38.6155 61.7497 40.9166 61.7497C43.2178 61.7497 45.0833 59.8842 45.0833 57.583V32.583H51.3333C53.6345 32.583 55.5 30.7175 55.5 28.4163C55.5 26.1152 53.6345 24.2497 51.3333 24.2497H30.5C28.1988 24.2497 26.3333 26.1152 26.3333 28.4163C26.3333 30.7175 28.1988 32.583 30.5 32.583H36.75Z" fill="#EFF1ED"/>
<path fill-rule="evenodd" clip-rule="evenodd" d="M40.5719 0.991211C18.7106 0.991211 0.988525 18.7133 0.988525 40.5745C0.988525 62.4358 18.7106 80.1579 40.5719 80.1579C50.0024 80.1579 58.6627 76.86 65.4623 71.3546L75.4704 81.3626C77.0976 82.9898 79.7357 82.9898 81.3629 81.3626C82.9901 79.7354 82.9901 77.0972 81.3629 75.4701L71.3546 65.4617C76.8584 58.6626 80.1552 50.0036 80.1552 40.5745C80.1552 18.7133 62.4331 0.991211 40.5719 0.991211ZM9.32186 40.5745C9.32186 23.3156 23.313 9.32454 40.5719 9.32454C57.8308 9.32454 71.8219 23.3156 71.8219 40.5745C71.8219 57.8334 57.8308 71.8245 40.5719 71.8245C23.313 71.8245 9.32186 57.8334 9.32186 40.5745Z" fill="#EFF1ED"/>
</svg>
