<svg width="92" height="92" viewBox="0 0 92 92" fill="none" xmlns="http://www.w3.org/2000/svg">
<path fill-rule="evenodd" clip-rule="evenodd" d="M45.9998 7.80551C24.9056 7.80551 7.80539 24.9058 7.80539 46C7.80539 67.0942 24.9056 84.1944 45.9998 84.1944C67.094 84.1944 84.1943 67.0942 84.1943 46C84.1943 24.9058 67.094 7.80551 45.9998 7.80551ZM0.166504 46C0.166504 20.6869 20.6868 0.166626 45.9998 0.166626C71.3129 0.166626 91.8332 20.6869 91.8332 46C91.8332 71.313 71.3129 91.8333 45.9998 91.8333C20.6868 91.8333 0.166504 71.313 0.166504 46ZM49.819 23.0833V53.6388H42.1801V23.0833H49.819ZM49.819 65.097C49.819 67.2065 48.109 68.9165 45.9995 68.9165C43.8901 68.9165 42.1801 67.2065 42.1801 65.097C42.1801 62.9876 43.8901 61.2776 45.9995 61.2776C48.109 61.2776 49.819 62.9876 49.819 65.097Z" fill="#FFBA49"/>
</svg>
