<svg width="20" height="20" viewBox="0 0 20 20" fill="none" xmlns="http://www.w3.org/2000/svg">
<path d="M1.66669 3.74996C1.66669 3.28972 2.03978 2.91663 2.50002 2.91663C2.93934 2.91663 3.29926 3.25658 3.33107 3.68777L3.33335 3.74996V4.92079L3.34655 4.90693L3.6928 4.53633L3.91659 4.30192L4.10747 4.10742C5.65962 2.55523 7.76051 1.66663 10 1.66663C14.6024 1.66663 18.3334 5.3976 18.3334 9.99996C18.3334 14.6023 14.6024 18.3333 10 18.3333C7.7605 18.3333 5.65961 17.4447 4.10746 15.8925C3.78203 15.5671 3.78204 15.0394 4.10748 14.714C4.43292 14.3886 4.96056 14.3886 5.28599 14.714C6.52867 15.9567 8.20707 16.6666 10 16.6666C13.6819 16.6666 16.6667 13.6818 16.6667 9.99996C16.6667 6.31807 13.6819 3.33329 10 3.33329C8.20708 3.33329 6.52868 4.0432 5.28598 5.28592L5.1723 5.40116L4.82025 5.77017L4.56663 6.04238L4.37544 6.24996H5.83335C6.27267 6.24996 6.63259 6.58991 6.6644 7.0211L6.66669 7.08329C6.66669 7.52261 6.32674 7.88253 5.89555 7.91434L5.83335 7.91663H2.50002C2.49126 7.91663 2.48254 7.91649 2.47385 7.91622L2.47304 7.91621C2.46134 7.91584 2.44965 7.91522 2.43797 7.91436L2.43812 7.91436C2.42643 7.9135 2.4148 7.9124 2.40325 7.91107C2.39539 7.91015 2.38724 7.90909 2.37911 7.9079C2.36511 7.90588 2.35162 7.90356 2.33824 7.90093C2.3 7.89339 2.26199 7.8831 2.22469 7.87006C2.21143 7.86542 2.1986 7.86057 2.18592 7.8554L2.17059 7.84899C2.15577 7.84259 2.1414 7.8359 2.12726 7.82881C2.11699 7.82369 2.10692 7.81839 2.09694 7.81286C2.08811 7.80794 2.07925 7.80282 2.07049 7.79754C2.06156 7.79219 2.0528 7.78668 2.04412 7.78099C2.03424 7.77451 2.02454 7.76785 2.01498 7.761C2.00698 7.75527 1.99892 7.74926 1.99093 7.74309C1.97893 7.73382 1.96725 7.72428 1.95585 7.71444L1.94669 7.70641L1.94363 7.70367L1.94223 7.70242C1.93929 7.69977 1.93637 7.6971 1.93347 7.69441C1.90245 7.66568 1.8741 7.63511 1.84845 7.60302L1.81229 7.55404L1.8109 7.552C1.80396 7.54203 1.79753 7.53212 1.79132 7.5221C1.78589 7.51316 1.78048 7.50405 1.77523 7.49483C1.77061 7.48686 1.76616 7.47871 1.76185 7.4705C1.75561 7.4585 1.74967 7.4465 1.74402 7.43435C1.73964 7.42495 1.73536 7.41523 1.73127 7.40545C1.72642 7.39395 1.72195 7.38258 1.71772 7.37108L1.71256 7.35643C1.70728 7.34144 1.70247 7.32617 1.6981 7.31071L1.69173 7.28637C1.68849 7.27394 1.68561 7.26119 1.68303 7.24834L1.67874 7.22467C1.67611 7.20997 1.67394 7.19482 1.67218 7.17953L1.66981 7.15538L1.66897 7.14549L1.6676 7.1224C1.66724 7.1146 1.66698 7.1068 1.66683 7.09899L1.66669 3.74996Z" fill="#7FDEFF"/>
<path fill-rule="evenodd" clip-rule="evenodd" d="M10.8681 6.1806C10.8681 5.98883 10.7126 5.83337 10.5209 5.83337C10.3291 5.83337 10.1736 5.98883 10.1736 6.1806V6.52782H9.82641C8.77169 6.52782 7.91669 7.38282 7.91669 8.43754C7.91669 9.49226 8.77169 10.3473 9.82641 10.3473H10.1736V12.7778H8.61115C8.41939 12.7778 8.26391 12.9333 8.26391 13.125C8.26391 13.3168 8.41945 13.4723 8.61121 13.4723H10.1736V13.8195C10.1736 14.0113 10.3291 14.1667 10.5209 14.1667C10.7126 14.1667 10.8681 14.0113 10.8681 13.8195V13.4723H11.2153C12.27 13.4723 13.125 12.6173 13.125 11.5625C13.125 10.5078 12.27 9.65282 11.2153 9.65282H10.8681V7.22226H12.4306C12.6223 7.22226 12.7778 7.06681 12.7778 6.87504C12.7778 6.68328 12.6223 6.52782 12.4305 6.52782H10.8681V6.1806ZM10.1736 9.65282H9.82641C9.15522 9.65282 8.61113 9.10873 8.61113 8.43754C8.61113 7.76635 9.15522 7.22226 9.82641 7.22226H10.1736V9.65282ZM10.8681 10.3473V12.7778H11.2153C11.8865 12.7778 12.4306 12.2337 12.4306 11.5625C12.4306 10.8914 11.8865 10.3473 11.2153 10.3473H10.8681Z" fill="#7FDEFF" stroke="#7FDEFF" stroke-linecap="round" stroke-linejoin="round"/>
</svg>
