<svg width="256" height="484" viewBox="0 0 256 484" fill="none" xmlns="http://www.w3.org/2000/svg">
<g clip-path="url(#clip0)">
<circle cx="274" cy="266" r="63.8161" stroke="#2F2A3C" stroke-width="1.4"/>
<circle cx="274" cy="266" r="116.676" stroke="#2F2A3C" stroke-width="1.4"/>
<circle cx="274" cy="266" r="181.215" stroke="#2F2A3C" stroke-width="1.4"/>
<circle cx="274" cy="266" r="249.3" stroke="#2F2A3C" stroke-width="1.4"/>
<circle cx="115.49" cy="176.284" r="3.90071" fill="url(#paint0_linear)"/>
<g filter="url(#filter0_f)">
<circle cx="66.7308" cy="406.249" r="15.0709" fill="url(#paint1_linear)"/>
</g>
<g opacity="0.24" filter="url(#filter1_f)">
<ellipse cx="231.123" cy="256.449" rx="56.8771" ry="56.1554" fill="#FF7EFA" fill-opacity="0.98"/>
</g>
<path d="M132.492 426.849L190.317 393.031V326.614L132.492 361.459V426.849Z" fill="url(#paint2_linear)"/>
<path d="M132.529 427.362L77.2559 396.121V327.571L132.529 362.033V427.362Z" fill="url(#paint3_linear)"/>
<path opacity="0.4" d="M123.768 411.546L86.0156 390.208V343.387L123.768 366.925V411.546Z" stroke="url(#paint4_linear)" stroke-width="0.864"/>
<path opacity="0.405357" d="M133.662 343.8L105.253 327.545L-12 120H138.566L158.012 327.545L133.662 343.8Z" fill="url(#paint5_linear)"/>
<path opacity="0.405357" d="M158.014 327.756L214.831 135.223H105.255L145.838 351.822L158.014 327.756Z" fill="url(#paint6_linear)"/>
<path d="M186.973 247.549C193.769 243.118 198.554 242.635 201.471 244.689L206.075 247.095L204.995 248.647C208.516 259.157 199.429 283.123 180.357 294.516C176.342 296.915 173.045 298.119 170.416 298.365L169.417 299.801L166.096 297.68C156.025 292.527 165.552 261.52 186.973 247.549Z" fill="#D7911D"/>
<path d="M192.514 249.819C164.627 268.081 155.427 315.113 185.058 297.34C214.688 279.567 220.402 231.557 192.514 249.819Z" fill="url(#paint7_linear)"/>
<path opacity="0.4" d="M191.027 257.034C171.058 270.539 164.864 304.298 186.081 291.154C207.299 278.011 210.996 243.529 191.027 257.034Z" stroke="#D7911D" stroke-width="0.5"/>
<path d="M47.4801 237.941C39.4696 239.226 34.9021 237.721 33.0731 234.658L29.8451 230.588L31.4624 229.609C32.5211 218.575 50.5703 200.377 72.6278 197.726C77.2714 197.168 80.773 197.409 83.2746 198.254L84.7717 197.348L86.9425 200.637C94.0465 209.44 72.7314 233.891 47.4801 237.941Z" fill="#D7911D"/>
<path d="M43.3406 233.614C76.2445 228.274 103.779 189.049 69.4815 193.234C35.1837 197.418 10.4367 238.954 43.3406 233.614Z" fill="url(#paint8_linear)"/>
<path opacity="0.4" d="M47.6362 227.629C71.3717 223.414 90.7609 195.093 66.032 198.47C41.303 201.847 23.9007 231.844 47.6362 227.629Z" stroke="#D7911D" stroke-width="0.5"/>
<path d="M170.365 181.395C170.341 175.848 171.885 173.035 174.216 172.294L177.4 170.776L177.905 172.008C185.469 174.439 196.173 189.329 195.621 204.465C195.504 207.651 194.956 209.95 194.096 211.488L194.564 212.628L192.039 213.563C185.139 216.928 170.439 198.88 170.365 181.395Z" fill="#D7911D"/>
<path d="M173.577 179.661C173.717 202.455 198.024 226.963 198.84 203.419C199.655 179.875 173.437 156.867 173.577 179.661Z" fill="url(#paint9_linear)"/>
<path opacity="0.3" d="M176.375 182.308C176.484 200.03 195.382 219.084 196.017 200.78C196.651 182.475 176.266 164.587 176.375 182.308Z" stroke="#D7911D" stroke-width="0.5"/>
<path d="M77.2559 328.098L134.018 296.955L189.461 327.142L132.586 361.843L77.2559 328.098Z" fill="url(#paint10_linear)"/>
<path d="M105.36 328.833L133.794 313.22L161.566 328.353L133.076 345.75L105.36 328.833Z" fill="url(#paint11_linear)"/>
<g opacity="0.405357" filter="url(#filter2_f)">
<ellipse cx="184.822" cy="380.481" rx="36.3402" ry="35.8791" fill="#FFC37E" fill-opacity="0.98"/>
</g>
<g opacity="0.405357" filter="url(#filter3_f)">
<ellipse cx="66.7357" cy="337.783" rx="34.5326" ry="34.0944" fill="#FF7E95" fill-opacity="0.98"/>
</g>
<path d="M134.428 327.572V275.693L158.098 257.428C158.31 257.265 158.434 257.012 158.434 256.744V222.326" stroke="url(#paint12_linear)" stroke-width="0.864"/>
<path d="M134.346 275.521V251.379C134.346 250.902 133.959 250.515 133.482 250.515H114.079V223.283" stroke="url(#paint13_linear)" stroke-width="0.864"/>
<ellipse cx="114.564" cy="223.762" rx="4.36083" ry="4.30549" fill="url(#paint14_linear)"/>
<ellipse cx="158.172" cy="223.762" rx="4.36083" ry="4.30549" fill="url(#paint15_linear)"/>
<ellipse cx="134.916" cy="274.471" rx="4.36083" ry="4.30549" fill="url(#paint16_linear)"/>
<path d="M73.7428 260.216C76.9839 253.916 80.4029 251.53 83.4992 251.901L88.0258 251.837L87.8764 253.497C95.0744 260.189 98.5144 282.639 88.9674 299.51C86.9575 303.062 84.9776 305.383 83.0905 306.679L82.9523 308.216L79.5209 307.962C69.6665 308.187 63.526 280.078 73.7428 260.216Z" fill="#D7911D"/>
<path d="M78.4299 259.923C65.1611 285.838 78.4557 326.268 93.2567 300.001C108.058 273.734 91.6987 234.008 78.4299 259.923Z" fill="url(#paint17_linear)"/>
<path opacity="0.4" d="M80.3355 265.129C70.5166 284.306 80.3547 314.225 91.3074 294.787C102.26 275.349 90.1544 245.952 80.3355 265.129Z" stroke="#D7911D" stroke-width="0.5"/>
<path opacity="0.2" fill-rule="evenodd" clip-rule="evenodd" d="M98.5293 284.984C98.1491 285.108 97.7622 285.241 97.3688 285.383C88.8682 288.445 81.7883 293.834 76.654 299.82C80.5819 309.621 87.4014 313.198 93.9354 300.928C96.5459 296.026 97.988 290.51 98.5293 284.984Z" fill="black"/>
</g>
<defs>
<filter id="filter0_f" x="27.6599" y="367.178" width="78.1418" height="78.1418" filterUnits="userSpaceOnUse" color-interpolation-filters="sRGB">
<feFlood flood-opacity="0" result="BackgroundImageFix"/>
<feBlend mode="normal" in="SourceGraphic" in2="BackgroundImageFix" result="shape"/>
<feGaussianBlur stdDeviation="12" result="effect1_foregroundBlur"/>
</filter>
<filter id="filter1_f" x="146.246" y="172.294" width="169.754" height="168.311" filterUnits="userSpaceOnUse" color-interpolation-filters="sRGB">
<feFlood flood-opacity="0" result="BackgroundImageFix"/>
<feBlend mode="normal" in="SourceGraphic" in2="BackgroundImageFix" result="shape"/>
<feGaussianBlur stdDeviation="14" result="effect1_foregroundBlur"/>
</filter>
<filter id="filter2_f" x="141.482" y="337.602" width="86.6805" height="85.7582" filterUnits="userSpaceOnUse" color-interpolation-filters="sRGB">
<feFlood flood-opacity="0" result="BackgroundImageFix"/>
<feBlend mode="normal" in="SourceGraphic" in2="BackgroundImageFix" result="shape"/>
<feGaussianBlur stdDeviation="3.5" result="effect1_foregroundBlur"/>
</filter>
<filter id="filter3_f" x="15.2031" y="286.688" width="103.065" height="102.189" filterUnits="userSpaceOnUse" color-interpolation-filters="sRGB">
<feFlood flood-opacity="0" result="BackgroundImageFix"/>
<feBlend mode="normal" in="SourceGraphic" in2="BackgroundImageFix" result="shape"/>
<feGaussianBlur stdDeviation="8.5" result="effect1_foregroundBlur"/>
</filter>
<linearGradient id="paint0_linear" x1="114.811" y1="208.659" x2="95.7568" y2="205.828" gradientUnits="userSpaceOnUse">
<stop stop-color="#FFBE5C"/>
<stop offset="1" stop-color="#E46E2B"/>
</linearGradient>
<linearGradient id="paint1_linear" x1="51.6599" y1="421.32" x2="87.4445" y2="411.269" gradientUnits="userSpaceOnUse">
<stop stop-color="#85FFC4"/>
<stop offset="0.458333" stop-color="#5CC6FF"/>
<stop offset="0.807292" stop-color="#BC85FF"/>
</linearGradient>
<linearGradient id="paint2_linear" x1="166.619" y1="210.036" x2="-14.9041" y2="273.617" gradientUnits="userSpaceOnUse">
<stop stop-color="#EDB64F"/>
<stop offset="1" stop-color="#DD26BC"/>
</linearGradient>
<linearGradient id="paint3_linear" x1="160.657" y1="377.892" x2="51.2969" y2="311.867" gradientUnits="userSpaceOnUse">
<stop stop-color="#6B1B98"/>
<stop offset="1" stop-color="#DE0F62"/>
</linearGradient>
<linearGradient id="paint4_linear" x1="81.6953" y1="326.347" x2="35.116" y2="389.756" gradientUnits="userSpaceOnUse">
<stop stop-color="#FFD599"/>
<stop offset="0.482372" stop-color="#D178A0"/>
<stop offset="1" stop-color="#FFCE08"/>
</linearGradient>
<linearGradient id="paint5_linear" x1="30.7514" y1="143.87" x2="30.7514" y2="437.099" gradientUnits="userSpaceOnUse">
<stop stop-color="#FDF27D" stop-opacity="0.01"/>
<stop offset="0.4936" stop-color="#FCF17B" stop-opacity="0.240234"/>
<stop offset="1" stop-color="#FBF079"/>
</linearGradient>
<linearGradient id="paint6_linear" x1="84.2262" y1="159.464" x2="84.2262" y2="369.7" gradientUnits="userSpaceOnUse">
<stop stop-color="#FDF27D" stop-opacity="0.01"/>
<stop offset="0.4936" stop-color="#FCF17B" stop-opacity="0.240234"/>
<stop offset="1" stop-color="#FBF079"/>
</linearGradient>
<linearGradient id="paint7_linear" x1="160.033" y1="235.968" x2="136.247" y2="305.725" gradientUnits="userSpaceOnUse">
<stop stop-color="#FFF585"/>
<stop offset="1" stop-color="#DCC613"/>
</linearGradient>
<linearGradient id="paint8_linear" x1="67.3798" y1="259.479" x2="117.483" y2="205.427" gradientUnits="userSpaceOnUse">
<stop stop-color="#FFF585"/>
<stop offset="1" stop-color="#DCC613"/>
</linearGradient>
<linearGradient id="paint9_linear" x1="152.962" y1="191.661" x2="183.013" y2="235.019" gradientUnits="userSpaceOnUse">
<stop stop-color="#FFF585"/>
<stop offset="1" stop-color="#DCC613"/>
</linearGradient>
<linearGradient id="paint10_linear" x1="172.843" y1="253.589" x2="61.5539" y2="379.813" gradientUnits="userSpaceOnUse">
<stop stop-color="#EDB64F"/>
<stop offset="0.977895" stop-color="#E64082"/>
</linearGradient>
<linearGradient id="paint11_linear" x1="150.4" y1="309.669" x2="81.9242" y2="309.669" gradientUnits="userSpaceOnUse">
<stop stop-color="#FFD066"/>
<stop offset="1" stop-color="#CE1D64"/>
</linearGradient>
<linearGradient id="paint12_linear" x1="131.681" y1="196.015" x2="67.3814" y2="232.061" gradientUnits="userSpaceOnUse">
<stop stop-color="#FFD599"/>
<stop offset="0.482372" stop-color="#D178A0"/>
<stop offset="1" stop-color="#FFE26F"/>
</linearGradient>
<linearGradient id="paint13_linear" x1="102.844" y1="216.299" x2="69.7935" y2="317.425" gradientUnits="userSpaceOnUse">
<stop stop-color="#FFD599"/>
<stop offset="1" stop-color="#A014A8"/>
</linearGradient>
<linearGradient id="paint14_linear" x1="130.962" y1="235.503" x2="122.435" y2="211.664" gradientUnits="userSpaceOnUse">
<stop stop-color="#FFFCF5"/>
<stop offset="1" stop-color="#FFEFAD"/>
</linearGradient>
<linearGradient id="paint15_linear" x1="174.57" y1="235.503" x2="166.044" y2="211.664" gradientUnits="userSpaceOnUse">
<stop stop-color="#FFFCF5"/>
<stop offset="1" stop-color="#FFEFAD"/>
</linearGradient>
<linearGradient id="paint16_linear" x1="151.315" y1="286.212" x2="142.788" y2="262.373" gradientUnits="userSpaceOnUse">
<stop stop-color="#FFFCF5"/>
<stop offset="1" stop-color="#FFEFAD"/>
</linearGradient>
<linearGradient id="paint17_linear" x1="47.8402" y1="262.802" x2="58.875" y2="327.199" gradientUnits="userSpaceOnUse">
<stop stop-color="#FFF585"/>
<stop offset="1" stop-color="#DCC613"/>
</linearGradient>
<clipPath id="clip0">
<rect width="256" height="484" fill="white"/>
</clipPath>
</defs>
</svg>
