<svg width="70" height="70" viewBox="0 0 70 70" fill="none" xmlns="http://www.w3.org/2000/svg">
<path d="M18.2146 45.4099C18.4597 45.164 18.5414 44.7541 18.378 44.4263C16.6627 41.2296 15.9276 37.4591 16.2543 33.5246C17.1528 24.5082 24.4223 17.2951 33.4072 16.3935C37.3278 15.9837 41.0034 16.8033 44.2707 18.4427C44.5974 18.6066 45.0058 18.5246 45.2508 18.2787L51.3768 12.1312C51.7036 11.8033 51.7036 11.1476 51.2135 10.9017C46.5577 8.03284 41.1668 6.31152 35.3675 6.31152C19.1948 6.31152 6.20764 19.3443 6.20764 35.4919C6.20764 41.3115 7.92293 46.8033 10.9451 51.3935C11.1901 51.8033 11.8436 51.8853 12.1703 51.4755L18.2146 45.4099Z" fill="url(#paint0_linear_35_138)"/>
<path d="M51.9486 24.5902C51.7036 24.8361 51.6219 25.2459 51.867 25.5738C53.909 29.0164 54.9708 33.0328 54.4807 37.459C53.5822 46.4754 46.3127 53.6885 37.3279 54.5902C32.9988 55 28.9148 54.0164 25.4842 51.9672C25.1575 51.8033 24.7491 51.8033 24.5041 52.0492L18.5414 58.0328C18.2147 58.3607 18.2147 59.0164 18.6231 59.2623C23.3605 62.623 29.1598 64.5082 35.3675 64.5082C51.4586 64.6721 64.5274 51.5574 64.5274 35.4918C64.5274 29.2623 62.5671 23.4426 59.2182 18.6885C58.8915 18.2787 58.3197 18.2787 57.993 18.6066L51.9486 24.5902Z" fill="url(#paint1_linear_35_138)"/>
<path d="M5.7993 70C8.98483 70 11.5986 67.3771 11.5986 64.1803C11.5986 60.9836 8.98483 58.3607 5.7993 58.3607C2.61377 58.3607 0 60.9836 0 64.1803C0 67.3771 2.61377 70 5.7993 70Z" fill="url(#paint2_linear_35_138)"/>
<path d="M64.2007 11.6393C67.3862 11.6393 70 9.01639 70 5.81967C70 2.62295 67.3862 0 64.2007 0C61.0152 0 58.4014 2.62295 58.4014 5.81967C58.3197 9.01639 60.9335 11.6393 64.2007 11.6393Z" fill="url(#paint3_linear_35_138)"/>
<defs>
<linearGradient id="paint0_linear_35_138" x1="6.18012" y1="29.0055" x2="51.4873" y2="29.0055" gradientUnits="userSpaceOnUse">
<stop stop-color="#19B7CB"/>
<stop offset="1" stop-color="#55C0D3"/>
</linearGradient>
<linearGradient id="paint1_linear_35_138" x1="18.2863" y1="41.4888" x2="64.505" y2="41.4888" gradientUnits="userSpaceOnUse">
<stop stop-color="#19B7CB"/>
<stop offset="1" stop-color="#55C0D3"/>
</linearGradient>
<linearGradient id="paint2_linear_35_138" x1="3.18137" y1="66.7742" x2="68.9309" y2="3.06089" gradientUnits="userSpaceOnUse">
<stop stop-color="#19B7CB"/>
<stop offset="1" stop-color="#55C0D3"/>
</linearGradient>
<linearGradient id="paint3_linear_35_138" x1="2.47485" y1="66.0451" x2="68.2243" y2="2.33181" gradientUnits="userSpaceOnUse">
<stop stop-color="#19B7CB"/>
<stop offset="1" stop-color="#55C0D3"/>
</linearGradient>
</defs>
</svg>
