<?xml version="1.0" encoding="UTF-8" standalone="no"?>
<!DOCTYPE svg PUBLIC "-//W3C//DTD SVG 1.1//EN" "http://www.w3.org/Graphics/SVG/1.1/DTD/svg11.dtd">
<svg width="100%" height="100%" viewBox="0 0 256 256" version="1.1" xmlns="http://www.w3.org/2000/svg" xmlns:xlink="http://www.w3.org/1999/xlink" xml:space="preserve" xmlns:serif="http://www.serif.com/" style="fill-rule:evenodd;clip-rule:evenodd;stroke-linejoin:round;stroke-miterlimit:2;">
    <g>
        <path d="M128,256C198.692,256 256,198.692 256,128C256,57.308 198.692,0 128,0C57.308,0 0,57.308 0,128C0,198.692 57.308,256 128,256Z" style="fill:rgb(16,38,35);fill-rule:nonzero;"/>
        <path d="M220.094,126.859C220.262,141.968 217.099,156.405 210.886,170.199C202.013,189.84 180.742,205.9 161.317,188.805C145.475,174.871 142.536,146.584 118.802,142.443C87.398,138.638 86.643,175.039 66.127,179.152C43.26,183.797 35.675,145.353 36.011,127.894C36.347,110.435 40.993,85.897 60.865,85.897C83.732,85.897 85.271,120.507 114.296,118.633C143.04,116.674 143.544,80.665 162.324,65.248C178.53,51.93 197.591,61.695 207.135,77.727C215.979,92.556 219.87,109.959 220.066,126.859L220.094,126.859Z" style="fill:rgb(175,249,229);fill-rule:nonzero;"/>
    </g>
</svg>
