<?xml version="1.0" encoding="UTF-8" standalone="no"?><svg viewBox="0 0 68 68" xmlns="http://www.w3.org/2000/svg" xml:space="preserve" style="fill-rule:evenodd;clip-rule:evenodd;stroke-linecap:round;stroke-linejoin:round;stroke-miterlimit:1.5;">
        <circle cx="34" cy="34" r="34"/>
        <g>
            <path d="M33.822,13.717c2.694,0 5.308,0.528 7.77,1.57c1.315,0.557 2.571,1.256 3.737,2.081l-0.249,0.127l-3.201,1.632c-2.444,-1.358 -5.228,-2.076 -8.057,-2.076c-0.043,0 -0.086,0 -0.129,0.001c-2.175,0.016 -4.293,0.45 -6.295,1.289c-2.001,0.838 -3.796,2.044 -5.334,3.584c-3.141,3.143 -4.871,7.322 -4.871,11.766c0,0.724 0.048,1.455 0.142,2.174l0.029,0.23l0.207,-0.105l27.657,-14.103l5.726,-2.919l6.487,-3.307l-0,3.742l-6.682,3.406l-3.277,1.671l-29.153,14.866l-0.131,0.073l-1.491,0.761l-1.513,0.771l-0.003,-0.006l-0.136,0.07l-4.852,2.474l-0,-3.742l1.64,-0.837c1.377,-0.702 2.192,-2.153 2.076,-3.698c-0.038,-0.503 -0.057,-1.015 -0.057,-1.521c0,-2.696 0.528,-5.312 1.569,-7.775c1.005,-2.379 2.444,-4.515 4.277,-6.349c1.832,-1.833 3.967,-3.273 6.344,-4.28c2.462,-1.042 5.076,-1.57 7.77,-1.57" style="fill:rgb(246,247,248);fill-rule:nonzero;"/>
            <path d="M57.441,24.402l-0,3.742l-1.641,0.837c-1.378,0.703 -2.193,2.155 -2.076,3.699c0.039,0.511 0.058,1.027 0.058,1.534c0,2.697 -0.528,5.313 -1.569,7.776c-1.005,2.378 -2.444,4.514 -4.277,6.348c-1.833,1.835 -3.968,3.275 -6.344,4.28c-2.463,1.042 -5.077,1.571 -7.77,1.571c-2.693,-0 -5.307,-0.529 -7.77,-1.571c-1.32,-0.558 -2.58,-1.261 -3.751,-2.09l3.316,-1.69l0.133,-0.068c2.447,1.364 5.237,2.085 8.073,2.085c0.039,-0 0.078,-0 0.117,-0.001c2.177,-0.015 4.297,-0.448 6.3,-1.287c2.004,-0.839 3.8,-2.046 5.34,-3.586c3.141,-3.143 4.87,-7.322 4.87,-11.767c0,-0.725 -0.048,-1.461 -0.142,-2.188l-0.03,-0.229l-0.206,0.105l-27.685,14.116l-5.727,2.92l-6.457,3.292l0,-3.741l6.653,-3.393l3.276,-1.67l37.309,-19.024Z" style="fill:rgb(246,247,248);fill-rule:nonzero;"/>
        </g>
</svg>
