<?xml version="1.0" encoding="utf-8"?>
<!-- Generator: Adobe Illustrator 26.0.3, SVG Export Plug-In . SVG Version: 6.00 Build 0)  -->
<svg version="1.0" id="katman_1" xmlns:svg="http://www.w3.org/2000/svg"
	 xmlns="http://www.w3.org/2000/svg" xmlns:xlink="http://www.w3.org/1999/xlink" x="0px" y="0px" viewBox="0 0 390.3 306.3"
	 style="enable-background:new 0 0 390.3 306.3;" xml:space="preserve">
<style type="text/css">
	.st0{fill:#FFFFFF;}
</style>
<g id="Layer_x0020_1_0">
	<g id="_344587272">
		<path d="M314,153.1c0,65.7-53.2,118.9-118.9,118.9S76.3,218.8,76.3,153.1S129.5,34.3,195.1,34.3S314,87.5,314,153.1z"/>
		<path class="st0" d="M164.1,92.3c22.9-11.7,50.4-9.5,71.1,5.6l-1.7,0.9l-11.1,5.7c-17.3-9.7-38.4-9.4-55.5,0.6
			c-17.1,10-27.6,28.3-27.6,48.2c0,2.4,0.2,4.9,0.5,7.3l93.9-47.8l19.4-9.9l22.8-11.6v13.9l-23,11.7l-11.1,5.7l-99,50.4l-5.5,2.8
			l-5.6,2.9l-17.3,8.8v-13.9l5.9-3c4.5-2.3,7.1-7,6.7-12c-0.1-1.7-0.2-3.5-0.2-5.2C126.9,127.5,141.3,104,164.1,92.3L164.1,92.3z"/>
		<path class="st0" d="M275.9,119v13.9l-5.9,3c-4.5,2.3-7.1,7-6.7,12c0.1,1.7,0.2,3.5,0.2,5.2c0,25.7-14.4,49.2-37.3,60.8
			s-50.4,9.5-71.1-5.6l12.1-6.2l0.7-0.4c17.3,9.7,38.5,9.5,55.6-0.5c17.1-10,27.7-28.4,27.7-48.2c0-2.5-0.2-4.9-0.5-7.3l-94,47.9
			l-19.4,9.9l-22.7,11.6v-13.9l22.9-11.7l11.1-5.7L275.9,119L275.9,119z"/>
	</g>
</g>
</svg>
