<svg width="29" height="36" viewBox="0 0 29 36" fill="none" xmlns="http://www.w3.org/2000/svg">
<path fill-rule="evenodd" clip-rule="evenodd" d="M22.5363 15.0142L22.5357 15.0158C24.0044 16.8574 24.8821 19.1898 24.8821 21.7268C24.8821 24.3014 23.9781 26.6655 22.4698 28.5196L22.3399 28.6792L22.3055 28.4763C22.2762 28.3038 22.2418 28.1296 22.2018 27.954C21.447 24.6374 18.9876 21.7934 14.9397 19.4907C12.2063 17.9399 10.6417 16.0727 10.2309 13.9511C9.96558 12.5792 10.1628 11.2012 10.544 10.0209C10.9251 8.84103 11.4919 7.85247 11.9735 7.2573L11.9738 7.25692L13.5484 5.3315C13.8246 4.99384 14.3413 4.99384 14.6175 5.3315L22.5363 15.0142ZM25.0269 13.0906L25.0272 13.0898L14.4731 0.184802C14.2715 -0.0616007 13.8943 -0.0616009 13.6928 0.184802L3.1385 13.09L3.13878 13.0907L3.10444 13.1333C1.16226 15.5434 0 18.6061 0 21.9402C0 29.7051 6.30498 36 14.0829 36C21.8608 36 28.1658 29.7051 28.1658 21.9402C28.1658 18.6062 27.0035 15.5434 25.0614 13.1333L25.0269 13.0906ZM5.66381 14.9727L5.66423 14.9721L6.60825 13.8178L6.63678 14.0309C6.65938 14.1997 6.68678 14.3694 6.71928 14.5398C7.33009 17.7446 9.51208 20.4169 13.1602 22.4865C16.3312 24.2912 18.1775 26.3666 18.7095 28.6427C18.9314 29.5926 18.971 30.5272 18.8749 31.3443L18.8689 31.3948L18.8232 31.4172C17.3919 32.1164 15.783 32.5088 14.0826 32.5088C8.11832 32.5088 3.28308 27.6817 3.28308 21.7268C3.28308 19.1701 4.17443 16.8208 5.66381 14.9727Z" fill="#F7F7F8"/>
</svg>
