<svg width="24" height="24" viewBox="0 0 24 24" fill="none" xmlns="http://www.w3.org/2000/svg">
<path opacity="0.2" d="M12 24C18.6274 24 24 18.6274 24 12C24 5.37258 18.6274 0 12 0C5.37258 0 0 5.37258 0 12C0 18.6274 5.37258 24 12 24Z" fill="#F3BA2F"/>
<path fill-rule="evenodd" clip-rule="evenodd" d="M9.49137 10.9687L12.0013 8.45982L14.5123 10.9707L15.972 9.51012L12.0013 5.53857L8.0307 9.5091L9.49137 10.9687ZM5.53857 12.0003L6.99871 10.5402L8.45884 12.0003L6.99871 13.4604L5.53857 12.0003ZM12.0013 15.5414L9.49137 13.0315L8.02866 14.4901L8.0307 14.4922L12.0013 18.4617L15.972 14.4901L15.973 14.4891L14.5123 13.0305L12.0013 15.5414ZM15.5414 12.0007L17.0015 10.5406L18.4616 12.0007L17.0015 13.4608L15.5414 12.0007ZM12.0013 10.5175L13.4824 11.9996H13.4834L13.4824 12.0006L12.0013 13.4827L10.5203 12.0027L10.5182 11.9996L10.5203 11.9976L10.7795 11.7383L10.9061 11.6128L12.0013 10.5175Z" fill="#F3BA2F"/>
</svg>
