<svg width="12" height="12" viewBox="0 0 12 12" fill="none" xmlns="http://www.w3.org/2000/svg">
<path d="M6.58958 1.58934C6.91502 1.2639 6.91502 0.736263 6.58958 0.410826C6.26415 0.0853888 5.73651 0.0853888 5.41107 0.410826L0.41107 5.41083C0.0856329 5.73626 0.0856329 6.2639 0.41107 6.58934L5.41107 11.5893C5.73651 11.9148 6.26415 11.9148 6.58958 11.5893C6.91502 11.2639 6.91502 10.7363 6.58958 10.4108L2.17884 6.00008L6.58958 1.58934Z" fill="#5465FF"/>
<path d="M11.5896 1.58934C11.915 1.2639 11.915 0.736263 11.5896 0.410826C11.2641 0.0853888 10.7365 0.0853888 10.4111 0.410826L5.41107 5.41083C5.08563 5.73626 5.08563 6.2639 5.41107 6.58934L10.4111 11.5893C10.7365 11.9148 11.2641 11.9148 11.5896 11.5893C11.915 11.2639 11.915 10.7363 11.5896 10.4108L7.17884 6.00008L11.5896 1.58934Z" fill="#5465FF"/>
</svg>
