<svg width="14" height="10" viewBox="0 0 14 10" fill="none" xmlns="http://www.w3.org/2000/svg">
<path fill-rule="evenodd" clip-rule="evenodd" d="M0.57529 0.819465C0.859012 0.584804 1.27924 0.624576 1.5139 0.908298L4.59225 4.63025L7.38147 2.93056C7.64896 2.76756 7.99386 2.81277 8.21031 3.03921L12.0002 7.00419V4.66652C12.0002 4.29833 12.2987 3.99986 12.6668 3.99986C13.035 3.99986 13.3335 4.29833 13.3335 4.66652V8.66649C13.3335 9.03468 13.035 9.33315 12.6668 9.33315H8.66685C8.29866 9.33315 8.00018 9.03468 8.00018 8.66649C8.00018 8.2983 8.29866 7.99982 8.66685 7.99982H11.1074L7.61716 4.34833L4.79326 6.06915C4.51035 6.24155 4.14377 6.18004 3.93262 5.92475L0.486457 1.75808C0.251796 1.47436 0.291568 1.05413 0.57529 0.819465Z" fill="#F05365"/>
</svg>
