<svg width="92" height="92" viewBox="0 0 92 92" fill="none" xmlns="http://www.w3.org/2000/svg">
<path fill-rule="evenodd" clip-rule="evenodd" d="M13.591 13.5909C21.8808 5.30127 33.3448 0.166626 46.0001 0.166626C58.6554 0.166626 70.1194 5.30127 78.4091 13.5909L75.4628 16.5372L78.4091 13.5909C86.6987 21.8806 91.8334 33.3447 91.8334 46C91.8334 58.6553 86.6987 70.1193 78.4091 78.409C70.1194 86.6986 58.6554 91.8333 46.0001 91.8333C33.3448 91.8333 21.8807 86.6986 13.591 78.409L16.5373 75.4627L13.591 78.4089C5.30139 70.1193 0.166748 58.6552 0.166748 46C0.166748 33.3447 5.30139 21.8806 13.591 13.5909L13.591 13.5909ZM46.0001 8.49996C35.6437 8.49996 26.2744 12.6927 19.4835 19.4835C12.6928 26.2743 8.50008 35.6436 8.50008 46C8.50008 56.3563 12.6929 65.7256 19.4836 72.5164C26.2744 79.3072 35.6437 83.5 46.0001 83.5C56.3565 83.5 65.7257 79.3072 72.5165 72.5164C79.3073 65.7256 83.5001 56.3563 83.5001 46C83.5001 35.6436 79.3073 26.2743 72.5165 19.4835C65.7258 12.6927 56.3565 8.49996 46.0001 8.49996ZM69.7797 30.5537C71.4069 32.1809 71.4069 34.8191 69.7797 36.4462L44.7797 61.4462C43.1525 63.0734 40.5143 63.0734 38.8871 61.4462L26.3871 48.9462C24.76 47.3191 24.76 44.6809 26.3871 43.0537C28.0143 41.4265 30.6525 41.4265 32.2797 43.0537L41.8334 52.6074L63.8871 30.5537C65.5143 28.9265 68.1525 28.9265 69.7797 30.5537Z" fill="#5EF38C"/>
</svg>
