<svg width="19" height="19" viewBox="0 0 19 19" fill="none" xmlns="http://www.w3.org/2000/svg">
<path fill-rule="evenodd" clip-rule="evenodd" d="M0.833252 8.75016C0.833252 4.37793 4.37768 0.833496 8.74992 0.833496C13.1222 0.833496 16.6666 4.37793 16.6666 8.75016C16.6666 10.6361 16.0071 12.368 14.9062 13.7279L17.9671 16.7889C18.2926 17.1143 18.2926 17.6419 17.9671 17.9674C17.6417 18.2928 17.1141 18.2928 16.7886 17.9674L13.7277 14.9064C12.3678 16.0074 10.6359 16.6668 8.74992 16.6668C4.37768 16.6668 0.833252 13.1224 0.833252 8.75016ZM8.74992 2.50016C5.29816 2.50016 2.49992 5.2984 2.49992 8.75016C2.49992 12.2019 5.29816 15.0002 8.74992 15.0002C12.2017 15.0002 14.9999 12.2019 14.9999 8.75016C14.9999 5.2984 12.2017 2.50016 8.74992 2.50016ZM5.80364 5.38718C6.55678 4.6341 7.59957 4.16683 8.74992 4.16683C9.90026 4.16683 10.9431 4.63409 11.6962 5.3872C12.0216 5.71264 12.0216 6.24027 11.6962 6.56571C11.3707 6.89115 10.8431 6.89115 10.5177 6.56571C10.0644 6.1124 9.4405 5.8335 8.74992 5.8335C8.05935 5.8335 7.43548 6.1124 6.98211 6.56573C6.65666 6.89116 6.12903 6.89114 5.8036 6.56569C5.47818 6.24024 5.47819 5.7126 5.80364 5.38718Z" fill="#EFF1ED"/>
</svg>
