<svg width="500" height="500" viewBox="0 0 500 500" fill="none" xmlns="http://www.w3.org/2000/svg">
<path d="M330.578 78.7629C330.578 78.7629 270.56 154.786 174.531 109.438C78.5027 64.0899 -17.525 186.795 65.1652 261.484C147.855 336.173 66.937 377.215 123.115 422.989C186.965 475.014 242.553 369.517 293.234 393.524C405.092 446.509 487.959 425.534 469.287 364.182C436.511 256.487 394.598 249.482 426.608 193.464C458.618 137.446 387.971 20.9744 330.578 78.7629Z" fill="#312F39"/>
<path d="M324.513 217.747C324.513 217.747 385.596 213.78 390.356 153.491C384.803 149.525 376.87 125.726 390.356 123.347C403.841 120.967 413.361 123.347 413.361 123.347C413.361 123.347 437.952 142.385 407.014 156.664C406.221 164.597 405.428 235.199 341.966 266.137C278.503 297.075 324.513 217.747 324.513 217.747Z" fill="#43404F"/>
<path d="M425.382 84.6253L400.893 80.163C399.535 79.9155 398.233 80.816 397.985 82.1743L389.162 130.599C388.914 131.958 389.815 133.259 391.173 133.507L415.662 137.969C417.02 138.217 418.322 137.316 418.57 135.958L427.393 87.533C427.641 86.1747 426.74 84.8729 425.382 84.6253Z" fill="#99A3FF"/>
<path d="M355.229 261.505C355.229 295.108 340.347 325.253 316.803 345.719C296.536 363.31 270.593 372.979 243.757 372.944C204.125 372.944 169.348 352.287 149.579 321.127C138.914 304.268 132.969 284.856 132.362 264.916C131.755 244.976 136.509 225.238 146.129 207.761C155.749 190.285 169.882 175.709 187.054 165.555C204.226 155.401 223.808 150.041 243.757 150.033C295.448 150.033 338.951 185.223 351.517 232.978C353.999 242.284 355.247 251.875 355.229 261.505Z" fill="#EBEDFF"/>
<path d="M316.803 345.718C296.536 363.308 270.593 372.977 243.758 372.943C204.125 372.943 169.348 352.286 149.58 321.126C166.968 306.879 176.773 308.401 183.31 310.845C190.449 313.542 194.416 325.632 215.041 313.733C235.667 301.833 252.325 330.392 260.258 335.151C291.989 332.867 308.521 339.625 316.803 345.718Z" fill="#878491"/>
<path d="M351.517 232.978C304.396 244.148 307.728 217.335 303.095 201.088C298.336 184.43 295.163 189.982 265.811 212.988C236.46 235.994 233.286 198.709 232.747 192.363C232.176 186.017 230.907 183.638 215.834 185.509C200.762 187.38 196.796 175.704 184.103 183.637C178.836 186.937 171.665 185.446 165.096 182.558C175.421 172.225 187.685 164.033 201.183 158.452C214.682 152.87 229.151 150.009 243.758 150.033C295.448 150.033 338.952 185.223 351.517 232.978Z" fill="#878491"/>
<path d="M149.104 141.658C148.594 143.38 148.606 145.216 149.139 146.932C149.672 148.648 150.702 150.167 152.099 151.298C153.495 152.429 155.196 153.12 156.985 153.284C158.774 153.449 160.572 153.079 162.151 152.221C163.73 151.364 165.02 150.057 165.856 148.467C166.693 146.877 167.039 145.074 166.851 143.287C166.663 141.5 165.95 139.809 164.801 138.428C163.652 137.046 162.119 136.036 160.396 135.526C158.086 134.842 155.598 135.104 153.481 136.254C151.363 137.404 149.789 139.347 149.104 141.658Z" fill="#F05365"/>
<path d="M144.44 119.604C141.199 121.352 138.338 123.726 136.021 126.588C133.705 129.45 131.979 132.743 130.944 136.276C130.743 136.947 130.676 137.65 130.747 138.346C130.819 139.043 131.027 139.718 131.36 140.334C131.693 140.949 132.144 141.493 132.687 141.934C133.231 142.375 133.856 142.704 134.527 142.903C135.198 143.102 135.902 143.166 136.598 143.092C137.294 143.018 137.969 142.808 138.583 142.473C139.197 142.138 139.74 141.684 140.179 141.139C140.618 140.594 140.945 139.968 141.141 139.296C141.789 137.106 142.862 135.065 144.299 133.29C145.736 131.515 147.509 130.04 149.516 128.951C151.523 127.861 153.725 127.177 155.996 126.938C158.267 126.699 160.563 126.91 162.753 127.559C163.423 127.76 164.127 127.827 164.823 127.756C165.519 127.685 166.195 127.477 166.81 127.144C167.426 126.811 167.97 126.36 168.411 125.816C168.852 125.273 169.181 124.647 169.38 123.976C169.578 123.305 169.643 122.601 169.569 121.905C169.495 121.209 169.284 120.535 168.949 119.92C168.614 119.306 168.161 118.764 167.616 118.325C167.071 117.886 166.444 117.559 165.772 117.363C162.245 116.307 158.543 115.961 154.881 116.346C151.22 116.731 147.671 117.838 144.44 119.604Z" fill="#F05365"/>
<path d="M136.083 104.216C130.818 107.056 126.168 110.913 122.404 115.563C118.639 120.213 115.834 125.563 114.152 131.304C113.751 132.657 113.904 134.113 114.577 135.352C115.25 136.591 116.388 137.512 117.74 137.913C119.092 138.313 120.548 138.16 121.787 137.487C123.027 136.814 123.948 135.676 124.348 134.324C125.649 129.929 127.803 125.834 130.687 122.271C133.571 118.709 137.129 115.75 141.157 113.562C145.185 111.375 149.604 110.002 154.162 109.523C158.72 109.044 163.329 109.467 167.723 110.769C168.394 110.97 169.097 111.037 169.793 110.966C170.49 110.894 171.165 110.686 171.781 110.353C172.396 110.021 172.94 109.569 173.381 109.026C173.822 108.482 174.151 107.857 174.35 107.186C174.549 106.515 174.613 105.811 174.539 105.115C174.465 104.419 174.255 103.745 173.92 103.13C173.584 102.516 173.131 101.973 172.586 101.534C172.041 101.096 171.415 100.769 170.743 100.572C165.012 98.8573 158.997 98.2963 153.048 98.9217C147.099 99.5471 141.332 101.347 136.083 104.216Z" fill="#F05365"/>
<path d="M175.729 83.7462C167.785 81.3932 159.456 80.6279 151.216 81.4943C142.977 82.3606 134.989 84.8414 127.708 88.7952C120.428 92.749 113.998 98.0982 108.785 104.537C103.572 110.976 99.6781 118.379 97.3264 126.323C97.1253 126.994 97.0584 127.697 97.1297 128.394C97.201 129.09 97.4091 129.765 97.742 130.381C98.0749 130.996 98.5261 131.54 99.0696 131.981C99.6132 132.422 100.238 132.751 100.91 132.95C101.581 133.149 102.284 133.213 102.98 133.139C103.676 133.065 104.351 132.855 104.965 132.52C105.58 132.185 106.122 131.732 106.561 131.186C107 130.641 107.327 130.015 107.523 129.343C109.478 122.738 112.715 116.583 117.049 111.23C121.383 105.876 126.729 101.429 132.782 98.1417C138.835 94.8545 145.477 92.792 152.327 92.0719C159.177 91.3518 166.102 91.9881 172.706 93.9447C174.057 94.3381 175.508 94.1807 176.742 93.507C177.977 92.8333 178.894 91.698 179.294 90.3497C179.693 89.0013 179.542 87.5495 178.874 86.312C178.206 85.0745 177.075 84.152 175.729 83.7462Z" fill="#F05365"/>
</svg>
