<svg width="92" height="92" viewBox="0 0 92 92" fill="none" xmlns="http://www.w3.org/2000/svg">
<path d="M67.6961 24.3037C69.3233 25.9309 69.3233 28.5691 67.6961 30.1962L51.8924 46L67.6961 61.8037C69.3233 63.4309 69.3233 66.0691 67.6961 67.6962C66.0689 69.3234 63.4307 69.3234 61.8036 67.6962L45.9998 51.8925L30.1961 67.6962C28.5689 69.3234 25.9307 69.3234 24.3036 67.6962C22.6764 66.0691 22.6764 63.4309 24.3036 61.8037L40.1073 46L24.3036 30.1962C22.6764 28.5691 22.6764 25.9309 24.3036 24.3037C25.9307 22.6765 28.5689 22.6765 30.1961 24.3037L45.9998 40.1074L61.8036 24.3037C63.4307 22.6765 66.0689 22.6765 67.6961 24.3037Z" fill="#F05365"/>
<path fill-rule="evenodd" clip-rule="evenodd" d="M0.166504 46C0.166504 20.6869 20.6868 0.166626 45.9998 0.166626C71.3129 0.166626 91.8332 20.6869 91.8332 46C91.8332 71.313 71.3129 91.8333 45.9998 91.8333C20.6868 91.8333 0.166504 71.313 0.166504 46ZM45.9998 8.49996C25.2892 8.49996 8.49984 25.2893 8.49984 46C8.49984 66.7106 25.2892 83.5 45.9998 83.5C66.7105 83.5 83.4998 66.7106 83.4998 46C83.4998 25.2893 66.7105 8.49996 45.9998 8.49996Z" fill="#F05365"/>
</svg>
