<svg width="17" height="12" viewBox="0 0 17 12" fill="none" xmlns="http://www.w3.org/2000/svg">
<path fill-rule="evenodd" clip-rule="evenodd" d="M10.2499 1.25033C10.2499 0.790088 10.623 0.416992 11.0832 0.416992H16.0832C16.5434 0.416992 16.9165 0.790088 16.9165 1.25033V6.25033C16.9165 6.71056 16.5434 7.08366 16.0832 7.08366C15.6229 7.08366 15.2498 6.71056 15.2498 6.25033V3.32818L10.5125 8.28426C10.242 8.56731 9.81083 8.62382 9.47647 8.42007L5.98995 6.29546L2.14201 10.9479C1.84869 11.3025 1.3234 11.3523 0.968746 11.0589C0.614094 10.7656 0.564379 10.2403 0.857705 9.88567L5.16541 4.67734C5.42935 4.35822 5.88758 4.28134 6.24121 4.49683L9.77109 6.64786L14.1338 2.08366H11.0832C10.623 2.08366 10.2499 1.71056 10.2499 1.25033Z" fill="#5EF38C"/>
</svg>
