<svg width="20" height="16" viewBox="0 0 20 16" fill="none" xmlns="http://www.w3.org/2000/svg">
<path fill-rule="evenodd" clip-rule="evenodd" d="M4.7556 0.744078C5.08103 1.06951 5.08103 1.59715 4.7556 1.92259L3.67819 3H18.333C18.7932 3 19.1663 3.3731 19.1663 3.83333C19.1663 4.29357 18.7932 4.66667 18.333 4.66667H3.67819L4.7556 5.74408C5.08103 6.06951 5.08103 6.59715 4.7556 6.92259C4.43016 7.24803 3.90252 7.24803 3.57709 6.92259L1.07709 4.42259C0.751649 4.09715 0.751649 3.56951 1.07709 3.24408L3.57709 0.744078C3.90252 0.418641 4.43016 0.418641 4.7556 0.744078ZM15.2438 9.07741C15.5692 8.75197 16.0968 8.75197 16.4223 9.07741L18.9223 11.5774C19.2477 11.9028 19.2477 12.4305 18.9223 12.7559L16.4223 15.2559C16.0968 15.5814 15.5692 15.5814 15.2438 15.2559C14.9183 14.9305 14.9183 14.4028 15.2438 14.0774L16.3212 13H1.66634C1.2061 13 0.833008 12.6269 0.833008 12.1667C0.833008 11.7064 1.2061 11.3333 1.66634 11.3333H16.3212L15.2438 10.2559C14.9183 9.93049 14.9183 9.40285 15.2438 9.07741Z" fill="#EFF1ED"/>
</svg>
