<svg width="40" height="40" viewBox="0 0 40 40" fill="none" xmlns="http://www.w3.org/2000/svg">
<circle cx="20" cy="20" r="20" fill="#28262F"/>
<path fill-rule="evenodd" clip-rule="evenodd" d="M14.1953 24.1953C14.4556 23.935 14.8777 23.935 15.1381 24.1953L16 25.0572V13.3334C16 12.9652 16.2985 12.6667 16.6667 12.6667C17.0349 12.6667 17.3333 12.9652 17.3333 13.3334V25.0572L18.1953 24.1953C18.4556 23.935 18.8777 23.935 19.1381 24.1953C19.3984 24.4557 19.3984 24.8778 19.1381 25.1381L17.1381 27.1381C16.8777 27.3985 16.4556 27.3985 16.1953 27.1381L14.1953 25.1381C13.9349 24.8778 13.9349 24.4557 14.1953 24.1953ZM20.8619 15.8048C20.6016 15.5444 20.6016 15.1223 20.8619 14.862L22.8619 12.862C23.1223 12.6016 23.5444 12.6016 23.8047 12.862L25.8047 14.862C26.0651 15.1223 26.0651 15.5444 25.8047 15.8048C25.5444 16.0651 25.1223 16.0651 24.8619 15.8048L24 14.9429V26.6667C24 27.0349 23.7015 27.3334 23.3333 27.3334C22.9651 27.3334 22.6667 27.0349 22.6667 26.6667V14.9429L21.8047 15.8048C21.5444 16.0651 21.1223 16.0651 20.8619 15.8048Z" fill="#EFF1ED"/>
</svg>
